SplineFontDB: 3.0
FontName: PTSerif-Regular
FullName: PT Serif
FamilyName: PT Serif
Weight: Book
Copyright: Copyright (c) 2010 ParaType Ltd. All rights reserved.
Version: 1.000W OFL
ItalicAngle: 0
UnderlinePosition: -51.2
UnderlineWidth: 51.2
Ascent: 819
Descent: 205
sfntRevision: 0x00010000
LayerCount: 2
Layer: 0 1 "Back"  1
Layer: 1 1 "Fore"  0
XUID: [1021 631 875253810 9717989]
FSType: 0
OS2Version: 3
OS2_WeightWidthSlopeOnly: 0
OS2_UseTypoMetrics: 1
CreationTime: 1293103741
ModificationTime: 1477031642
PfmFamily: 17
TTFWeight: 400
TTFWidth: 5
LineGap: 0
VLineGap: 0
Panose: 2 10 6 3 4 5 5 2 2 4
OS2TypoAscent: 1064
OS2TypoAOffset: 0
OS2TypoDescent: -293
OS2TypoDOffset: 0
OS2TypoLinegap: 0
OS2WinAscent: 1064
OS2WinAOffset: 0
OS2WinDescent: 293
OS2WinDOffset: 0
HheadAscent: 1064
HheadAOffset: 0
HheadDescent: -293
HheadDOffset: 0
OS2SubXSize: 666
OS2SubYSize: 614
OS2SubXOff: 0
OS2SubYOff: 77
OS2SupXSize: 666
OS2SupYSize: 614
OS2SupXOff: 0
OS2SupYOff: 358
OS2StrikeYSize: 51
OS2StrikeYPos: 256
OS2FamilyClass: 1807
OS2Vendor: 'PARA'
OS2CodePages: 20000097.00000000
OS2UnicodeRanges: a00002ef.5000204b.00000000.00000000
Lookup: 1 0 0 "'aalt' Access All Alternates lookup 0"  {"'aalt' Access All Alternates lookup 0 subtable"  } ['aalt' ('cyrl' <'BSH ' 'CHU ' 'dflt' > 'latn' <'MOL ' 'ROM ' 'dflt' > ) ]
Lookup: 3 0 0 "'aalt' Access All Alternates lookup 1"  {"'aalt' Access All Alternates lookup 1 subtable"  } ['aalt' ('cyrl' <'BSH ' 'CHU ' 'dflt' > 'latn' <'MOL ' 'ROM ' 'dflt' > ) ]
Lookup: 6 0 0 "'ccmp' Glyph Composition/Decomposition lookup 2"  {"'ccmp' Glyph Composition/Decomposition lookup 2 subtable"  } ['ccmp' ('cyrl' <'BSH ' 'CHU ' 'dflt' > 'latn' <'MOL ' 'ROM ' 'dflt' > ) ]
Lookup: 1 0 0 "'locl' Localized Forms in Latin lookup 3"  {"'locl' Localized Forms in Latin lookup 3 subtable"  } ['locl' ('latn' <'ROM ' > ) ]
Lookup: 1 0 0 "'locl' Localized Forms in Latin lookup 4"  {"'locl' Localized Forms in Latin lookup 4 subtable"  } ['locl' ('latn' <'MOL ' > ) ]

StartChar: .notdef
Encoding: 65536 -1 0
Width: 726
Flags: W
LayerCount: 2
Fore
SplineSet
51 717 m 1,0,-1
 717 717 l 1,1,-1
 717 0 l 1,2,-1
 51 0 l 1,3,-1
 51 717 l 1,0,-1
584 666 m 1,4,-1
 384 443 l 1,5,-1
 184 666 l 1,6,-1
 133 614 l 1,7,-1
 335 389 l 1,8,-1
 133 164 l 1,9,-1
 184 113 l 1,10,-1
 384 335 l 1,11,-1
 584 113 l 1,12,-1
 635 164 l 1,13,-1
 432 389 l 1,14,-1
 635 614 l 1,15,-1
 584 666 l 1,4,-1
166 70 m 1,16,-1
 130 70 l 1,17,-1
 130 62 l 1,18,-1
 143 62 l 1,19,-1
 143 27 l 1,20,-1
 153 27 l 1,21,-1
 153 62 l 1,22,-1
 166 62 l 1,23,-1
 166 70 l 1,16,-1
278 59 m 1,24,-1
 275 59 l 2,25,26
 274 59 274 59 273 60 c 1,27,28
 269 60 269 60 264 55 c 1,29,-1
 264 59 l 1,30,-1
 257 59 l 1,31,-1
 257 27 l 1,32,-1
 265 27 l 1,33,-1
 265 47 l 1,34,35
 268 52 268 52 272 52 c 0,36,37
 274 52 274 52 276 51 c 1,38,-1
 278 59 l 1,24,-1
283 67 m 0,39,40
 283 62 283 62 287 61 c 0,41,42
 292 61 292 61 292 66 c 256,43,44
 292 71 292 71 287 71 c 0,45,46
 283 71 283 71 283 67 c 0,39,40
283 27 m 1,47,-1
 292 27 l 1,48,-1
 292 59 l 1,49,-1
 283 59 l 1,50,-1
 283 27 l 1,47,-1
298 52 m 1,51,-1
 303 52 l 1,52,-1
 303 27 l 1,53,-1
 311 27 l 1,54,-1
 311 52 l 1,55,-1
 319 52 l 1,56,-1
 319 59 l 1,57,-1
 311 59 l 1,58,59
 311 61 311 61 312 62 c 256,60,61
 313 63 313 63 315 63 c 2,62,-1
 318 63 l 1,63,-1
 322 63 l 1,64,-1
 323 70 l 2,65,66
 323 71 323 71 318 71 c 2,67,-1
 313 71 l 1,68,-1
 309 71 l 2,69,70
 308 71 308 71 306 69.5 c 128,-1,71
 304 68 304 68 304 67 c 0,72,73
 303 65 303 65 303 61 c 2,74,-1
 303 59 l 1,75,-1
 298 59 l 1,76,-1
 298 52 l 1,51,-1
339 46 m 0,77,78
 339 20 339 20 362 20 c 0,79,80
 373 20 373 20 380 26.5 c 128,-1,81
 387 33 387 33 387 46 c 0,82,83
 387 70 387 70 362 70 c 0,84,85
 352 70 352 70 345.5 63.5 c 128,-1,86
 339 57 339 57 339 46 c 0,77,78
346 46 m 0,87,88
 346 63 346 63 362 63 c 0,89,90
 379 63 379 63 380 46 c 0,91,92
 380 28 380 28 362 28 c 0,93,94
 346 28 346 28 346 46 c 0,87,88
370 41 m 1,95,96
 368 40 368 40 366 40 c 0,97,98
 361 40 361 40 360 46 c 0,99,100
 360 50 360 50 366 50 c 2,101,-1
 369 50 l 1,102,-1
 372 55 l 1,103,104
 368 57 368 57 362 57 c 0,105,106
 352 57 352 57 352 46 c 0,107,108
 352 33 352 33 362 33 c 0,109,110
 367 33 367 33 372 35 c 1,111,-1
 370 41 l 1,95,96
412 28 m 1,112,-1
 421 28 l 1,113,-1
 421 42 l 1,114,-1
 426 42 l 2,115,116
 433 42 433 42 438.5 45 c 128,-1,117
 444 48 444 48 444 56 c 0,118,119
 444 66 444 66 438 68.5 c 128,-1,120
 432 71 432 71 425 71 c 2,121,-1
 412 71 l 1,122,-1
 412 28 l 1,112,-1
426 63 m 2,123,124
 435 63 435 63 435 57 c 256,125,126
 435 51 435 51 432.5 50.5 c 128,-1,127
 430 50 430 50 425 50 c 2,128,-1
 421 50 l 1,129,-1
 421 63 l 1,130,-1
 426 63 l 2,123,124
451 52 m 1,131,132
 454 53 454 53 456.5 53.5 c 128,-1,133
 459 54 459 54 462 54 c 0,134,135
 467 54 467 54 467 49 c 2,136,-1
 467 47 l 1,137,138
 466 47 466 47 465 47.5 c 128,-1,139
 464 48 464 48 462 48 c 0,140,141
 447 48 447 48 446 36 c 0,142,143
 446 27 446 27 457 27 c 0,144,145
 464 27 464 27 467 33 c 1,146,-1
 470 28 l 1,147,-1
 477 28 l 1,148,149
 476 29 476 29 476 36 c 2,150,-1
 476 49 l 2,151,152
 476 61 476 61 464 61 c 0,153,154
 459 61 459 61 455 59.5 c 128,-1,155
 451 58 451 58 449 57 c 1,156,-1
 451 52 l 1,131,132
461 34 m 256,157,158
 456 34 456 34 456 39 c 0,159,160
 456 43 456 43 462 43 c 0,161,162
 464 43 464 43 465 42.5 c 128,-1,163
 466 42 466 42 467 42 c 1,164,-1
 467 39 l 1,165,166
 466 34 466 34 461 34 c 256,157,158
506 60 m 1,167,168
 504 61 504 61 501 61 c 0,169,170
 496 61 496 61 494 55 c 1,171,-1
 493 55 l 1,172,-1
 492 60 l 1,173,-1
 484 60 l 1,174,-1
 484 28 l 1,175,-1
 494 28 l 1,176,-1
 494 48 l 2,177,178
 494 53 494 53 501 53 c 0,179,180
 502 53 502 53 502 52.5 c 128,-1,181
 502 52 502 52 503 52 c 2,182,-1
 504 52 l 1,183,-1
 506 60 l 1,167,168
511 52 m 1,184,185
 521 54 521 54 522 54 c 0,186,187
 528 54 528 54 528 49 c 2,188,-1
 528 47 l 1,189,190
 526 47 526 47 525 47.5 c 128,-1,191
 524 48 524 48 522 48 c 0,192,193
 507 48 507 48 507 36 c 0,194,195
 507 27 507 27 517 27 c 0,196,197
 525 27 525 27 528 33 c 1,198,-1
 529 33 l 1,199,-1
 530 28 l 1,200,-1
 538 28 l 1,201,202
 537 29 537 29 537 36 c 2,203,-1
 537 49 l 2,204,205
 537 61 537 61 524 61 c 0,206,207
 519 61 519 61 516 59.5 c 128,-1,208
 513 58 513 58 510 57 c 1,209,-1
 511 52 l 1,184,185
521 34 m 0,210,211
 516 34 516 34 516 39 c 0,212,213
 516 43 516 43 522 43 c 0,214,215
 524 43 524 43 525 42.5 c 128,-1,216
 526 42 526 42 528 42 c 1,217,-1
 528 39 l 1,218,219
 525 34 525 34 521 34 c 0,210,211
570 71 m 1,220,-1
 534 71 l 1,221,-1
 534 63 l 1,222,-1
 548 63 l 1,223,-1
 548 28 l 1,224,-1
 556 28 l 1,225,-1
 556 63 l 1,226,-1
 570 63 l 1,227,-1
 570 71 l 1,220,-1
581 60 m 1,228,-1
 570 60 l 1,229,-1
 585 28 l 1,230,231
 583 23 583 23 580 23 c 1,232,-1
 578 24 l 1,233,-1
 575 16 l 1,234,235
 576 15 576 15 582 15 c 0,236,237
 589 15 589 15 593 31 c 1,238,-1
 605 60 l 1,239,-1
 596 60 l 1,240,-1
 590 42 l 1,241,-1
 590 36 l 1,242,-1
 589 36 l 1,243,-1
 588 42 l 1,244,-1
 581 60 l 1,228,-1
609 15 m 1,245,-1
 618 15 l 1,246,-1
 618 29 l 1,247,248
 620 27 620 27 625 27 c 0,249,250
 641 27 641 27 641 45 c 0,251,252
 641 61 641 61 628 61 c 0,253,254
 622 61 622 61 617 56 c 1,255,-1
 615 56 l 1,256,-1
 614 60 l 1,257,-1
 609 60 l 1,258,-1
 609 15 l 1,245,-1
626 54 m 0,259,260
 632 54 632 54 632 45 c 0,261,262
 632 34 632 34 623 34 c 0,263,264
 621 34 621 34 618 36 c 1,265,-1
 618 48 l 2,266,267
 619 54 619 54 626 54 c 0,259,260
672 36 m 1,268,269
 670 34 670 34 664 34 c 0,270,271
 656 34 656 34 655 41 c 1,272,-1
 677 41 l 1,273,-1
 677 48 l 2,274,275
 677 61 677 61 663 61 c 0,276,277
 647 61 647 61 646 43 c 0,278,279
 646 27 646 27 663 27 c 0,280,281
 671 27 671 27 675 31 c 1,282,-1
 672 36 l 1,268,269
663 54 m 256,283,284
 670 54 670 54 669 47 c 1,285,-1
 655 47 l 1,286,287
 656 54 656 54 663 54 c 256,283,284
94 28 m 1,288,-1
 103 28 l 1,289,-1
 103 42 l 1,290,-1
 109 42 l 2,291,292
 116 42 116 42 121.5 45 c 128,-1,293
 127 48 127 48 127 56 c 0,294,295
 127 66 127 66 121 68.5 c 128,-1,296
 115 71 115 71 108 71 c 2,297,-1
 94 71 l 1,298,-1
 94 28 l 1,288,-1
109 63 m 2,299,300
 118 63 118 63 118 57 c 256,301,302
 118 51 118 51 115.5 50.5 c 128,-1,303
 113 50 113 50 108 50 c 2,304,-1
 103 50 l 1,305,-1
 103 63 l 1,306,-1
 109 63 l 2,299,300
205 39 m 0,307,308
 205 34 205 34 197 34 c 0,309,310
 194 34 194 34 191.5 34.5 c 128,-1,311
 189 35 189 35 185 37 c 1,312,-1
 182 28 l 1,313,314
 186 27 186 27 189.5 26.5 c 128,-1,315
 193 26 193 26 198 26 c 0,316,317
 214 26 214 26 214 40 c 0,318,319
 214 45 214 45 210.5 47.5 c 128,-1,320
 207 50 207 50 203.5 51.5 c 128,-1,321
 200 53 200 53 196.5 54.5 c 128,-1,322
 193 56 193 56 193 59 c 256,323,324
 193 62 193 62 200 62 c 0,325,326
 203 62 203 62 205.5 61.5 c 128,-1,327
 208 61 208 61 211 60 c 1,328,-1
 213 69 l 1,329,330
 209 70 209 70 206 70.5 c 128,-1,331
 203 71 203 71 200 71 c 0,332,333
 184 71 184 71 183 57 c 0,334,335
 183 52 183 52 186.5 49.5 c 128,-1,336
 190 47 190 47 194 45.5 c 128,-1,337
 198 44 198 44 201.5 42.5 c 128,-1,338
 205 41 205 41 205 39 c 0,307,308
245 35 m 1,339,340
 243 33 243 33 237 33 c 0,341,342
 229 33 229 33 228 40 c 1,343,-1
 250 40 l 1,344,-1
 250 47 l 2,345,346
 250 60 250 60 236 60 c 0,347,348
 220 60 220 60 219 42 c 0,349,350
 219 26 219 26 236 26 c 0,351,352
 244 26 244 26 248 30 c 1,353,-1
 245 35 l 1,339,340
236 53 m 256,354,355
 243 53 243 53 242 46 c 1,356,-1
 228 46 l 1,357,358
 229 53 229 53 236 53 c 256,354,355
EndSplineSet
Validated: 1
EndChar

StartChar: exclam
Encoding: 33 33 4
Width: 334
Flags: W
LayerCount: 2
Fore
SplineSet
178 223 m 1,0,-1
 145 403 l 1,1,-1
 145 707 l 1,2,3
 168 718 168 718 191 718 c 256,4,5
 215 718 215 718 238 707 c 1,6,-1
 238 403 l 1,7,-1
 205 223 l 1,8,-1
 178 223 l 1,0,-1
122 58 m 0,9,10
 122 89 122 89 141.5 107.5 c 128,-1,11
 161 126 161 126 191 126 c 0,12,13
 223 126 223 126 242.5 107.5 c 128,-1,14
 262 89 262 89 262 58 c 0,15,16
 262 28 262 28 242.5 10 c 128,-1,17
 223 -8 223 -8 191 -8 c 0,18,19
 160 -8 160 -8 141 10 c 128,-1,20
 122 28 122 28 122 58 c 0,9,10
EndSplineSet
Validated: 1
EndChar

StartChar: numbersign
Encoding: 35 35 6
Width: 545
Flags: W
LayerCount: 2
Fore
SplineSet
315 239 m 1,0,-1
 170 239 l 1,1,-1
 127 59 l 1,2,-1
 73 59 l 1,3,-1
 116 239 l 1,4,-1
 34 239 l 1,5,-1
 48 286 l 1,6,-1
 126 286 l 1,7,-1
 163 439 l 1,8,-1
 85 439 l 1,9,-1
 99 486 l 1,10,-1
 174 486 l 1,11,-1
 215 657 l 1,12,-1
 268 657 l 1,13,-1
 228 486 l 1,14,-1
 374 486 l 1,15,-1
 415 657 l 1,16,-1
 468 657 l 1,17,-1
 427 486 l 1,18,-1
 509 486 l 1,19,-1
 492 439 l 1,20,-1
 416 439 l 1,21,-1
 379 286 l 1,22,-1
 458 286 l 1,23,-1
 440 239 l 1,24,-1
 369 239 l 1,25,-1
 326 59 l 1,26,-1
 272 59 l 1,27,-1
 315 239 l 1,0,-1
180 286 m 1,28,-1
 326 286 l 1,29,-1
 362 439 l 1,30,-1
 217 439 l 1,31,-1
 180 286 l 1,28,-1
EndSplineSet
Validated: 1
EndChar

StartChar: dollar
Encoding: 36 36 7
Width: 545
Flags: W
LayerCount: 2
Fore
SplineSet
245 -12 m 1,0,1
 214 -12 214 -12 185.5 -7.5 c 128,-1,2
 157 -3 157 -3 133 4.5 c 128,-1,3
 109 12 109 12 90 21.5 c 128,-1,4
 71 31 71 31 60 40 c 1,5,6
 61 50 61 50 62 67 c 128,-1,7
 63 84 63 84 65.5 101.5 c 128,-1,8
 68 119 68 119 70.5 135.5 c 128,-1,9
 73 152 73 152 77 161 c 1,10,-1
 102 161 l 1,11,-1
 164 61 l 1,12,13
 177 53 177 53 198.5 47.5 c 128,-1,14
 220 42 220 42 245 41 c 1,15,-1
 245 333 l 1,16,17
 241 333 241 333 239 335 c 2,18,-1
 206 350 l 2,19,20
 176 363 176 363 148.5 379.5 c 128,-1,21
 121 396 121 396 100 419 c 128,-1,22
 79 442 79 442 66 473 c 128,-1,23
 53 504 53 504 53 546 c 0,24,25
 53 583 53 583 67.5 614.5 c 128,-1,26
 82 646 82 646 107 670.5 c 128,-1,27
 132 695 132 695 167.5 710 c 128,-1,28
 203 725 203 725 245 728 c 1,29,-1
 245 778 l 1,30,-1
 298 778 l 1,31,-1
 298 728 l 1,32,33
 347 725 347 725 383.5 715 c 128,-1,34
 420 705 420 705 446 692 c 1,35,36
 445 659 445 659 437.5 637.5 c 128,-1,37
 430 616 430 616 422 600 c 1,38,-1
 395 600 l 1,39,-1
 344 670 l 1,40,41
 333 672 333 672 322.5 673 c 128,-1,42
 312 674 312 674 298 675 c 1,43,-1
 298 401 l 1,44,-1
 328 388 l 1,45,46
 360 373 360 373 390 356 c 128,-1,47
 420 339 420 339 443.5 316 c 128,-1,48
 467 293 467 293 481.5 260 c 128,-1,49
 496 227 496 227 496 179 c 0,50,51
 496 104 496 104 443.5 53 c 128,-1,52
 391 2 391 2 298 -9 c 1,53,-1
 298 -72 l 1,54,-1
 245 -72 l 1,55,-1
 245 -12 l 1,0,1
403 172 m 0,56,57
 403 225 403 225 372.5 256.5 c 128,-1,58
 342 288 342 288 298 308 c 1,59,-1
 298 46 l 1,60,61
 344 58 344 58 373.5 90.5 c 128,-1,62
 403 123 403 123 403 172 c 0,56,57
145 564 m 0,63,64
 145 536 145 536 153 515.5 c 128,-1,65
 161 495 161 495 174 478.5 c 128,-1,66
 187 462 187 462 205 449 c 128,-1,67
 223 436 223 436 245 425 c 1,68,-1
 245 675 l 1,69,70
 199 670 199 670 172 638.5 c 128,-1,71
 145 607 145 607 145 564 c 0,63,64
EndSplineSet
Validated: 1
EndChar

StartChar: ampersand
Encoding: 38 38 9
Width: 889
Flags: W
LayerCount: 2
Fore
SplineSet
553 126 m 1,0,1
 522 154 522 154 486 191 c 128,-1,2
 450 228 450 228 416 267 c 128,-1,3
 382 306 382 306 353.5 342 c 128,-1,4
 325 378 325 378 308 401 c 1,5,6
 264 358 264 358 244.5 318 c 128,-1,7
 225 278 225 278 225 223 c 0,8,9
 225 184 225 184 238 151 c 128,-1,10
 251 118 251 118 273.5 93.5 c 128,-1,11
 296 69 296 69 327.5 55 c 128,-1,12
 359 41 359 41 396 41 c 0,13,14
 442 41 442 41 482 62 c 128,-1,15
 522 83 522 83 553 126 c 1,0,1
289 597 m 0,16,17
 289 579 289 579 296 558 c 128,-1,18
 303 537 303 537 315 516.5 c 128,-1,19
 327 496 327 496 340.5 476.5 c 128,-1,20
 354 457 354 457 368 441 c 1,21,22
 405 472 405 472 428 512.5 c 128,-1,23
 451 553 451 553 445 608 c 0,24,25
 443 641 443 641 425 663.5 c 128,-1,26
 407 686 407 686 367 686 c 0,27,28
 344 686 344 686 329 678.5 c 128,-1,29
 314 671 314 671 305 658 c 128,-1,30
 296 645 296 645 292.5 629 c 128,-1,31
 289 613 289 613 289 597 c 0,16,17
714 0 m 1,32,33
 692 14 692 14 659.5 35 c 128,-1,34
 627 56 627 56 588 94 c 1,35,36
 574 75 574 75 552 56 c 128,-1,37
 530 37 530 37 501 21.5 c 128,-1,38
 472 6 472 6 436 -3 c 128,-1,39
 400 -12 400 -12 358 -12 c 0,40,41
 304 -12 304 -12 260 4 c 128,-1,42
 216 20 216 20 185.5 48 c 128,-1,43
 155 76 155 76 138 111.5 c 128,-1,44
 121 147 121 147 121 186 c 0,45,46
 121 236 121 236 139.5 276.5 c 128,-1,47
 158 317 158 317 183.5 347.5 c 128,-1,48
 209 378 209 378 236.5 399 c 128,-1,49
 264 420 264 420 283 433 c 1,50,51
 253 466 253 466 232.5 510 c 128,-1,52
 212 554 212 554 212 592 c 0,53,54
 212 618 212 618 222 643 c 128,-1,55
 232 668 232 668 252 687 c 128,-1,56
 272 706 272 706 301.5 717.5 c 128,-1,57
 331 729 331 729 368 729 c 0,58,59
 436 729 436 729 477 700 c 128,-1,60
 518 671 518 671 518 615 c 0,61,62
 518 581 518 581 506.5 552 c 128,-1,63
 495 523 495 523 476.5 498.5 c 128,-1,64
 458 474 458 474 435 453.5 c 128,-1,65
 412 433 412 433 389 416 c 1,66,67
 431 364 431 364 486.5 308.5 c 128,-1,68
 542 253 542 253 603 198 c 1,69,70
 611 209 611 209 623.5 235.5 c 128,-1,71
 636 262 636 262 646.5 298 c 128,-1,72
 657 334 657 334 664 376.5 c 128,-1,73
 671 419 671 419 668 461 c 1,74,75
 637 467 637 467 607 485 c 1,76,-1
 607 512 l 1,77,-1
 815 512 l 1,78,-1
 815 485 l 1,79,80
 787 468 787 468 748 461 c 1,81,82
 739 401 739 401 724.5 351.5 c 128,-1,83
 710 302 710 302 694.5 264.5 c 128,-1,84
 679 227 679 227 665 201 c 128,-1,85
 651 175 651 175 643 163 c 1,86,87
 682 131 682 131 719.5 104 c 128,-1,88
 757 77 757 77 803 50 c 1,89,-1
 859 26 l 1,90,-1
 859 0 l 1,91,-1
 714 0 l 1,32,33
EndSplineSet
Validated: 33
EndChar

StartChar: quotesingle
Encoding: 39 39 10
Width: 227
Flags: W
LayerCount: 2
Fore
SplineSet
89 686 m 1,0,1
 94 699 94 699 105 708 c 128,-1,2
 116 717 116 717 133 717 c 0,3,4
 165 717 165 717 176 686 c 1,5,-1
 143 516 l 1,6,-1
 123 516 l 1,7,-1
 89 686 l 1,0,1
EndSplineSet
Validated: 1
Substitution2: "'aalt' Access All Alternates lookup 0 subtable" uniF634
EndChar

StartChar: parenleft
Encoding: 40 40 11
Width: 351
Flags: W
LayerCount: 2
Fore
SplineSet
307 -215 m 1,0,1
 255 -177 255 -177 210 -132 c 128,-1,2
 165 -87 165 -87 131.5 -30.5 c 128,-1,3
 98 26 98 26 79 94.5 c 128,-1,4
 60 163 60 163 60 249 c 0,5,6
 60 333 60 333 79.5 400.5 c 128,-1,7
 99 468 99 468 133 524.5 c 128,-1,8
 167 581 167 581 212.5 628.5 c 128,-1,9
 258 676 258 676 310 719 c 1,10,-1
 332 700 l 1,11,12
 291 656 291 656 257 610 c 128,-1,13
 223 564 223 564 199 510 c 128,-1,14
 175 456 175 456 161.5 392 c 128,-1,15
 148 328 148 328 148 249 c 0,16,17
 148 172 148 172 162.5 107 c 128,-1,18
 177 42 177 42 202 -13 c 128,-1,19
 227 -68 227 -68 260.5 -113 c 128,-1,20
 294 -158 294 -158 332 -195 c 1,21,-1
 307 -215 l 1,0,1
EndSplineSet
Validated: 1
Position2: "'case' Case-Sensitive Forms lookup 1 per glyph data 3" dx=0 dy=102 dh=0 dv=0
EndChar

StartChar: parenright
Encoding: 41 41 12
Width: 351
Flags: W
LayerCount: 2
Fore
SplineSet
19 -195 m 1,0,1
 57 -158 57 -158 90.5 -111.5 c 128,-1,2
 124 -65 124 -65 148.5 -8 c 128,-1,3
 173 49 173 49 187.5 115.5 c 128,-1,4
 202 182 202 182 202 259 c 0,5,6
 202 338 202 338 188.5 400.5 c 128,-1,7
 175 463 175 463 151.5 515 c 128,-1,8
 128 567 128 567 94 612 c 128,-1,9
 60 657 60 657 19 700 c 1,10,-1
 41 719 l 1,11,12
 93 679 93 679 138.5 634 c 128,-1,13
 184 589 184 589 218 533.5 c 128,-1,14
 252 478 252 478 271.5 410.5 c 128,-1,15
 291 343 291 343 291 259 c 0,16,17
 291 174 291 174 272.5 104 c 128,-1,18
 254 34 254 34 221 -24 c 128,-1,19
 188 -82 188 -82 142.5 -129.5 c 128,-1,20
 97 -177 97 -177 44 -215 c 1,21,-1
 19 -195 l 1,0,1
EndSplineSet
Validated: 1
Position2: "'case' Case-Sensitive Forms lookup 1 per glyph data 3" dx=0 dy=102 dh=0 dv=0
EndChar

StartChar: asterisk
Encoding: 42 42 13
Width: 476
Flags: W
LayerCount: 2
Fore
SplineSet
63 631 m 1,0,1
 60 638 60 638 62.5 648.5 c 128,-1,2
 65 659 65 659 71 670 c 128,-1,3
 77 681 77 681 85.5 689 c 128,-1,4
 94 697 94 697 103 699 c 1,5,-1
 206 610 l 1,6,7
 206 602 206 602 203 595 c 128,-1,8
 200 588 200 588 191 584 c 1,9,-1
 63 631 l 1,0,1
102 455 m 1,10,11
 94 456 94 456 86 463.5 c 128,-1,12
 78 471 78 471 72 482 c 128,-1,13
 66 493 66 493 62.5 504 c 128,-1,14
 59 515 59 515 62 523 c 1,15,-1
 190 567 l 1,16,17
 205 559 205 559 206 543 c 1,18,-1
 102 455 l 1,10,11
278 398 m 1,19,20
 273 392 273 392 262 389 c 128,-1,21
 251 386 251 386 239 386 c 256,22,23
 227 386 227 386 216 389 c 128,-1,24
 205 392 205 392 200 397 c 1,25,-1
 223 530 l 1,26,27
 239 538 239 538 256 530 c 1,28,-1
 278 398 l 1,19,20
412 523 m 1,29,30
 416 516 416 516 413.5 505 c 128,-1,31
 411 494 411 494 404.5 483 c 128,-1,32
 398 472 398 472 390 464 c 128,-1,33
 382 456 382 456 373 455 c 1,34,-1
 272 541 l 1,35,36
 272 550 272 550 276 555.5 c 128,-1,37
 280 561 280 561 286 566 c 1,38,-1
 412 523 l 1,29,30
375 699 m 1,39,40
 383 698 383 698 391 690.5 c 128,-1,41
 399 683 399 683 405 672.5 c 128,-1,42
 411 662 411 662 413.5 650.5 c 128,-1,43
 416 639 416 639 413 630 c 1,44,-1
 286 582 l 1,45,46
 272 592 272 592 271 608 c 1,47,-1
 375 699 l 1,39,40
199 755 m 1,48,49
 203 761 203 761 213.5 764.5 c 128,-1,50
 224 768 224 768 237 768 c 256,51,52
 249 768 249 768 260 764.5 c 128,-1,53
 271 761 271 761 276 755 c 1,54,-1
 254 622 l 1,55,56
 239 612 239 612 222 622 c 1,57,-1
 199 755 l 1,48,49
EndSplineSet
Validated: 33
EndChar

StartChar: plus
Encoding: 43 43 14
Width: 545
Flags: W
LayerCount: 2
Fore
SplineSet
43 379 m 1,0,-1
 246 379 l 1,1,-1
 246 594 l 1,2,-1
 300 594 l 1,3,-1
 300 379 l 1,4,-1
 503 379 l 1,5,-1
 503 325 l 1,6,-1
 300 325 l 1,7,-1
 300 104 l 1,8,-1
 246 104 l 1,9,-1
 246 325 l 1,10,-1
 43 325 l 1,11,-1
 43 379 l 1,0,-1
EndSplineSet
Validated: 1
EndChar

StartChar: comma
Encoding: 44 44 15
Width: 289
Flags: W
LayerCount: 2
Fore
SplineSet
52 -153 m 5,0,1
 71 -146 71 -146 88.5 -131 c 132,-1,2
 106 -116 106 -116 119 -97.5 c 132,-1,3
 132 -79 132 -79 138.5 -57 c 132,-1,4
 145 -35 145 -35 143 -13 c 5,5,6
 131 -2 131 -2 110.5 9 c 132,-1,7
 90 20 90 20 75 26 c 5,8,9
 70 45 70 45 74.5 63.5 c 132,-1,10
 79 82 79 82 88 96.5 c 132,-1,11
 97 111 97 111 109 119.5 c 132,-1,12
 121 128 121 128 132 129 c 5,13,14
 168 124 168 124 195 97.5 c 132,-1,15
 222 71 222 71 222 17 c 4,16,17
 222 -12 222 -12 212 -43 c 132,-1,18
 202 -74 202 -74 182.5 -101.5 c 132,-1,19
 163 -129 163 -129 135.5 -151 c 132,-1,20
 108 -173 108 -173 73 -183 c 5,21,-1
 52 -153 l 5,0,1
52 -153 m 5,22,23
 71 -146 71 -146 88.5 -131 c 132,-1,24
 106 -116 106 -116 119 -97.5 c 132,-1,25
 132 -79 132 -79 138.5 -57 c 132,-1,26
 145 -35 145 -35 143 -13 c 5,27,28
 131 -2 131 -2 110.5 9 c 132,-1,29
 90 20 90 20 75 26 c 5,30,31
 70 45 70 45 74.5 63.5 c 132,-1,32
 79 82 79 82 88 96.5 c 132,-1,33
 97 111 97 111 109 119.5 c 132,-1,34
 121 128 121 128 132 129 c 5,35,36
 168 124 168 124 195 97.5 c 132,-1,37
 222 71 222 71 222 17 c 4,38,39
 222 -12 222 -12 212 -43 c 132,-1,40
 202 -74 202 -74 182.5 -101.5 c 132,-1,41
 163 -129 163 -129 135.5 -151 c 132,-1,42
 108 -173 108 -173 73 -183 c 5,43,-1
 52 -153 l 5,22,23
EndSplineSet
Validated: 37
EndChar

StartChar: hyphen
Encoding: 45 45 16
Width: 435
Flags: W
LayerCount: 2
Fore
SplineSet
73 321 m 1,0,-1
 361 321 l 1,1,-1
 361 256 l 1,2,-1
 73 256 l 1,3,-1
 73 321 l 1,0,-1
EndSplineSet
Validated: 1
Position2: "'case' Case-Sensitive Forms lookup 1 per glyph data 2" dx=0 dy=82 dh=0 dv=0
EndChar

StartChar: period
Encoding: 46 46 17
Width: 285
Flags: W
LayerCount: 2
Fore
SplineSet
73 58 m 0,0,1
 73 89 73 89 92.5 107.5 c 128,-1,2
 112 126 112 126 142 126 c 0,3,4
 174 126 174 126 193.5 107.5 c 128,-1,5
 213 89 213 89 213 58 c 0,6,7
 213 28 213 28 193.5 10 c 128,-1,8
 174 -8 174 -8 142 -8 c 0,9,10
 111 -8 111 -8 92 10 c 128,-1,11
 73 28 73 28 73 58 c 0,0,1
EndSplineSet
Validated: 1
EndChar

StartChar: slash
Encoding: 47 47 18
Width: 352
Flags: W
LayerCount: 2
Fore
SplineSet
335 729 m 1,0,-1
 378 711 l 1,1,-1
 4 -133 l 1,2,-1
 -38 -114 l 1,3,-1
 335 729 l 1,0,-1
EndSplineSet
Validated: 1
EndChar

StartChar: zero
Encoding: 48 48 19
Width: 545
Flags: W
LayerCount: 2
Fore
SplineSet
36 358 m 0,0,1
 36 542 36 542 97.5 635.5 c 128,-1,2
 159 729 159 729 273 729 c 0,3,4
 397 729 397 729 454.5 637.5 c 128,-1,5
 512 546 512 546 512 358 c 0,6,7
 512 174 512 174 450 81 c 128,-1,8
 388 -12 388 -12 267 -12 c 0,9,10
 205 -12 205 -12 161 13 c 128,-1,11
 117 38 117 38 89 85.5 c 128,-1,12
 61 133 61 133 48.5 201.5 c 128,-1,13
 36 270 36 270 36 358 c 0,0,1
134 358 m 0,14,15
 134 284 134 284 141 224 c 128,-1,16
 148 164 148 164 164 120.5 c 128,-1,17
 180 77 180 77 205 53.5 c 128,-1,18
 230 30 230 30 266 30 c 0,19,20
 347 30 347 30 380.5 109.5 c 128,-1,21
 414 189 414 189 414 358 c 0,22,23
 414 432 414 432 407.5 492.5 c 128,-1,24
 401 553 401 553 385 596 c 128,-1,25
 369 639 369 639 341.5 662.5 c 128,-1,26
 314 686 314 686 273 686 c 0,27,28
 196 686 196 686 165 606.5 c 128,-1,29
 134 527 134 527 134 358 c 0,14,15
EndSplineSet
Validated: 1
EndChar

StartChar: one
Encoding: 49 49 20
Width: 545
Flags: W
LayerCount: 2
Fore
SplineSet
435 0 m 1,0,-1
 136 0 l 1,1,-1
 136 30 l 1,2,3
 162 41 162 41 188 49.5 c 128,-1,4
 214 58 214 58 241 65 c 1,5,-1
 241 567 l 1,6,-1
 245 628 l 1,7,8
 216 617 216 617 185.5 612 c 128,-1,9
 155 607 155 607 122 608 c 1,10,-1
 117 633 l 1,11,12
 164 648 164 648 214 671 c 128,-1,13
 264 694 264 694 307 729 c 1,14,-1
 333 729 l 1,15,-1
 333 65 l 1,16,17
 359 59 359 59 384.5 50 c 128,-1,18
 410 41 410 41 435 30 c 1,19,-1
 435 0 l 1,0,-1
EndSplineSet
Validated: 33
Substitution2: "'aalt' Access All Alternates lookup 0 subtable" one.numerator
EndChar

StartChar: two
Encoding: 50 50 21
Width: 545
Flags: W
LayerCount: 2
Fore
SplineSet
136 517 m 1,0,-1
 111 517 l 1,1,2
 100 547 100 547 88 587 c 128,-1,3
 76 627 76 627 68 663 c 1,4,5
 104 694 104 694 154 711.5 c 128,-1,6
 204 729 204 729 262 729 c 0,7,8
 313 729 313 729 350 714.5 c 128,-1,9
 387 700 387 700 411 675.5 c 128,-1,10
 435 651 435 651 446.5 619 c 128,-1,11
 458 587 458 587 458 552 c 0,12,13
 458 495 458 495 431 434.5 c 128,-1,14
 404 374 404 374 365 317 c 128,-1,15
 326 260 326 260 279.5 210 c 128,-1,16
 233 160 233 160 195 122 c 1,17,-1
 152 82 l 1,18,-1
 152 78 l 1,19,-1
 209 84 l 1,20,-1
 385 84 l 1,21,-1
 435 199 l 1,22,-1
 461 199 l 1,23,24
 463 176 463 176 465 149.5 c 128,-1,25
 467 123 467 123 468.5 96 c 128,-1,26
 470 69 470 69 471 43.5 c 128,-1,27
 472 18 472 18 472 0 c 1,28,-1
 49 0 l 1,29,-1
 49 33 l 1,30,31
 72 57 72 57 104 90.5 c 128,-1,32
 136 124 136 124 171 165 c 128,-1,33
 206 206 206 206 240 252 c 128,-1,34
 274 298 274 298 301 345.5 c 128,-1,35
 328 393 328 393 344.5 440 c 128,-1,36
 361 487 361 487 361 530 c 0,37,38
 361 560 361 560 353.5 586.5 c 128,-1,39
 346 613 346 613 330.5 633 c 128,-1,40
 315 653 315 653 293 664.5 c 128,-1,41
 271 676 271 676 243 676 c 0,42,43
 221 676 221 676 204.5 673 c 128,-1,44
 188 670 188 670 169 664 c 1,45,-1
 136 517 l 1,0,-1
EndSplineSet
Validated: 1
EndChar

StartChar: three
Encoding: 51 51 22
Width: 545
Flags: W
LayerCount: 2
Fore
SplineSet
262 36 m 0,0,1
 291 36 291 36 315.5 48.5 c 128,-1,2
 340 61 340 61 358.5 83 c 128,-1,3
 377 105 377 105 387.5 134 c 128,-1,4
 398 163 398 163 398 195 c 0,5,6
 398 233 398 233 386.5 261.5 c 128,-1,7
 375 290 375 290 354.5 309 c 128,-1,8
 334 328 334 328 307 337.5 c 128,-1,9
 280 347 280 347 248 347 c 2,10,-1
 181 347 l 1,11,-1
 181 375 l 1,12,-1
 353 605 l 1,13,-1
 388 641 l 1,14,-1
 388 645 l 1,15,-1
 333 639 l 1,16,-1
 160 639 l 1,17,-1
 120 535 l 1,18,-1
 94 535 l 1,19,20
 90 557 90 557 86.5 581 c 128,-1,21
 83 605 83 605 80 629 c 128,-1,22
 77 653 77 653 75 675.5 c 128,-1,23
 73 698 73 698 73 717 c 1,24,-1
 473 717 l 1,25,-1
 473 685 l 1,26,-1
 302 457 l 1,27,-1
 258 412 l 1,28,-1
 258 410 l 1,29,-1
 293 417 l 1,30,31
 341 415 341 415 379 398.5 c 128,-1,32
 417 382 417 382 443 355 c 128,-1,33
 469 328 469 328 483 291.5 c 128,-1,34
 497 255 497 255 497 212 c 0,35,36
 497 161 497 161 476.5 119.5 c 128,-1,37
 456 78 456 78 421.5 48.5 c 128,-1,38
 387 19 387 19 342.5 3.5 c 128,-1,39
 298 -12 298 -12 249 -12 c 0,40,41
 225 -12 225 -12 198.5 -8.5 c 128,-1,42
 172 -5 172 -5 146.5 2 c 128,-1,43
 121 9 121 9 99 18.5 c 128,-1,44
 77 28 77 28 61 40 c 1,45,-1
 90 132 l 1,46,-1
 111 132 l 1,47,48
 117 125 117 125 127.5 113.5 c 128,-1,49
 138 102 138 102 150 90 c 128,-1,50
 162 78 162 78 173 65.5 c 128,-1,51
 184 53 184 53 193 44 c 1,52,53
 203 42 203 42 219 39 c 128,-1,54
 235 36 235 36 262 36 c 0,0,1
EndSplineSet
Validated: 1
EndChar

StartChar: four
Encoding: 52 52 23
Width: 545
Flags: W
LayerCount: 2
Fore
SplineSet
488 0 m 1,0,-1
 222 0 l 1,1,-1
 222 30 l 1,2,3
 272 47 272 47 316 54 c 1,4,-1
 316 198 l 1,5,-1
 4 198 l 1,6,-1
 4 221 l 1,7,-1
 383 729 l 1,8,-1
 411 729 l 1,9,-1
 411 251 l 1,10,-1
 541 251 l 1,11,-1
 541 198 l 1,12,-1
 411 198 l 1,13,-1
 411 54 l 1,14,15
 451 46 451 46 488 30 c 1,16,-1
 488 0 l 1,0,-1
316 514 m 1,17,-1
 328 588 l 1,18,-1
 325 588 l 1,19,-1
 285 514 l 1,20,-1
 113 278 l 1,21,-1
 72 244 l 1,22,-1
 144 251 l 1,23,-1
 316 251 l 1,24,-1
 316 514 l 1,17,-1
EndSplineSet
Validated: 1
EndChar

StartChar: five
Encoding: 53 53 24
Width: 545
Flags: W
LayerCount: 2
Fore
SplineSet
441 773 m 1,0,-1
 467 773 l 1,1,2
 466 758 466 758 464.5 739 c 128,-1,3
 463 720 463 720 460 701 c 128,-1,4
 457 682 457 682 454 664.5 c 128,-1,5
 451 647 451 647 446 636 c 1,6,-1
 195 636 l 1,7,-1
 170 438 l 1,8,-1
 237 438 l 2,9,10
 288 438 288 438 330.5 424.5 c 128,-1,11
 373 411 373 411 403 383.5 c 128,-1,12
 433 356 433 356 450 317.5 c 128,-1,13
 467 279 467 279 467 228 c 0,14,15
 467 169 467 169 446.5 124 c 128,-1,16
 426 79 426 79 392 48.5 c 128,-1,17
 358 18 358 18 315 3 c 128,-1,18
 272 -12 272 -12 226 -12 c 0,19,20
 206 -12 206 -12 182.5 -8.5 c 128,-1,21
 159 -5 159 -5 136 2 c 128,-1,22
 113 9 113 9 92.5 19 c 128,-1,23
 72 29 72 29 57 40 c 1,24,-1
 87 132 l 1,25,-1
 108 132 l 1,26,27
 114 125 114 125 123 113.5 c 128,-1,28
 132 102 132 102 142 90 c 128,-1,29
 152 78 152 78 161.5 65.5 c 128,-1,30
 171 53 171 53 179 44 c 1,31,32
 189 42 189 42 198 39 c 128,-1,33
 207 36 207 36 225 36 c 0,34,35
 259 36 259 36 287 49 c 128,-1,36
 315 62 315 62 335.5 85.5 c 128,-1,37
 356 109 356 109 367.5 139.5 c 128,-1,38
 379 170 379 170 379 206 c 0,39,40
 379 247 379 247 363.5 277 c 128,-1,41
 348 307 348 307 321.5 326 c 128,-1,42
 295 345 295 345 259.5 354.5 c 128,-1,43
 224 364 224 364 185 362 c 2,44,-1
 113 361 l 1,45,-1
 154 717 l 1,46,-1
 397 717 l 1,47,-1
 441 773 l 1,0,-1
EndSplineSet
Validated: 33
EndChar

StartChar: six
Encoding: 54 54 25
Width: 545
Flags: W
LayerCount: 2
Fore
SplineSet
514 216 m 0,0,1
 514 169 514 169 497.5 127.5 c 128,-1,2
 481 86 481 86 451.5 55 c 128,-1,3
 422 24 422 24 380 6 c 128,-1,4
 338 -12 338 -12 287 -12 c 0,5,6
 230 -12 230 -12 185.5 8 c 128,-1,7
 141 28 141 28 111 63.5 c 128,-1,8
 81 99 81 99 65.5 148.5 c 128,-1,9
 50 198 50 198 50 256 c 0,10,11
 50 352 50 352 82 432.5 c 128,-1,12
 114 513 114 513 166.5 575 c 128,-1,13
 219 637 219 637 287 678 c 128,-1,14
 355 719 355 719 429 735 c 1,15,-1
 440 705 l 1,16,17
 386 686 386 686 337.5 652 c 128,-1,18
 289 618 289 618 250.5 573 c 128,-1,19
 212 528 212 528 186.5 472.5 c 128,-1,20
 161 417 161 417 155 352 c 1,21,22
 171 380 171 380 213 403 c 128,-1,23
 255 426 255 426 310 426 c 0,24,25
 354 426 354 426 392 411.5 c 128,-1,26
 430 397 430 397 456.5 370.5 c 128,-1,27
 483 344 483 344 498.5 305 c 128,-1,28
 514 266 514 266 514 216 c 0,0,1
416 208 m 0,29,30
 416 281 416 281 380.5 327 c 128,-1,31
 345 373 345 373 282 373 c 0,32,33
 234 373 234 373 199.5 349 c 128,-1,34
 165 325 165 325 151 295 c 1,35,36
 149 281 149 281 148.5 261.5 c 128,-1,37
 148 242 148 242 148 230 c 0,38,39
 148 197 148 197 157 163 c 128,-1,40
 166 129 166 129 184 100.5 c 128,-1,41
 202 72 202 72 229 53.5 c 128,-1,42
 256 35 256 35 292 35 c 0,43,44
 325 35 325 35 348.5 50 c 128,-1,45
 372 65 372 65 386.5 89.5 c 128,-1,46
 401 114 401 114 408.5 145 c 128,-1,47
 416 176 416 176 416 208 c 0,29,30
EndSplineSet
Validated: 1
EndChar

StartChar: seven
Encoding: 55 55 26
Width: 545
Flags: W
LayerCount: 2
Fore
SplineSet
114 534 m 1,0,-1
 88 534 l 1,1,2
 84 556 84 556 80 580 c 128,-1,3
 76 604 76 604 73 628.5 c 128,-1,4
 70 653 70 653 68.5 675.5 c 128,-1,5
 67 698 67 698 67 717 c 1,6,-1
 490 717 l 1,7,-1
 490 687 l 1,8,9
 439 596 439 596 405.5 519 c 128,-1,10
 372 442 372 442 348 364 c 128,-1,11
 324 286 324 286 306.5 198.5 c 128,-1,12
 289 111 289 111 271 0 c 1,13,-1
 169 0 l 1,14,15
 207 150 207 150 263 297 c 128,-1,16
 319 444 319 444 393 594 c 1,17,-1
 424 643 l 1,18,-1
 371 638 l 1,19,-1
 154 638 l 1,20,-1
 114 534 l 1,0,-1
EndSplineSet
Validated: 1
EndChar

StartChar: eight
Encoding: 56 56 27
Width: 545
Flags: W
LayerCount: 2
Fore
SplineSet
50 161 m 0,0,1
 50 196 50 196 62.5 227 c 128,-1,2
 75 258 75 258 97 283 c 128,-1,3
 119 308 119 308 149 327.5 c 128,-1,4
 179 347 179 347 215 359 c 1,5,6
 186 374 186 374 161 393 c 128,-1,7
 136 412 136 412 117.5 435.5 c 128,-1,8
 99 459 99 459 88.5 487 c 128,-1,9
 78 515 78 515 78 550 c 0,10,11
 78 590 78 590 92 622.5 c 128,-1,12
 106 655 106 655 132.5 678.5 c 128,-1,13
 159 702 159 702 196 715.5 c 128,-1,14
 233 729 233 729 280 729 c 0,15,16
 370 729 370 729 420 683.5 c 128,-1,17
 470 638 470 638 470 566 c 0,18,19
 470 507 470 507 431 462.5 c 128,-1,20
 392 418 392 418 330 389 c 1,21,22
 366 371 366 371 396.5 348.5 c 128,-1,23
 427 326 427 326 449 299 c 128,-1,24
 471 272 471 272 484 241 c 128,-1,25
 497 210 497 210 497 174 c 0,26,27
 497 136 497 136 482 102.5 c 128,-1,28
 467 69 467 69 438 43 c 128,-1,29
 409 17 409 17 366.5 2.5 c 128,-1,30
 324 -12 324 -12 268 -12 c 256,31,32
 212 -12 212 -12 171 2 c 128,-1,33
 130 16 130 16 103 40.5 c 128,-1,34
 76 65 76 65 63 96 c 128,-1,35
 50 127 50 127 50 161 c 0,0,1
407 157 m 0,36,37
 407 192 407 192 393 220 c 128,-1,38
 379 248 379 248 356 270 c 128,-1,39
 333 292 333 292 302.5 310.5 c 128,-1,40
 272 329 272 329 241 344 c 1,41,42
 211 327 211 327 191.5 305.5 c 128,-1,43
 172 284 172 284 160 261 c 128,-1,44
 148 238 148 238 143 215.5 c 128,-1,45
 138 193 138 193 138 173 c 0,46,47
 138 148 138 148 146 123 c 128,-1,48
 154 98 154 98 170 78.5 c 128,-1,49
 186 59 186 59 212.5 47 c 128,-1,50
 239 35 239 35 276 35 c 0,51,52
 308 35 308 35 332.5 45.5 c 128,-1,53
 357 56 357 56 373.5 73.5 c 128,-1,54
 390 91 390 91 398.5 113 c 128,-1,55
 407 135 407 135 407 157 c 0,36,37
166 563 m 0,56,57
 166 531 166 531 177.5 507.5 c 128,-1,58
 189 484 189 484 208.5 465 c 128,-1,59
 228 446 228 446 253.5 431 c 128,-1,60
 279 416 279 416 305 402 c 1,61,62
 348 437 348 437 365.5 472 c 128,-1,63
 383 507 383 507 383 549 c 0,64,65
 383 612 383 612 355 646.5 c 128,-1,66
 327 681 327 681 278 681 c 0,67,68
 250 681 250 681 229.5 670.5 c 128,-1,69
 209 660 209 660 194.5 644 c 128,-1,70
 180 628 180 628 173 607 c 128,-1,71
 166 586 166 586 166 563 c 0,56,57
EndSplineSet
Validated: 1
EndChar

StartChar: nine
Encoding: 57 57 28
Width: 545
Flags: W
LayerCount: 2
Fore
SplineSet
48 499 m 256,0,1
 48 549 48 549 63 591 c 128,-1,2
 78 633 78 633 107 663.5 c 128,-1,3
 136 694 136 694 178.5 711.5 c 128,-1,4
 221 729 221 729 276 729 c 0,5,6
 335 729 335 729 379 709 c 128,-1,7
 423 689 423 689 451.5 653 c 128,-1,8
 480 617 480 617 493.5 565.5 c 128,-1,9
 507 514 507 514 507 452 c 0,10,11
 507 357 507 357 479.5 276 c 128,-1,12
 452 195 452 195 404 134 c 128,-1,13
 356 73 356 73 291 35 c 128,-1,14
 226 -3 226 -3 152 -12 c 1,15,-1
 133 17 l 1,16,17
 193 33 193 33 240 65 c 128,-1,18
 287 97 287 97 320 140.5 c 128,-1,19
 353 184 353 184 373.5 237 c 128,-1,20
 394 290 394 290 402 348 c 1,21,22
 378 323 378 323 346 306.5 c 128,-1,23
 314 290 314 290 259 290 c 0,24,25
 213 290 213 290 174 303.5 c 128,-1,26
 135 317 135 317 107.5 344 c 128,-1,27
 80 371 80 371 64 410 c 128,-1,28
 48 449 48 449 48 499 c 256,0,1
146 500 m 0,29,30
 146 470 146 470 155.5 442 c 128,-1,31
 165 414 165 414 182.5 392 c 128,-1,32
 200 370 200 370 224.5 356.5 c 128,-1,33
 249 343 249 343 280 343 c 0,34,35
 329 343 329 343 361 360 c 128,-1,36
 393 377 393 377 409 402 c 1,37,38
 411 415 411 415 411 435.5 c 128,-1,39
 411 456 411 456 411 467 c 0,40,41
 411 504 411 504 403 542.5 c 128,-1,42
 395 581 395 581 378.5 611.5 c 128,-1,43
 362 642 362 642 335.5 661.5 c 128,-1,44
 309 681 309 681 272 681 c 0,45,46
 211 681 211 681 178.5 632.5 c 128,-1,47
 146 584 146 584 146 500 c 0,29,30
EndSplineSet
Validated: 1
EndChar

StartChar: less
Encoding: 60 60 31
Width: 545
Flags: W
LayerCount: 2
Fore
SplineSet
45 332 m 1,0,-1
 45 364 l 1,1,-1
 439 604 l 1,2,-1
 465 559 l 1,3,-1
 209 404 l 1,4,-1
 121 364 l 1,5,-1
 208 332 l 1,6,-1
 479 172 l 1,7,-1
 438 105 l 1,8,-1
 45 332 l 1,0,-1
EndSplineSet
Validated: 1
EndChar

StartChar: greater
Encoding: 62 62 33
Width: 545
Flags: W
LayerCount: 2
Fore
SplineSet
502 378 m 1,0,-1
 502 346 l 1,1,-1
 108 105 l 1,2,-1
 83 151 l 1,3,-1
 339 305 l 1,4,-1
 427 346 l 1,5,-1
 340 378 l 1,6,-1
 69 538 l 1,7,-1
 109 604 l 1,8,-1
 502 378 l 1,0,-1
EndSplineSet
Validated: 1
EndChar

StartChar: question
Encoding: 63 63 34
Width: 484
Flags: W
LayerCount: 2
Fore
SplineSet
130 531 m 1,0,-1
 104 531 l 1,1,2
 96 559 96 559 86 602.5 c 128,-1,3
 76 646 76 646 72 686 c 1,4,5
 111 710 111 710 155.5 719.5 c 128,-1,6
 200 729 200 729 264 729 c 0,7,8
 310 729 310 729 344.5 716 c 128,-1,9
 379 703 379 703 402 681 c 128,-1,10
 425 659 425 659 437 628.5 c 128,-1,11
 449 598 449 598 449 562 c 0,12,13
 449 516 449 516 432 481.5 c 128,-1,14
 415 447 415 447 390 419.5 c 128,-1,15
 365 392 365 392 335 368 c 128,-1,16
 305 344 305 344 279.5 317.5 c 128,-1,17
 254 291 254 291 237 259 c 128,-1,18
 220 227 220 227 220 184 c 1,19,-1
 200 184 l 1,20,21
 193 214 193 214 193 243 c 0,22,23
 193 280 193 280 204.5 308 c 128,-1,24
 216 336 216 336 233.5 359.5 c 128,-1,25
 251 383 251 383 271.5 404 c 128,-1,26
 292 425 292 425 309.5 447 c 128,-1,27
 327 469 327 469 338.5 494 c 128,-1,28
 350 519 350 519 350 552 c 0,29,30
 350 575 350 575 343.5 596.5 c 128,-1,31
 337 618 337 618 323 636 c 128,-1,32
 309 654 309 654 287.5 665 c 128,-1,33
 266 676 266 676 236 676 c 0,34,35
 203 676 203 676 182.5 671 c 128,-1,36
 162 666 162 666 154 657 c 1,37,-1
 130 531 l 1,0,-1
146 58 m 4,38,39
 146 89 146 89 165.5 107.5 c 132,-1,40
 185 126 185 126 216 126 c 4,41,42
 248 126 248 126 267.5 107.5 c 132,-1,43
 287 89 287 89 287 58 c 4,44,45
 287 28 287 28 267.5 10 c 132,-1,46
 248 -8 248 -8 216 -8 c 4,47,48
 185 -8 185 -8 165.5 10 c 132,-1,49
 146 28 146 28 146 58 c 4,38,39
EndSplineSet
Validated: 1
EndChar

StartChar: at
Encoding: 64 64 35
Width: 1089
Flags: W
LayerCount: 2
Fore
SplineSet
685 485 m 1,0,1
 723 502 723 502 762 502 c 1,2,-1
 710 209 l 2,3,4
 704 175 704 175 701 147.5 c 128,-1,5
 698 120 698 120 700.5 100 c 128,-1,6
 703 80 703 80 712 69 c 128,-1,7
 721 58 721 58 738 58 c 0,8,9
 772 58 772 58 808 77 c 128,-1,10
 844 96 844 96 874 132 c 128,-1,11
 904 168 904 168 923.5 219 c 128,-1,12
 943 270 943 270 943 334 c 0,13,14
 943 412 943 412 913.5 475.5 c 128,-1,15
 884 539 884 539 832 583.5 c 128,-1,16
 780 628 780 628 711 652 c 128,-1,17
 642 676 642 676 563 676 c 0,18,19
 469 676 469 676 393.5 642.5 c 128,-1,20
 318 609 318 609 265 551.5 c 128,-1,21
 212 494 212 494 183.5 415.5 c 128,-1,22
 155 337 155 337 155 248 c 0,23,24
 155 157 155 157 184.5 86.5 c 128,-1,25
 214 16 214 16 268 -32.5 c 128,-1,26
 322 -81 322 -81 396 -106 c 128,-1,27
 470 -131 470 -131 559 -131 c 0,28,29
 589 -131 589 -131 627 -124 c 128,-1,30
 665 -117 665 -117 695 -102 c 1,31,-1
 712 -147 l 1,32,33
 676 -167 676 -167 633 -175.5 c 128,-1,34
 590 -184 590 -184 538 -184 c 0,35,36
 450 -184 450 -184 370 -157.5 c 128,-1,37
 290 -131 290 -131 229 -78 c 128,-1,38
 168 -25 168 -25 132 55 c 128,-1,39
 96 135 96 135 96 242 c 0,40,41
 96 354 96 354 133 444 c 128,-1,42
 170 534 170 534 234 597 c 128,-1,43
 298 660 298 660 384 694.5 c 128,-1,44
 470 729 470 729 568 729 c 0,45,46
 660 729 660 729 739.5 702 c 128,-1,47
 819 675 819 675 877.5 624 c 128,-1,48
 936 573 936 573 968.5 500 c 128,-1,49
 1001 427 1001 427 1001 334 c 0,50,51
 1001 267 1001 267 978 207.5 c 128,-1,52
 955 148 955 148 916 103 c 128,-1,53
 877 58 877 58 825.5 31.5 c 128,-1,54
 774 5 774 5 718 5 c 0,55,56
 687 5 687 5 665.5 15 c 128,-1,57
 644 25 644 25 633 47 c 128,-1,58
 622 69 622 69 621.5 103.5 c 128,-1,59
 621 138 621 138 632 187 c 1,60,-1
 628 187 l 1,61,62
 617 154 617 154 597 122 c 128,-1,63
 577 90 577 90 551 64 c 128,-1,64
 525 38 525 38 496 21.5 c 128,-1,65
 467 5 467 5 437 5 c 0,66,67
 376 5 376 5 342.5 47.5 c 128,-1,68
 309 90 309 90 309 161 c 0,69,70
 309 227 309 227 331 289 c 128,-1,71
 353 351 353 351 390.5 400.5 c 128,-1,72
 428 450 428 450 477 479.5 c 128,-1,73
 526 509 526 509 581 509 c 0,74,75
 618 509 618 509 639 502.5 c 128,-1,76
 660 496 660 496 685 485 c 1,0,1
668 436 m 1,77,78
 652 446 652 446 634.5 451.5 c 128,-1,79
 617 457 617 457 591 457 c 0,80,81
 552 457 552 457 517 429.5 c 128,-1,82
 482 402 482 402 456.5 360 c 128,-1,83
 431 318 431 318 416 268.5 c 128,-1,84
 401 219 401 219 401 173 c 0,85,86
 401 124 401 124 416.5 96.5 c 128,-1,87
 432 69 432 69 475 69 c 0,88,89
 494 69 494 69 517 87.5 c 128,-1,90
 540 106 540 106 562 137 c 128,-1,91
 584 168 584 168 605 206.5 c 128,-1,92
 626 245 626 245 642 284 c 1,93,-1
 668 436 l 1,77,78
EndSplineSet
Validated: 33
Position2: "'case' Case-Sensitive Forms lookup 1 per glyph data 0" dx=0 dy=52 dh=0 dv=0
Position2: "'cpsp' Capital Spacing lookup 0 subtable" dx=41 dy=0 dh=82 dv=0
EndChar

StartChar: A
Encoding: 65 65 36
Width: 699
Flags: W
LayerCount: 2
Fore
SplineSet
227 0 m 5,0,-1
 0 0 l 5,1,-1
 0 30 l 5,2,3
 37 46 37 46 74 54 c 5,4,-1
 333 729 l 5,5,-1
 362 729 l 5,6,-1
 622 54 l 5,7,8
 642 50 642 50 662 45 c 132,-1,9
 682 40 682 40 699 30 c 5,10,-1
 699 0 l 5,11,-1
 437 0 l 5,12,-1
 437 30 l 5,13,14
 457 38 457 38 479 44 c 132,-1,15
 501 50 501 50 521 54 c 5,16,-1
 452 242 l 5,17,-1
 207 242 l 5,18,-1
 139 54 l 5,19,20
 182 48 182 48 227 30 c 5,21,-1
 227 0 l 5,0,-1
227 295 m 5,22,-1
 434 295 l 5,23,-1
 353 512 l 5,24,-1
 334 600 l 5,25,-1
 332 600 l 5,26,-1
 306 510 l 5,27,-1
 227 295 l 5,22,-1
EndSplineSet
Validated: 1
Position2: "'cpsp' Capital Spacing lookup 0 subtable" dx=41 dy=0 dh=82 dv=0
EndChar

StartChar: B
Encoding: 66 66 37
Width: 629
Flags: W
LayerCount: 2
Fore
SplineSet
30 0 m 1,0,-1
 30 30 l 1,1,2
 71 49 71 49 114 54 c 1,3,-1
 114 662 l 1,4,5
 94 666 94 666 72 672.5 c 128,-1,6
 50 679 50 679 30 687 c 1,7,-1
 30 717 l 1,8,-1
 138 717 l 2,9,10
 157 717 157 717 175.5 718 c 128,-1,11
 194 719 194 719 213 720 c 128,-1,12
 232 721 232 721 255 722 c 128,-1,13
 278 723 278 723 306 723 c 0,14,15
 347 723 347 723 389.5 716.5 c 128,-1,16
 432 710 432 710 466.5 691.5 c 128,-1,17
 501 673 501 673 522.5 639.5 c 128,-1,18
 544 606 544 606 544 553 c 0,19,20
 544 526 544 526 535.5 499.5 c 128,-1,21
 527 473 527 473 510.5 450 c 128,-1,22
 494 427 494 427 468 409.5 c 128,-1,23
 442 392 442 392 408 384 c 1,24,-1
 408 380 l 1,25,26
 439 375 439 375 469 362.5 c 128,-1,27
 499 350 499 350 522.5 329 c 128,-1,28
 546 308 546 308 560.5 277.5 c 128,-1,29
 575 247 575 247 575 204 c 0,30,31
 575 149 575 149 550.5 109 c 128,-1,32
 526 69 526 69 486.5 43 c 128,-1,33
 447 17 447 17 397 5.5 c 128,-1,34
 347 -6 347 -6 296 -6 c 0,35,36
 260 -6 260 -6 215 -3 c 128,-1,37
 170 0 170 0 128 0 c 2,38,-1
 30 0 l 1,0,-1
303 47 m 0,39,40
 340 47 340 47 372 58.5 c 128,-1,41
 404 70 404 70 427.5 90 c 128,-1,42
 451 110 451 110 464 138 c 128,-1,43
 477 166 477 166 477 199 c 0,44,45
 477 240 477 240 461 267 c 128,-1,46
 445 294 445 294 418 310 c 128,-1,47
 391 326 391 326 356 332 c 128,-1,48
 321 338 321 338 283 338 c 2,49,-1
 206 338 l 1,50,-1
 206 55 l 1,51,52
 220 51 220 51 240 49 c 128,-1,53
 260 47 260 47 303 47 c 0,39,40
257 391 m 2,54,55
 274 391 274 391 298.5 392.5 c 128,-1,56
 323 394 323 394 338 396 c 1,57,58
 385 412 385 412 415 448.5 c 128,-1,59
 445 485 445 485 445 535 c 0,60,61
 445 603 445 603 405 636.5 c 128,-1,62
 365 670 365 670 297 670 c 0,63,64
 265 670 265 670 242.5 669 c 128,-1,65
 220 668 220 668 206 666 c 1,66,-1
 206 391 l 1,67,-1
 257 391 l 2,54,55
EndSplineSet
Validated: 1
Position2: "'cpsp' Capital Spacing lookup 0 subtable" dx=41 dy=0 dh=82 dv=0
EndChar

StartChar: C
Encoding: 67 67 38
Width: 659
Flags: W
LayerCount: 2
Fore
SplineSet
560 186 m 1,0,-1
 587 186 l 1,1,2
 592 157 592 157 596 114 c 128,-1,3
 600 71 600 71 598 30 c 1,4,5
 583 18 583 18 561.5 10 c 128,-1,6
 540 2 540 2 516 -3 c 128,-1,7
 492 -8 492 -8 466.5 -10 c 128,-1,8
 441 -12 441 -12 419 -12 c 0,9,10
 333 -12 333 -12 265.5 10 c 128,-1,11
 198 32 198 32 151 77 c 128,-1,12
 104 122 104 122 79 192 c 128,-1,13
 54 262 54 262 54 358 c 0,14,15
 54 458 54 458 82 528.5 c 128,-1,16
 110 599 110 599 157 643.5 c 128,-1,17
 204 688 204 688 266.5 708.5 c 128,-1,18
 329 729 329 729 397 729 c 256,19,20
 465 729 465 729 511 720.5 c 128,-1,21
 557 712 557 712 592 694 c 1,22,23
 592 678 592 678 591 656 c 128,-1,24
 590 634 590 634 588 609.5 c 128,-1,25
 586 585 586 585 583 561.5 c 128,-1,26
 580 538 580 538 577 518 c 1,27,-1
 550 518 l 1,28,-1
 497 666 l 1,29,30
 486 672 486 672 459.5 674 c 128,-1,31
 433 676 433 676 408 676 c 0,32,33
 357 676 357 676 311 657 c 128,-1,34
 265 638 265 638 231 598.5 c 128,-1,35
 197 559 197 559 176.5 499 c 128,-1,36
 156 439 156 439 156 358 c 0,37,38
 156 285 156 285 174.5 226.5 c 128,-1,39
 193 168 193 168 227.5 126.5 c 128,-1,40
 262 85 262 85 312 63 c 128,-1,41
 362 41 362 41 426 41 c 0,42,43
 460 41 460 41 482.5 46 c 128,-1,44
 505 51 505 51 512 59 c 1,45,-1
 560 186 l 1,0,-1
EndSplineSet
Validated: 33
Position2: "'cpsp' Capital Spacing lookup 0 subtable" dx=41 dy=0 dh=82 dv=0
EndChar

StartChar: D
Encoding: 68 68 39
Width: 724
Flags: W
LayerCount: 2
Fore
SplineSet
30 0 m 1,0,-1
 30 30 l 1,1,2
 66 46 66 46 114 54 c 1,3,-1
 114 662 l 1,4,5
 90 667 90 667 68.5 673.5 c 128,-1,6
 47 680 47 680 30 687 c 1,7,-1
 30 717 l 1,8,-1
 134 717 l 2,9,10
 151 717 151 717 175 718 c 128,-1,11
 199 719 199 719 224 720.5 c 128,-1,12
 249 722 249 722 272 723.5 c 128,-1,13
 295 725 295 725 310 725 c 0,14,15
 484 725 484 725 578 632 c 128,-1,16
 672 539 672 539 672 368 c 0,17,18
 672 287 672 287 649 217.5 c 128,-1,19
 626 148 626 148 578.5 98 c 128,-1,20
 531 48 531 48 459 19.5 c 128,-1,21
 387 -9 387 -9 289 -9 c 0,22,23
 274 -9 274 -9 254 -7.5 c 128,-1,24
 234 -6 234 -6 212.5 -4.5 c 128,-1,25
 191 -3 191 -3 169 -1.5 c 128,-1,26
 147 0 147 0 128 0 c 2,27,-1
 30 0 l 1,0,-1
296 672 m 0,28,29
 269 672 269 672 244.5 671.5 c 128,-1,30
 220 671 220 671 206 668 c 1,31,-1
 206 47 l 1,32,33
 211 46 211 46 224.5 45.5 c 128,-1,34
 238 45 238 45 253 44.5 c 128,-1,35
 268 44 268 44 282 44 c 128,-1,36
 296 44 296 44 302 44 c 0,37,38
 373 44 373 44 422 70.5 c 128,-1,39
 471 97 471 97 502.5 141.5 c 128,-1,40
 534 186 534 186 548 244.5 c 128,-1,41
 562 303 562 303 562 368 c 0,42,43
 562 418 562 418 548.5 471.5 c 128,-1,44
 535 525 535 525 503.5 569.5 c 128,-1,45
 472 614 472 614 421 643 c 128,-1,46
 370 672 370 672 296 672 c 0,28,29
EndSplineSet
Validated: 1
Position2: "'cpsp' Capital Spacing lookup 0 subtable" dx=41 dy=0 dh=82 dv=0
EndChar

StartChar: E
Encoding: 69 69 40
Width: 595
Flags: W
LayerCount: 2
Fore
SplineSet
515 717 m 5,0,1
 514 676 514 676 511.5 634.5 c 132,-1,2
 509 593 509 593 504 551 c 5,3,-1
 477 551 l 5,4,-1
 435 664 l 5,5,-1
 212 664 l 5,6,-1
 212 392 l 5,7,-1
 379 392 l 5,8,-1
 419 468 l 5,9,-1
 444 468 l 5,10,11
 450 367 450 367 444 261 c 5,12,-1
 419 261 l 5,13,-1
 379 339 l 5,14,-1
 212 339 l 5,15,-1
 212 53 l 5,16,-1
 447 53 l 5,17,-1
 498 176 l 5,18,-1
 523 176 l 5,19,20
 530 133 530 133 533.5 89 c 132,-1,21
 537 45 537 45 535 0 c 5,22,-1
 30 0 l 5,23,-1
 30 30 l 5,24,25
 66 46 66 46 114 54 c 5,26,-1
 114 662 l 5,27,28
 94 666 94 666 72 672.5 c 132,-1,29
 50 679 50 679 30 687 c 5,30,-1
 30 717 l 5,31,-1
 515 717 l 5,0,1
EndSplineSet
Validated: 33
Position2: "'cpsp' Capital Spacing lookup 0 subtable" dx=41 dy=0 dh=82 dv=0
EndChar

StartChar: F
Encoding: 70 70 41
Width: 557
Flags: W
LayerCount: 2
Fore
SplineSet
202 54 m 1,0,1
 247 48 247 48 290 30 c 1,2,-1
 290 0 l 1,3,-1
 30 0 l 1,4,-1
 30 30 l 1,5,6
 47 38 47 38 65.5 44 c 128,-1,7
 84 50 84 50 103 54 c 1,8,-1
 103 662 l 1,9,10
 80 667 80 667 62 673.5 c 128,-1,11
 44 680 44 680 30 687 c 1,12,-1
 30 717 l 1,13,-1
 510 717 l 1,14,15
 509 677 509 677 506.5 635 c 128,-1,16
 504 593 504 593 499 551 c 1,17,-1
 472 551 l 1,18,-1
 430 664 l 1,19,-1
 202 664 l 1,20,-1
 202 372 l 1,21,-1
 379 372 l 1,22,-1
 421 447 l 1,23,-1
 444 447 l 1,24,25
 446 423 446 423 447.5 397.5 c 128,-1,26
 449 372 449 372 449 345 c 0,27,28
 449 317 449 317 447.5 290.5 c 128,-1,29
 446 264 446 264 444 241 c 1,30,-1
 421 241 l 1,31,-1
 379 319 l 1,32,-1
 202 319 l 1,33,-1
 202 54 l 1,0,1
EndSplineSet
Validated: 1
Position2: "'cpsp' Capital Spacing lookup 0 subtable" dx=41 dy=0 dh=82 dv=0
EndChar

StartChar: G
Encoding: 71 71 42
Width: 704
Flags: W
LayerCount: 2
Fore
SplineSet
624 49 m 1,0,1
 605 38 605 38 578.5 27 c 128,-1,2
 552 16 552 16 523 7.5 c 128,-1,3
 494 -1 494 -1 464.5 -6.5 c 128,-1,4
 435 -12 435 -12 410 -12 c 0,5,6
 328 -12 328 -12 262.5 10 c 128,-1,7
 197 32 197 32 150.5 77.5 c 128,-1,8
 104 123 104 123 79 192.5 c 128,-1,9
 54 262 54 262 54 358 c 0,10,11
 54 458 54 458 83.5 529 c 128,-1,12
 113 600 113 600 161.5 644.5 c 128,-1,13
 210 689 210 689 272 709 c 128,-1,14
 334 729 334 729 398 729 c 0,15,16
 466 729 466 729 512.5 720.5 c 128,-1,17
 559 712 559 712 594 694 c 1,18,19
 594 679 594 679 593 656.5 c 128,-1,20
 592 634 592 634 590 609.5 c 128,-1,21
 588 585 588 585 585 561 c 128,-1,22
 582 537 582 537 579 518 c 1,23,-1
 552 518 l 1,24,-1
 499 666 l 1,25,26
 488 672 488 672 461 674 c 128,-1,27
 434 676 434 676 409 676 c 0,28,29
 358 676 358 676 311.5 657 c 128,-1,30
 265 638 265 638 231 598.5 c 128,-1,31
 197 559 197 559 176.5 499 c 128,-1,32
 156 439 156 439 156 358 c 0,33,34
 156 285 156 285 176 227 c 128,-1,35
 196 169 196 169 231 127.5 c 128,-1,36
 266 86 266 86 313.5 63.5 c 128,-1,37
 361 41 361 41 417 41 c 0,38,39
 437 41 437 41 456.5 45 c 128,-1,40
 476 49 476 49 492.5 54.5 c 128,-1,41
 509 60 509 60 519.5 66.5 c 128,-1,42
 530 73 530 73 535 77 c 1,43,-1
 535 284 l 1,44,45
 508 286 508 286 484 293 c 128,-1,46
 460 300 460 300 436 308 c 1,47,-1
 436 338 l 1,48,-1
 687 338 l 1,49,-1
 687 308 l 1,50,51
 677 301 677 301 662.5 295 c 128,-1,52
 648 289 648 289 624 284 c 1,53,-1
 624 49 l 1,0,1
EndSplineSet
Validated: 1
Position2: "'cpsp' Capital Spacing lookup 0 subtable" dx=41 dy=0 dh=82 dv=0
EndChar

StartChar: H
Encoding: 72 72 43
Width: 745
Flags: W
LayerCount: 2
Fore
SplineSet
289 0 m 1,0,-1
 30 0 l 1,1,-1
 30 30 l 1,2,3
 71 46 71 46 114 54 c 1,4,-1
 114 662 l 1,5,6
 66 669 66 669 30 687 c 1,7,-1
 30 717 l 1,8,-1
 289 717 l 1,9,-1
 289 687 l 1,10,11
 272 678 272 678 252 672 c 128,-1,12
 232 666 232 666 212 662 c 1,13,-1
 212 394 l 1,14,-1
 534 394 l 1,15,-1
 534 662 l 1,16,17
 512 667 512 667 493 673 c 128,-1,18
 474 679 474 679 457 687 c 1,19,-1
 457 717 l 1,20,-1
 716 717 l 1,21,-1
 716 687 l 1,22,23
 698 677 698 677 675.5 671.5 c 128,-1,24
 653 666 653 666 632 662 c 1,25,-1
 632 54 l 1,26,27
 656 50 656 50 677 44 c 128,-1,28
 698 38 698 38 716 30 c 1,29,-1
 716 0 l 1,30,-1
 457 0 l 1,31,-1
 457 30 l 1,32,33
 494 46 494 46 534 54 c 1,34,-1
 534 341 l 1,35,-1
 212 341 l 1,36,-1
 212 54 l 1,37,38
 232 50 232 50 251.5 44 c 128,-1,39
 271 38 271 38 289 30 c 1,40,-1
 289 0 l 1,0,-1
EndSplineSet
Validated: 1
Position2: "'cpsp' Capital Spacing lookup 0 subtable" dx=41 dy=0 dh=82 dv=0
EndChar

StartChar: I
Encoding: 73 73 44
Width: 360
Flags: W
LayerCount: 2
Fore
SplineSet
311 0 m 5,0,-1
 49 0 l 5,1,-1
 49 30 l 5,2,3
 89 48 89 48 131 54 c 5,4,-1
 131 662 l 5,5,6
 111 666 111 666 90.5 672.5 c 132,-1,7
 70 679 70 679 49 687 c 5,8,-1
 49 717 l 5,9,-1
 311 717 l 5,10,-1
 311 687 l 5,11,12
 293 679 293 679 271.5 672.5 c 132,-1,13
 250 666 250 666 229 662 c 5,14,-1
 229 54 l 5,15,16
 251 50 251 50 272.5 44 c 132,-1,17
 294 38 294 38 311 30 c 5,18,-1
 311 0 l 5,0,-1
EndSplineSet
Validated: 1
Position2: "'cpsp' Capital Spacing lookup 0 subtable" dx=41 dy=0 dh=82 dv=0
EndChar

StartChar: J
Encoding: 74 74 45
Width: 349
Flags: W
LayerCount: 2
Fore
SplineSet
40 717 m 1,0,-1
 300 717 l 1,1,-1
 300 687 l 1,2,3
 282 679 282 679 262.5 672.5 c 128,-1,4
 243 666 243 666 222 662 c 1,5,-1
 222 88 l 2,6,7
 222 16 222 16 205.5 -30 c 128,-1,8
 189 -76 189 -76 165 -104 c 128,-1,9
 141 -132 141 -132 114 -145.5 c 128,-1,10
 87 -159 87 -159 65 -164 c 1,11,-1
 53 -148 l 1,12,13
 68 -135 68 -135 81 -118 c 128,-1,14
 94 -101 94 -101 104 -75.5 c 128,-1,15
 114 -50 114 -50 119 -13 c 128,-1,16
 124 24 124 24 124 77 c 2,17,-1
 124 662 l 1,18,19
 101 667 101 667 79.5 673 c 128,-1,20
 58 679 58 679 40 687 c 1,21,-1
 40 717 l 1,0,-1
EndSplineSet
Validated: 1
Position2: "'cpsp' Capital Spacing lookup 0 subtable" dx=41 dy=0 dh=82 dv=0
EndChar

StartChar: K
Encoding: 75 75 46
Width: 661
Flags: W
LayerCount: 2
Fore
SplineSet
391 717 m 1,0,-1
 617 717 l 1,1,-1
 617 687 l 1,2,3
 597 678 597 678 577.5 672 c 128,-1,4
 558 666 558 666 540 662 c 1,5,-1
 334 389 l 1,6,7
 360 355 360 355 393 313 c 128,-1,8
 426 271 426 271 462.5 226.5 c 128,-1,9
 499 182 499 182 537 136.5 c 128,-1,10
 575 91 575 91 612 50 c 1,11,-1
 662 26 l 1,12,-1
 662 0 l 1,13,-1
 534 0 l 1,14,-1
 499 25 l 1,15,16
 439 96 439 96 378.5 177.5 c 128,-1,17
 318 259 318 259 262 343 c 1,18,-1
 212 343 l 1,19,-1
 212 54 l 1,20,21
 259 46 259 46 289 30 c 1,22,-1
 289 0 l 1,23,-1
 30 0 l 1,24,-1
 30 30 l 1,25,26
 71 46 71 46 114 54 c 1,27,-1
 114 662 l 1,28,29
 68 668 68 668 30 687 c 1,30,-1
 30 717 l 1,31,-1
 289 717 l 1,32,-1
 289 687 l 1,33,34
 273 680 273 680 253 673.5 c 128,-1,35
 233 667 233 667 212 662 c 1,36,-1
 212 378 l 1,37,-1
 273 392 l 1,38,-1
 465 662 l 1,39,40
 445 667 445 667 426.5 673 c 128,-1,41
 408 679 408 679 391 687 c 1,42,-1
 391 717 l 1,0,-1
EndSplineSet
Validated: 1
Position2: "'cpsp' Capital Spacing lookup 0 subtable" dx=41 dy=0 dh=82 dv=0
EndChar

StartChar: L
Encoding: 76 76 47
Width: 562
Flags: W
LayerCount: 2
Fore
SplineSet
30 717 m 1,0,-1
 310 717 l 1,1,-1
 310 687 l 1,2,3
 285 678 285 678 261 671.5 c 128,-1,4
 237 665 237 665 212 662 c 1,5,-1
 212 53 l 1,6,-1
 447 53 l 1,7,-1
 508 218 l 1,8,-1
 535 218 l 1,9,10
 538 196 538 196 540.5 168 c 128,-1,11
 543 140 543 140 544.5 110 c 128,-1,12
 546 80 546 80 546 51.5 c 128,-1,13
 546 23 546 23 545 0 c 1,14,-1
 30 0 l 1,15,-1
 30 30 l 1,16,17
 55 41 55 41 75 46 c 128,-1,18
 95 51 95 51 114 54 c 1,19,-1
 114 662 l 1,20,21
 90 666 90 666 68.5 672.5 c 128,-1,22
 47 679 47 679 30 687 c 1,23,-1
 30 717 l 1,0,-1
EndSplineSet
Validated: 1
Position2: "'cpsp' Capital Spacing lookup 0 subtable" dx=41 dy=0 dh=82 dv=0
EndChar

StartChar: M
Encoding: 77 77 48
Width: 887
Flags: W
LayerCount: 2
Fore
SplineSet
857 0 m 1,0,-1
 603 0 l 1,1,-1
 603 30 l 1,2,3
 623 38 623 38 644 43.5 c 128,-1,4
 665 49 665 49 686 54 c 1,5,-1
 686 515 l 1,6,-1
 690 635 l 1,7,-1
 682 635 l 1,8,-1
 648 525 l 1,9,-1
 438 0 l 1,10,-1
 412 0 l 1,11,-1
 212 525 l 1,12,-1
 175 645 l 1,13,-1
 166 645 l 1,14,-1
 167 515 l 1,15,-1
 167 54 l 1,16,17
 186 50 186 50 205.5 44 c 128,-1,18
 225 38 225 38 245 30 c 1,19,-1
 245 0 l 1,20,-1
 31 0 l 1,21,-1
 31 30 l 1,22,23
 50 38 50 38 71 44.5 c 128,-1,24
 92 51 92 51 114 55 c 1,25,-1
 114 662 l 1,26,27
 92 666 92 666 71 672.5 c 128,-1,28
 50 679 50 679 30 687 c 1,29,-1
 30 717 l 1,30,-1
 240 717 l 1,31,-1
 418 249 l 1,32,-1
 453 143 l 1,33,-1
 454 143 l 1,34,-1
 488 251 l 1,35,-1
 673 717 l 1,36,-1
 858 717 l 1,37,-1
 858 687 l 1,38,39
 840 679 840 679 820.5 672.5 c 128,-1,40
 801 666 801 666 780 662 c 1,41,-1
 780 53 l 1,42,43
 802 49 802 49 821 43.5 c 128,-1,44
 840 38 840 38 857 30 c 1,45,-1
 857 0 l 1,0,-1
EndSplineSet
Validated: 1
Position2: "'cpsp' Capital Spacing lookup 0 subtable" dx=41 dy=0 dh=82 dv=0
EndChar

StartChar: N
Encoding: 78 78 49
Width: 749
Flags: W
LayerCount: 2
Fore
SplineSet
499 717 m 1,0,-1
 720 717 l 1,1,-1
 720 687 l 1,2,3
 677 658 677 658 636 646 c 1,4,-1
 636 -12 l 1,5,-1
 578 -12 l 1,6,-1
 206 552 l 1,7,-1
 166 632 l 1,8,-1
 163 632 l 1,9,-1
 172 552 l 1,10,-1
 172 66 l 1,11,12
 214 55 214 55 251 30 c 1,13,-1
 251 0 l 1,14,-1
 30 0 l 1,15,-1
 30 30 l 1,16,17
 48 41 48 41 69 49.5 c 128,-1,18
 90 58 90 58 114 66 c 1,19,-1
 114 652 l 1,20,21
 94 660 94 660 73.5 669.5 c 128,-1,22
 53 679 53 679 36 688 c 1,23,-1
 36 717 l 1,24,-1
 209 717 l 1,25,-1
 531 230 l 1,26,-1
 579 142 l 1,27,-1
 583 142 l 1,28,-1
 578 230 l 1,29,-1
 578 646 l 1,30,31
 556 655 556 655 536 665.5 c 128,-1,32
 516 676 516 676 499 687 c 1,33,-1
 499 717 l 1,0,-1
EndSplineSet
Validated: 1
Position2: "'cpsp' Capital Spacing lookup 0 subtable" dx=41 dy=0 dh=82 dv=0
EndChar

StartChar: O
Encoding: 79 79 50
Width: 757
Flags: W
LayerCount: 2
Fore
SplineSet
54 358 m 260,0,1
 54 438 54 438 76 506 c 132,-1,2
 98 574 98 574 139.5 624 c 132,-1,3
 181 674 181 674 241.5 701.5 c 132,-1,4
 302 729 302 729 379 729 c 260,5,6
 456 729 456 729 516.5 701.5 c 132,-1,7
 577 674 577 674 618 624 c 132,-1,8
 659 574 659 574 681 506 c 132,-1,9
 703 438 703 438 703 358 c 260,10,11
 703 278 703 278 681 210 c 132,-1,12
 659 142 659 142 618 92.5 c 132,-1,13
 577 43 577 43 516.5 15.5 c 132,-1,14
 456 -12 456 -12 379 -12 c 260,15,16
 302 -12 302 -12 241.5 15.5 c 132,-1,17
 181 43 181 43 139.5 92.5 c 132,-1,18
 98 142 98 142 76 210 c 132,-1,19
 54 278 54 278 54 358 c 260,0,1
164 358 m 260,20,21
 164 292 164 292 177.5 234.5 c 132,-1,22
 191 177 191 177 219 134 c 132,-1,23
 247 91 247 91 289 66 c 132,-1,24
 331 41 331 41 388 41 c 4,25,26
 440 41 440 41 479 66 c 132,-1,27
 518 91 518 91 543 134 c 132,-1,28
 568 177 568 177 581 235 c 132,-1,29
 594 293 594 293 594 358 c 260,30,31
 594 424 594 424 580.5 482 c 132,-1,32
 567 540 567 540 539.5 583 c 132,-1,33
 512 626 512 626 470 651 c 132,-1,34
 428 676 428 676 371 676 c 4,35,36
 315 676 315 676 275.5 651 c 132,-1,37
 236 626 236 626 211 583 c 132,-1,38
 186 540 186 540 175 482 c 132,-1,39
 164 424 164 424 164 358 c 260,20,21
EndSplineSet
Validated: 1
Position2: "'cpsp' Capital Spacing lookup 0 subtable" dx=41 dy=0 dh=82 dv=0
EndChar

StartChar: P
Encoding: 80 80 51
Width: 610
Flags: W
LayerCount: 2
Fore
SplineSet
212 54 m 1,0,1
 240 51 240 51 264.5 44.5 c 128,-1,2
 289 38 289 38 310 30 c 1,3,-1
 310 0 l 1,4,-1
 30 0 l 1,5,-1
 30 30 l 1,6,7
 50 40 50 40 71.5 45 c 128,-1,8
 93 50 93 50 114 54 c 1,9,-1
 114 662 l 1,10,11
 90 666 90 666 69.5 672.5 c 128,-1,12
 49 679 49 679 30 687 c 1,13,-1
 30 717 l 1,14,-1
 122 717 l 2,15,16
 163 717 163 717 211 721 c 128,-1,17
 259 725 259 725 303 725 c 0,18,19
 353 725 353 725 401.5 714 c 128,-1,20
 450 703 450 703 487 677.5 c 128,-1,21
 524 652 524 652 547 609.5 c 128,-1,22
 570 567 570 567 570 504 c 0,23,24
 570 444 570 444 546.5 400.5 c 128,-1,25
 523 357 523 357 483.5 329.5 c 128,-1,26
 444 302 444 302 394 289 c 128,-1,27
 344 276 344 276 291 276 c 0,28,29
 286 276 286 276 275 276 c 128,-1,30
 264 276 264 276 252 277 c 128,-1,31
 240 278 240 278 228.5 279 c 128,-1,32
 217 280 217 280 212 281 c 1,33,-1
 212 54 l 1,0,1
282 672 m 0,34,35
 257 672 257 672 241.5 671 c 128,-1,36
 226 670 226 670 212 667 c 1,37,-1
 212 335 l 1,38,39
 217 333 217 333 227 332.5 c 128,-1,40
 237 332 237 332 247.5 331 c 128,-1,41
 258 330 258 330 268.5 330 c 128,-1,42
 279 330 279 330 285 330 c 0,43,44
 321 330 321 330 352.5 339.5 c 128,-1,45
 384 349 384 349 408 370.5 c 128,-1,46
 432 392 432 392 446.5 425 c 128,-1,47
 461 458 461 458 461 504 c 0,48,49
 461 588 461 588 413.5 630 c 128,-1,50
 366 672 366 672 282 672 c 0,34,35
EndSplineSet
Validated: 1
Position2: "'cpsp' Capital Spacing lookup 0 subtable" dx=41 dy=0 dh=82 dv=0
EndChar

StartChar: Q
Encoding: 81 81 52
Width: 757
Flags: W
LayerCount: 2
Fore
SplineSet
778 -118 m 1,0,1
 737 -155 737 -155 694 -181 c 128,-1,2
 651 -207 651 -207 602 -206 c 0,3,4
 560 -206 560 -206 514 -190.5 c 128,-1,5
 468 -175 468 -175 416 -153.5 c 128,-1,6
 364 -132 364 -132 305 -108.5 c 128,-1,7
 246 -85 246 -85 177 -68 c 1,8,-1
 208 -47 l 1,9,10
 231 -44 231 -44 252 -44 c 0,11,12
 303 -44 303 -44 352.5 -56.5 c 128,-1,13
 402 -69 402 -69 452.5 -83 c 128,-1,14
 503 -97 503 -97 554 -109.5 c 128,-1,15
 605 -122 605 -122 658 -122 c 0,16,17
 686 -122 686 -122 714.5 -118 c 128,-1,18
 743 -114 743 -114 773 -103 c 1,19,-1
 778 -118 l 1,0,1
54 358 m 256,20,21
 54 438 54 438 76 506 c 128,-1,22
 98 574 98 574 139.5 624 c 128,-1,23
 181 674 181 674 241.5 701.5 c 128,-1,24
 302 729 302 729 379 729 c 256,25,26
 456 729 456 729 516.5 701.5 c 128,-1,27
 577 674 577 674 618 624 c 128,-1,28
 659 574 659 574 681 506 c 128,-1,29
 703 438 703 438 703 358 c 256,30,31
 703 278 703 278 681 210 c 128,-1,32
 659 142 659 142 618 92.5 c 128,-1,33
 577 43 577 43 516.5 15.5 c 128,-1,34
 456 -12 456 -12 379 -12 c 256,35,36
 302 -12 302 -12 241.5 15.5 c 128,-1,37
 181 43 181 43 139.5 92.5 c 128,-1,38
 98 142 98 142 76 210 c 128,-1,39
 54 278 54 278 54 358 c 256,20,21
164 358 m 256,40,41
 164 292 164 292 177.5 234.5 c 128,-1,42
 191 177 191 177 219 134 c 128,-1,43
 247 91 247 91 289 66 c 128,-1,44
 331 41 331 41 388 41 c 0,45,46
 440 41 440 41 479 66 c 128,-1,47
 518 91 518 91 543 134 c 128,-1,48
 568 177 568 177 581 235 c 128,-1,49
 594 293 594 293 594 358 c 256,50,51
 594 424 594 424 580.5 482 c 128,-1,52
 567 540 567 540 539.5 583 c 128,-1,53
 512 626 512 626 470 651 c 128,-1,54
 428 676 428 676 371 676 c 0,55,56
 315 676 315 676 275.5 651 c 128,-1,57
 236 626 236 626 211 583 c 128,-1,58
 186 540 186 540 175 482 c 128,-1,59
 164 424 164 424 164 358 c 256,40,41
EndSplineSet
Validated: 33
Position2: "'cpsp' Capital Spacing lookup 0 subtable" dx=41 dy=0 dh=82 dv=0
EndChar

StartChar: R
Encoding: 82 82 53
Width: 652
Flags: W
LayerCount: 2
Fore
SplineSet
212 54 m 1,0,1
 236 49 236 49 257.5 43.5 c 128,-1,2
 279 38 279 38 299 30 c 1,3,-1
 299 0 l 1,4,-1
 30 0 l 1,5,-1
 30 30 l 1,6,7
 53 40 53 40 73 45 c 128,-1,8
 93 50 93 50 114 54 c 1,9,-1
 114 662 l 1,10,11
 87 667 87 667 66.5 673.5 c 128,-1,12
 46 680 46 680 30 687 c 1,13,-1
 30 717 l 1,14,-1
 120 717 l 2,15,16
 161 717 161 717 209.5 721 c 128,-1,17
 258 725 258 725 304 725 c 0,18,19
 354 725 354 725 397.5 713.5 c 128,-1,20
 441 702 441 702 473 677.5 c 128,-1,21
 505 653 505 653 523 615.5 c 128,-1,22
 541 578 541 578 541 524 c 0,23,24
 541 449 541 449 501.5 400 c 128,-1,25
 462 351 462 351 394 330 c 1,26,27
 438 260 438 260 486.5 191.5 c 128,-1,28
 535 123 535 123 587 55 c 1,29,-1
 642 26 l 1,30,-1
 642 0 l 1,31,-1
 518 0 l 1,32,-1
 479 29 l 1,33,34
 450 65 450 65 426.5 99 c 128,-1,35
 403 133 403 133 382.5 168.5 c 128,-1,36
 362 204 362 204 344.5 240 c 128,-1,37
 327 276 327 276 308 317 c 1,38,-1
 212 317 l 1,39,-1
 212 54 l 1,0,1
282 672 m 0,40,41
 257 672 257 672 241 671 c 128,-1,42
 225 670 225 670 212 667 c 1,43,-1
 212 360 l 1,44,-1
 286 360 l 2,45,46
 357 360 357 360 398 405.5 c 128,-1,47
 439 451 439 451 439 524 c 0,48,49
 439 600 439 600 395.5 636 c 128,-1,50
 352 672 352 672 282 672 c 0,40,41
EndSplineSet
Validated: 1
Position2: "'cpsp' Capital Spacing lookup 0 subtable" dx=41 dy=0 dh=82 dv=0
EndChar

StartChar: S
Encoding: 83 83 54
Width: 548
Flags: W
LayerCount: 2
Fore
SplineSet
154 71 m 1,0,1
 166 59 166 59 185.5 50 c 128,-1,2
 205 41 205 41 244 41 c 0,3,4
 277 41 277 41 305.5 49.5 c 128,-1,5
 334 58 334 58 355 75 c 128,-1,6
 376 92 376 92 388 116 c 128,-1,7
 400 140 400 140 400 171 c 0,8,9
 400 212 400 212 375 239.5 c 128,-1,10
 350 267 350 267 312.5 288.5 c 128,-1,11
 275 310 275 310 231 330.5 c 128,-1,12
 187 351 187 351 150 379.5 c 128,-1,13
 113 408 113 408 87.5 447 c 128,-1,14
 62 486 62 486 62 546 c 0,15,16
 62 589 62 589 77.5 622.5 c 128,-1,17
 93 656 93 656 121.5 679.5 c 128,-1,18
 150 703 150 703 188.5 716 c 128,-1,19
 227 729 227 729 275 729 c 0,20,21
 337 729 337 729 389 719.5 c 128,-1,22
 441 710 441 710 471 695 c 1,23,24
 471 678 471 678 468.5 655 c 128,-1,25
 466 632 466 632 462.5 607.5 c 128,-1,26
 459 583 459 583 455 560 c 128,-1,27
 451 537 451 537 446 519 c 1,28,-1
 420 519 l 1,29,-1
 379 659 l 1,30,31
 361 667 361 667 332.5 671.5 c 128,-1,32
 304 676 304 676 272 676 c 0,33,34
 220 676 220 676 188.5 646.5 c 128,-1,35
 157 617 157 617 157 565 c 0,36,37
 157 523 157 523 182 494.5 c 128,-1,38
 207 466 207 466 245 443.5 c 128,-1,39
 283 421 283 421 326.5 400 c 128,-1,40
 370 379 370 379 407.5 351.5 c 128,-1,41
 445 324 445 324 470.5 286 c 128,-1,42
 496 248 496 248 496 191 c 0,43,44
 496 145 496 145 479 107.5 c 128,-1,45
 462 70 462 70 430 43 c 128,-1,46
 398 16 398 16 352 2 c 128,-1,47
 306 -12 306 -12 248 -12 c 0,48,49
 183 -12 183 -12 132 3 c 128,-1,50
 81 18 81 18 59 36 c 1,51,52
 60 53 60 53 63 77.5 c 128,-1,53
 66 102 66 102 69.5 128.5 c 128,-1,54
 73 155 73 155 77 179.5 c 128,-1,55
 81 204 81 204 85 221 c 1,56,-1
 112 221 l 1,57,-1
 154 71 l 1,0,1
EndSplineSet
Validated: 1
Position2: "'cpsp' Capital Spacing lookup 0 subtable" dx=41 dy=0 dh=82 dv=0
EndChar

StartChar: T
Encoding: 84 84 55
Width: 633
Flags: W
LayerCount: 2
Fore
SplineSet
461 0 m 1,0,-1
 173 0 l 1,1,-1
 173 30 l 1,2,3
 196 38 196 38 219 44 c 128,-1,4
 242 50 242 50 268 54 c 1,5,-1
 268 664 l 1,6,-1
 112 664 l 1,7,-1
 57 517 l 1,8,-1
 32 517 l 1,9,10
 29 537 29 537 27 563.5 c 128,-1,11
 25 590 25 590 23.5 617 c 128,-1,12
 22 644 22 644 20.5 670 c 128,-1,13
 19 696 19 696 19 717 c 1,14,-1
 614 717 l 1,15,16
 614 697 614 697 613 671 c 128,-1,17
 612 645 612 645 610.5 618 c 128,-1,18
 609 591 609 591 607.5 565 c 128,-1,19
 606 539 606 539 603 517 c 1,20,-1
 577 517 l 1,21,-1
 523 664 l 1,22,-1
 367 664 l 1,23,-1
 367 54 l 1,24,25
 394 49 394 49 416.5 44 c 128,-1,26
 439 39 439 39 461 30 c 1,27,-1
 461 0 l 1,0,-1
EndSplineSet
Validated: 1
Position2: "'cpsp' Capital Spacing lookup 0 subtable" dx=41 dy=0 dh=82 dv=0
EndChar

StartChar: U
Encoding: 85 85 56
Width: 688
Flags: W
LayerCount: 2
Fore
SplineSet
10 717 m 5,0,-1
 270 717 l 5,1,-1
 270 687 l 5,2,3
 251 679 251 679 231.5 673 c 132,-1,4
 212 667 212 667 193 662 c 5,5,-1
 193 243 l 6,6,7
 193 189 193 189 204.5 152.5 c 132,-1,8
 216 116 216 116 238.5 94 c 132,-1,9
 261 72 261 72 294.5 62 c 132,-1,10
 328 52 328 52 370 52 c 4,11,12
 451 52 451 52 496 96.5 c 132,-1,13
 541 141 541 141 541 244 c 6,14,-1
 541 652 l 5,15,16
 517 660 517 660 496.5 669 c 132,-1,17
 476 678 476 678 460 687 c 5,18,-1
 460 717 l 5,19,-1
 678 717 l 5,20,-1
 678 687 l 5,21,22
 659 676 659 676 638.5 666.5 c 132,-1,23
 618 657 618 657 598 652 c 5,24,-1
 598 242 l 6,25,26
 598 176 598 176 580.5 129 c 132,-1,27
 563 82 563 82 532 51 c 132,-1,28
 501 20 501 20 456.5 5.5 c 132,-1,29
 412 -9 412 -9 357 -9 c 4,30,31
 229 -9 229 -9 161.5 48.5 c 132,-1,32
 94 106 94 106 94 226 c 6,33,-1
 94 662 l 5,34,35
 52 668 52 668 10 687 c 5,36,-1
 10 717 l 5,0,-1
EndSplineSet
Validated: 1
Position2: "'cpsp' Capital Spacing lookup 0 subtable" dx=41 dy=0 dh=82 dv=0
EndChar

StartChar: V
Encoding: 86 86 57
Width: 700
Flags: W
LayerCount: 2
Fore
SplineSet
558 662 m 1,0,1
 533 667 533 667 511.5 673.5 c 128,-1,2
 490 680 490 680 470 687 c 1,3,-1
 470 717 l 1,4,-1
 700 717 l 1,5,-1
 700 687 l 1,6,7
 670 671 670 671 627 662 c 1,8,-1
 395 0 l 1,9,-1
 339 -12 l 1,10,-1
 78 662 l 1,11,12
 58 667 58 667 38 673.5 c 128,-1,13
 18 680 18 680 0 687 c 1,14,-1
 0 717 l 1,15,-1
 271 717 l 1,16,-1
 271 687 l 1,17,18
 254 680 254 680 232.5 673.5 c 128,-1,19
 211 667 211 667 187 662 c 1,20,-1
 362 194 l 1,21,-1
 384 112 l 1,22,-1
 386 112 l 1,23,-1
 407 196 l 1,24,-1
 558 662 l 1,0,1
EndSplineSet
Validated: 1
Position2: "'cpsp' Capital Spacing lookup 0 subtable" dx=41 dy=0 dh=82 dv=0
EndChar

StartChar: W
Encoding: 87 87 58
Width: 956
Flags: W
LayerCount: 2
Fore
SplineSet
815 662 m 1,0,1
 793 665 793 665 772 671.5 c 128,-1,2
 751 678 751 678 727 687 c 1,3,-1
 727 717 l 1,4,-1
 956 717 l 1,5,-1
 956 687 l 1,6,7
 921 672 921 672 883 662 c 1,8,-1
 712 0 l 1,9,-1
 648 -12 l 1,10,-1
 483 545 l 1,11,-1
 322 0 l 1,12,-1
 259 -12 l 1,13,-1
 78 662 l 1,14,15
 58 667 58 667 38 673 c 128,-1,16
 18 679 18 679 0 687 c 1,17,-1
 0 717 l 1,18,-1
 266 717 l 1,19,-1
 266 687 l 1,20,21
 247 680 247 680 226.5 673.5 c 128,-1,22
 206 667 206 667 182 662 c 1,23,-1
 284 249 l 1,24,-1
 306 116 l 1,25,-1
 308 116 l 1,26,-1
 344 251 l 1,27,-1
 482 717 l 1,28,-1
 517 717 l 1,29,-1
 666 251 l 1,30,-1
 695 118 l 1,31,-1
 697 118 l 1,32,-1
 721 253 l 1,33,-1
 815 662 l 1,0,1
EndSplineSet
Validated: 1
Position2: "'cpsp' Capital Spacing lookup 0 subtable" dx=41 dy=0 dh=82 dv=0
EndChar

StartChar: X
Encoding: 88 88 59
Width: 686
Flags: W
LayerCount: 2
Fore
SplineSet
404 717 m 1,0,-1
 640 717 l 1,1,-1
 640 687 l 1,2,3
 623 680 623 680 603.5 673.5 c 128,-1,4
 584 667 584 667 563 662 c 1,5,-1
 383 384 l 1,6,-1
 593 54 l 1,7,8
 642 46 642 46 677 30 c 1,9,-1
 677 0 l 1,10,-1
 404 0 l 1,11,-1
 404 30 l 1,12,13
 441 48 441 48 482 54 c 1,14,-1
 321 311 l 1,15,-1
 165 53 l 1,16,17
 187 50 187 50 207 45.5 c 128,-1,18
 227 41 227 41 247 30 c 1,19,-1
 247 0 l 1,20,-1
 10 0 l 1,21,-1
 10 30 l 1,22,23
 29 40 29 40 48.5 45 c 128,-1,24
 68 50 68 50 86 54 c 1,25,-1
 287 360 l 1,26,-1
 94 662 l 1,27,28
 74 668 74 668 54 674 c 128,-1,29
 34 680 34 680 13 687 c 1,30,-1
 13 717 l 1,31,-1
 285 717 l 1,32,-1
 285 687 l 1,33,34
 270 681 270 681 250.5 675 c 128,-1,35
 231 669 231 669 207 662 c 1,36,-1
 350 430 l 1,37,-1
 489 662 l 1,38,39
 447 671 447 671 404 687 c 1,40,-1
 404 717 l 1,0,-1
EndSplineSet
Validated: 1
Position2: "'cpsp' Capital Spacing lookup 0 subtable" dx=41 dy=0 dh=82 dv=0
EndChar

StartChar: Y
Encoding: 89 89 60
Width: 659
Flags: W
LayerCount: 2
Fore
SplineSet
434 717 m 5,0,-1
 659 717 l 5,1,-1
 659 687 l 5,2,3
 620 668 620 668 582 662 c 5,4,-1
 388 305 l 5,5,-1
 388 54 l 5,6,7
 428 49 428 49 466 30 c 5,8,-1
 466 0 l 5,9,-1
 206 0 l 5,10,-1
 206 30 l 5,11,12
 243 48 243 48 290 54 c 5,13,-1
 290 304 l 5,14,-1
 83 662 l 5,15,16
 59 666 59 666 39 672.5 c 132,-1,17
 19 679 19 679 0 687 c 5,18,-1
 0 717 l 5,19,-1
 271 717 l 5,20,-1
 271 687 l 5,21,22
 256 681 256 681 236.5 674.5 c 132,-1,23
 217 668 217 668 193 662 c 5,24,-1
 360 360 l 5,25,-1
 518 662 l 5,26,27
 494 667 494 667 473.5 673.5 c 132,-1,28
 453 680 453 680 434 687 c 5,29,-1
 434 717 l 5,0,-1
EndSplineSet
Validated: 1
Position2: "'cpsp' Capital Spacing lookup 0 subtable" dx=41 dy=0 dh=82 dv=0
EndChar

StartChar: Z
Encoding: 90 90 61
Width: 624
Flags: W
LayerCount: 2
Fore
SplineSet
546 197 m 1,0,-1
 572 197 l 1,1,2
 575 177 575 177 578 151 c 128,-1,3
 581 125 581 125 582.5 98.5 c 128,-1,4
 584 72 584 72 584.5 46 c 128,-1,5
 585 20 585 20 584 0 c 1,6,-1
 40 0 l 1,7,-1
 40 52 l 1,8,-1
 466 664 l 1,9,-1
 151 664 l 1,10,-1
 88 520 l 1,11,-1
 62 520 l 1,12,13
 59 542 59 542 56.5 567.5 c 128,-1,14
 54 593 54 593 52.5 619.5 c 128,-1,15
 51 646 51 646 50.5 671 c 128,-1,16
 50 696 50 696 50 717 c 1,17,-1
 573 717 l 1,18,-1
 573 664 l 1,19,-1
 150 53 l 1,20,-1
 483 53 l 1,21,-1
 546 197 l 1,0,-1
EndSplineSet
Validated: 33
Position2: "'cpsp' Capital Spacing lookup 0 subtable" dx=41 dy=0 dh=82 dv=0
EndChar

StartChar: bracketleft
Encoding: 91 91 62
Width: 314
Flags: W
LayerCount: 2
Fore
SplineSet
85 717 m 1,0,-1
 279 717 l 1,1,-1
 279 674 l 1,2,-1
 172 674 l 1,3,-1
 172 -194 l 1,4,-1
 279 -194 l 1,5,-1
 279 -236 l 1,6,-1
 85 -236 l 1,7,-1
 85 717 l 1,0,-1
EndSplineSet
Validated: 1
Position2: "'case' Case-Sensitive Forms lookup 1 per glyph data 3" dx=0 dy=102 dh=0 dv=0
EndChar

StartChar: backslash
Encoding: 92 92 63
Width: 391
Flags: W
LayerCount: 2
Fore
SplineSet
419 -110 m 1,0,-1
 377 -133 l 1,1,-1
 -48 707 l 1,2,-1
 -5 729 l 1,3,-1
 419 -110 l 1,0,-1
EndSplineSet
Validated: 1
EndChar

StartChar: bracketright
Encoding: 93 93 64
Width: 314
Flags: W
LayerCount: 2
Fore
SplineSet
229 -236 m 1,0,-1
 36 -236 l 1,1,-1
 36 -194 l 1,2,-1
 142 -194 l 1,3,-1
 142 674 l 1,4,-1
 36 674 l 1,5,-1
 36 717 l 1,6,-1
 229 717 l 1,7,-1
 229 -236 l 1,0,-1
EndSplineSet
Validated: 1
Position2: "'case' Case-Sensitive Forms lookup 1 per glyph data 3" dx=0 dy=102 dh=0 dv=0
EndChar

StartChar: asciicircum
Encoding: 94 94 65
Width: 512
Flags: W
LayerCount: 2
Fore
SplineSet
239 728 m 1,0,-1
 271 728 l 1,1,-1
 445 444 l 1,2,-1
 355 444 l 1,3,-1
 265 599 l 1,4,-1
 241 668 l 1,5,-1
 208 598 l 1,6,-1
 105 444 l 1,7,-1
 48 444 l 1,8,-1
 239 728 l 1,0,-1
EndSplineSet
Validated: 1
EndChar

StartChar: underscore
Encoding: 95 95 66
Width: 419
Flags: W
LayerCount: 2
Fore
SplineSet
0 -146 m 1,0,-1
 420 -146 l 1,1,-1
 420 -201 l 1,2,-1
 0 -201 l 1,3,-1
 0 -146 l 1,0,-1
EndSplineSet
Validated: 1
EndChar

StartChar: grave
Encoding: 96 96 67
Width: 335
Flags: W
LayerCount: 2
Fore
SplineSet
274 607 m 1,0,-1
 252 590 l 1,1,-1
 61 742 l 1,2,-1
 61 763 l 1,3,4
 67 768 67 768 81 772.5 c 128,-1,5
 95 777 95 777 111.5 780 c 128,-1,6
 128 783 128 783 143 784.5 c 128,-1,7
 158 786 158 786 166 785 c 1,8,-1
 274 607 l 1,0,-1
EndSplineSet
Validated: 1
EndChar

StartChar: a
Encoding: 97 97 68
Width: 517
Flags: W
LayerCount: 2
Fore
SplineSet
420 134 m 4,0,1
 420 111 420 111 421 95 c 132,-1,2
 422 79 422 79 423 60 c 5,3,-1
 494 50 l 5,4,-1
 494 29 l 5,5,6
 468 16 468 16 437 5.5 c 132,-1,7
 406 -5 406 -5 377 -10 c 5,8,-1
 351 -10 l 5,9,10
 341 14 341 14 339 42 c 132,-1,11
 337 70 337 70 336 103 c 5,12,-1
 331 103 l 5,13,14
 327 83 327 83 315 62 c 132,-1,15
 303 41 303 41 284 24.5 c 132,-1,16
 265 8 265 8 239.5 -2 c 132,-1,17
 214 -12 214 -12 181 -12 c 4,18,19
 119 -12 119 -12 79.5 25.5 c 132,-1,20
 40 63 40 63 40 125 c 4,21,22
 40 172 40 172 59 202 c 132,-1,23
 78 232 78 232 115 249.5 c 132,-1,24
 152 267 152 267 206 275 c 132,-1,25
 260 283 260 283 332 287 c 5,26,27
 336 331 336 331 334.5 366 c 132,-1,28
 333 401 333 401 323 426.5 c 132,-1,29
 313 452 313 452 294 465.5 c 132,-1,30
 275 479 275 479 245 479 c 4,31,32
 231 479 231 479 213 477.5 c 132,-1,33
 195 476 195 476 177 469 c 5,34,-1
 129 346 l 5,35,-1
 102 346 l 5,36,37
 92 377 92 377 84.5 409.5 c 132,-1,38
 77 442 77 442 75 474 c 5,39,40
 114 498 114 498 161.5 511 c 132,-1,41
 209 524 209 524 267 524 c 4,42,43
 319 524 319 524 350.5 509.5 c 132,-1,44
 382 495 382 495 398.5 471 c 132,-1,45
 415 447 415 447 420 418.5 c 132,-1,46
 425 390 425 390 425 361 c 4,47,48
 425 300 425 300 422.5 243 c 132,-1,49
 420 186 420 186 420 134 c 4,0,1
222 51 m 4,50,51
 248 51 248 51 267.5 61.5 c 132,-1,52
 287 72 287 72 300 86 c 132,-1,53
 313 100 313 100 321.5 115 c 132,-1,54
 330 130 330 130 333 140 c 5,55,-1
 333 248 l 5,56,57
 274 248 274 248 236 242 c 132,-1,58
 198 236 198 236 176.5 222.5 c 132,-1,59
 155 209 155 209 146.5 189 c 132,-1,60
 138 169 138 169 138 143 c 4,61,62
 138 99 138 99 160.5 75 c 132,-1,63
 183 51 183 51 222 51 c 4,50,51
EndSplineSet
Validated: 33
Substitution2: "Single Substitution lookup 11 subtable" ordfeminine
EndChar

StartChar: b
Encoding: 98 98 69
Width: 558
Flags: W
LayerCount: 2
Fore
SplineSet
79 698 m 1,0,-1
 1 707 l 1,1,-1
 1 733 l 1,2,3
 33 746 33 746 72.5 754.5 c 128,-1,4
 112 763 112 763 145 770 c 1,5,-1
 171 770 l 1,6,-1
 171 411 l 1,7,-1
 173 411 l 1,8,9
 190 463 190 463 231.5 493.5 c 128,-1,10
 273 524 273 524 324 524 c 0,11,12
 417 524 417 524 466.5 460.5 c 128,-1,13
 516 397 516 397 516 265 c 0,14,15
 516 130 516 130 448 60.5 c 128,-1,16
 380 -9 380 -9 252 -9 c 0,17,18
 226 -9 226 -9 200.5 -5.5 c 128,-1,19
 175 -2 175 -2 151.5 3 c 128,-1,20
 128 8 128 8 109 15.5 c 128,-1,21
 90 23 90 23 79 30 c 1,22,-1
 79 698 l 1,0,-1
296 461 m 0,23,24
 247 461 247 461 216 427.5 c 128,-1,25
 185 394 185 394 171 343 c 1,26,-1
 171 57 l 1,27,28
 189 47 189 47 216 41.5 c 128,-1,29
 243 36 243 36 272 36 c 0,30,31
 340 36 340 36 379 95 c 128,-1,32
 418 154 418 154 418 265 c 0,33,34
 418 305 418 305 411 341 c 128,-1,35
 404 377 404 377 389.5 403.5 c 128,-1,36
 375 430 375 430 352 445.5 c 128,-1,37
 329 461 329 461 296 461 c 0,23,24
EndSplineSet
Validated: 1
EndChar

StartChar: c
Encoding: 99 99 70
Width: 477
Flags: W
LayerCount: 2
Fore
SplineSet
437 72 m 1,0,1
 419 36 419 36 377.5 12 c 128,-1,2
 336 -12 336 -12 281 -12 c 0,3,4
 221 -12 221 -12 176 7 c 128,-1,5
 131 26 131 26 101.5 61 c 128,-1,6
 72 96 72 96 57 146 c 128,-1,7
 42 196 42 196 42 256 c 0,8,9
 42 386 42 386 105.5 455 c 128,-1,10
 169 524 169 524 279 524 c 0,11,12
 329 524 329 524 368.5 515.5 c 128,-1,13
 408 507 408 507 435 493 c 1,14,15
 432 459 432 459 424 417 c 128,-1,16
 416 375 416 375 403 347 c 1,17,-1
 376 347 l 1,18,-1
 333 469 l 1,19,20
 326 474 326 474 316.5 476.5 c 128,-1,21
 307 479 307 479 286 479 c 0,22,23
 216 479 216 479 178 428.5 c 128,-1,24
 140 378 140 378 140 257 c 0,25,26
 140 218 140 218 151 181 c 128,-1,27
 162 144 162 144 184 115 c 128,-1,28
 206 86 206 86 239 68.5 c 128,-1,29
 272 51 272 51 316 51 c 0,30,31
 352 51 352 51 379 61.5 c 128,-1,32
 406 72 406 72 424 86 c 1,33,-1
 437 72 l 1,0,1
EndSplineSet
Validated: 1
EndChar

StartChar: d
Encoding: 100 100 71
Width: 568
Flags: W
LayerCount: 2
Fore
SplineSet
382 101 m 1,0,1
 377 78 377 78 364.5 58 c 128,-1,2
 352 38 352 38 334 22 c 128,-1,3
 316 6 316 6 293 -3 c 128,-1,4
 270 -12 270 -12 244 -12 c 0,5,6
 143 -12 143 -12 92.5 52.5 c 128,-1,7
 42 117 42 117 42 253 c 0,8,9
 42 384 42 384 106 452.5 c 128,-1,10
 170 521 170 521 279 521 c 0,11,12
 317 521 317 521 338 517.5 c 128,-1,13
 359 514 359 514 385 505 c 1,14,-1
 385 698 l 1,15,-1
 307 707 l 1,16,-1
 307 733 l 1,17,18
 337 745 337 745 376.5 754.5 c 128,-1,19
 416 764 416 764 452 770 c 1,20,-1
 477 770 l 1,21,-1
 477 58 l 1,22,-1
 545 50 l 1,23,-1
 545 29 l 1,24,25
 515 15 515 15 483.5 4.5 c 128,-1,26
 452 -6 452 -6 421 -10 c 1,27,-1
 395 -10 l 1,28,-1
 386 101 l 1,29,-1
 382 101 l 1,0,1
264 51 m 0,30,31
 314 51 314 51 344 83 c 128,-1,32
 374 115 374 115 385 169 c 1,33,-1
 385 458 l 1,34,35
 368 468 368 468 344.5 472 c 128,-1,36
 321 476 321 476 284 476 c 0,37,38
 214 476 214 476 177 415 c 128,-1,39
 140 354 140 354 140 253 c 0,40,41
 140 211 140 211 147.5 174.5 c 128,-1,42
 155 138 155 138 170 110.5 c 128,-1,43
 185 83 185 83 208 67 c 128,-1,44
 231 51 231 51 264 51 c 0,30,31
EndSplineSet
Validated: 1
EndChar

StartChar: e
Encoding: 101 101 72
Width: 515
Flags: W
LayerCount: 2
Fore
SplineSet
457 72 m 5,0,1
 449 55 449 55 431.5 39.5 c 132,-1,2
 414 24 414 24 391.5 12.5 c 132,-1,3
 369 1 369 1 342 -5.5 c 132,-1,4
 315 -12 315 -12 288 -12 c 4,5,6
 228 -12 228 -12 181.5 7 c 132,-1,7
 135 26 135 26 104.5 61 c 132,-1,8
 74 96 74 96 58 145.5 c 132,-1,9
 42 195 42 195 42 256 c 4,10,11
 42 387 42 387 102.5 455.5 c 132,-1,12
 163 524 163 524 273 524 c 4,13,14
 309 524 309 524 344 514.5 c 132,-1,15
 379 505 379 505 406 482.5 c 132,-1,16
 433 460 433 460 450 422.5 c 132,-1,17
 467 385 467 385 467 330 c 4,18,19
 467 313 467 313 465.5 294.5 c 132,-1,20
 464 276 464 276 460 256 c 5,21,-1
 140 256 l 5,22,23
 140 213 140 213 151 175.5 c 132,-1,24
 162 138 162 138 183.5 110.5 c 132,-1,25
 205 83 205 83 237.5 67 c 132,-1,26
 270 51 270 51 314 51 c 4,27,28
 350 51 350 51 387 61.5 c 132,-1,29
 424 72 424 72 442 88 c 5,30,-1
 457 72 l 5,0,1
269 479 m 4,31,32
 211 479 211 479 180.5 439.5 c 132,-1,33
 150 400 150 400 143 301 c 5,34,-1
 369 301 l 5,35,36
 370 310 370 310 370.5 319 c 132,-1,37
 371 328 371 328 371 336 c 4,38,39
 371 402 371 402 346 440.5 c 132,-1,40
 321 479 321 479 269 479 c 4,31,32
EndSplineSet
Validated: 1
EndChar

StartChar: f
Encoding: 102 102 73
Width: 350
Flags: W
LayerCount: 2
Fore
SplineSet
313 770 m 0,0,1
 322 770 322 770 334.5 769 c 128,-1,2
 347 768 347 768 360.5 766.5 c 128,-1,3
 374 765 374 765 386 762.5 c 128,-1,4
 398 760 398 760 408 757 c 1,5,6
 405 723 405 723 399 694 c 128,-1,7
 393 665 393 665 385 641 c 1,8,-1
 359 641 l 1,9,-1
 314 729 l 1,10,11
 284 729 284 729 263.5 723 c 128,-1,12
 243 717 243 717 229 699.5 c 128,-1,13
 215 682 215 682 208.5 649 c 128,-1,14
 202 616 202 616 202 563 c 2,15,-1
 202 512 l 1,16,-1
 319 512 l 1,17,-1
 319 461 l 1,18,-1
 202 461 l 1,19,-1
 202 50 l 1,20,21
 255 44 255 44 300 26 c 1,22,-1
 300 0 l 1,23,-1
 42 0 l 1,24,-1
 42 26 l 1,25,26
 74 44 74 44 110 50 c 1,27,-1
 110 461 l 1,28,-1
 32 461 l 1,29,-1
 32 487 l 1,30,31
 68 510 68 510 110 521 c 1,32,-1
 110 557 l 2,33,34
 110 620 110 620 125 661.5 c 128,-1,35
 140 703 140 703 168 727.5 c 128,-1,36
 196 752 196 752 233 761 c 128,-1,37
 270 770 270 770 313 770 c 0,0,1
EndSplineSet
Validated: 1
EndChar

StartChar: g
Encoding: 103 103 74
Width: 538
Flags: W
LayerCount: 2
Fore
SplineSet
253 524 m 0,0,1
 308 524 308 524 346 513.5 c 128,-1,2
 384 503 384 503 410 480 c 1,3,4
 470 521 470 521 536 540 c 1,5,6
 544 529 544 529 547.5 512.5 c 128,-1,7
 551 496 551 496 551 481 c 1,8,-1
 538 457 l 1,9,-1
 430 457 l 1,10,11
 456 420 456 420 456 359 c 0,12,13
 456 285 456 285 404 239.5 c 128,-1,14
 352 194 352 194 253 194 c 0,15,16
 234 194 234 194 221.5 195 c 128,-1,17
 209 196 209 196 194 198 c 1,18,19
 189 189 189 189 182 177.5 c 128,-1,20
 175 166 175 166 175 154 c 0,21,22
 175 134 175 134 198.5 122 c 128,-1,23
 222 110 222 110 257.5 100.5 c 128,-1,24
 293 91 293 91 334.5 81.5 c 128,-1,25
 376 72 376 72 411.5 55 c 128,-1,26
 447 38 447 38 471.5 11 c 128,-1,27
 496 -16 496 -16 497 -59 c 0,28,29
 498 -96 498 -96 480 -126 c 128,-1,30
 462 -156 462 -156 430 -176 c 128,-1,31
 398 -196 398 -196 353.5 -206.5 c 128,-1,32
 309 -217 309 -217 256 -217 c 0,33,34
 144 -217 144 -217 87.5 -179 c 128,-1,35
 31 -141 31 -141 31 -84 c 0,36,37
 31 -56 31 -56 39.5 -35.5 c 128,-1,38
 48 -15 48 -15 64.5 0 c 128,-1,39
 81 15 81 15 105.5 27 c 128,-1,40
 130 39 130 39 162 49 c 1,41,42
 139 59 139 59 124.5 77 c 128,-1,43
 110 95 110 95 110 121 c 0,44,45
 110 145 110 145 130 167.5 c 128,-1,46
 150 190 150 190 170 204 c 1,47,48
 112 219 112 219 80.5 262 c 128,-1,49
 49 305 49 305 49 359 c 0,50,51
 49 394 49 394 62.5 424.5 c 128,-1,52
 76 455 76 455 101.5 477.5 c 128,-1,53
 127 500 127 500 165 512 c 128,-1,54
 203 524 203 524 253 524 c 0,0,1
404 -83 m 0,55,56
 404 -50 404 -50 382 -30.5 c 128,-1,57
 360 -11 360 -11 327.5 1 c 128,-1,58
 295 13 295 13 257 21.5 c 128,-1,59
 219 30 219 30 186 40 c 1,60,61
 147 16 147 16 135 -10 c 128,-1,62
 123 -36 123 -36 123 -63 c 0,63,64
 123 -117 123 -117 162 -144.5 c 128,-1,65
 201 -172 201 -172 274 -172 c 0,66,67
 312 -172 312 -172 337 -165 c 128,-1,68
 362 -158 362 -158 377 -146 c 128,-1,69
 392 -134 392 -134 398 -117.5 c 128,-1,70
 404 -101 404 -101 404 -83 c 0,55,56
141 359 m 0,71,72
 141 334 141 334 147 312.5 c 128,-1,73
 153 291 153 291 165.5 274.5 c 128,-1,74
 178 258 178 258 199.5 248.5 c 128,-1,75
 221 239 221 239 253 239 c 0,76,77
 312 239 312 239 338 273.5 c 128,-1,78
 364 308 364 308 364 359 c 0,79,80
 364 414 364 414 338.5 446.5 c 128,-1,81
 313 479 313 479 253 479 c 0,82,83
 191 479 191 479 166 447.5 c 128,-1,84
 141 416 141 416 141 359 c 0,71,72
EndSplineSet
Validated: 33
EndChar

StartChar: h
Encoding: 104 104 75
Width: 601
Flags: W
LayerCount: 2
Fore
SplineSet
584 0 m 1,0,-1
 362 0 l 1,1,-1
 362 26 l 1,2,3
 387 39 387 39 424 50 c 1,4,-1
 424 290 l 2,5,6
 424 370 424 370 401.5 415.5 c 128,-1,7
 379 461 379 461 319 461 c 0,8,9
 292 461 292 461 271 451 c 128,-1,10
 250 441 250 441 232.5 426 c 128,-1,11
 215 411 215 411 202.5 391 c 128,-1,12
 190 371 190 371 184 349 c 1,13,-1
 184 50 l 1,14,15
 200 46 200 46 215 41 c 128,-1,16
 230 36 230 36 245 26 c 1,17,-1
 245 0 l 1,18,-1
 25 0 l 1,19,-1
 25 26 l 1,20,21
 57 42 57 42 92 50 c 1,22,-1
 92 698 l 1,23,-1
 14 707 l 1,24,-1
 14 733 l 1,25,26
 44 745 44 745 83.5 754.5 c 128,-1,27
 123 764 123 764 159 770 c 1,28,-1
 184 770 l 1,29,-1
 184 409 l 1,30,-1
 185 409 l 1,31,32
 207 457 207 457 247.5 490.5 c 128,-1,33
 288 524 288 524 345 524 c 0,34,35
 386 524 386 524 418.5 514.5 c 128,-1,36
 451 505 451 505 472.5 480.5 c 128,-1,37
 494 456 494 456 505 414.5 c 128,-1,38
 516 373 516 373 516 309 c 2,39,-1
 516 50 l 1,40,41
 533 46 533 46 550.5 41 c 128,-1,42
 568 36 568 36 584 26 c 1,43,-1
 584 0 l 1,0,-1
EndSplineSet
Validated: 1
EndChar

StartChar: k
Encoding: 107 107 78
Width: 528
Flags: W
LayerCount: 2
Fore
SplineSet
307 512 m 1,0,-1
 505 512 l 1,1,-1
 505 485 l 1,2,3
 486 477 486 477 466.5 471 c 128,-1,4
 447 465 447 465 427 461 c 1,5,6
 412 441 412 441 392 417 c 128,-1,7
 372 393 372 393 351.5 369.5 c 128,-1,8
 331 346 331 346 312 325.5 c 128,-1,9
 293 305 293 305 280 292 c 1,10,11
 295 272 295 272 317 242.5 c 128,-1,12
 339 213 339 213 364.5 180 c 128,-1,13
 390 147 390 147 417 113.5 c 128,-1,14
 444 80 444 80 471 50 c 1,15,-1
 528 26 l 1,16,-1
 528 0 l 1,17,-1
 401 0 l 1,18,-1
 374 25 l 1,19,20
 320 93 320 93 284 145.5 c 128,-1,21
 248 198 248 198 218 244 c 1,22,-1
 184 254 l 1,23,-1
 184 50 l 1,24,25
 218 44 218 44 251 26 c 1,26,-1
 251 0 l 1,27,-1
 25 0 l 1,28,-1
 25 26 l 1,29,30
 59 42 59 42 92 50 c 1,31,-1
 92 698 l 1,32,-1
 14 707 l 1,33,-1
 14 733 l 1,34,35
 43 746 43 746 83 754.5 c 128,-1,36
 123 763 123 763 159 770 c 1,37,-1
 184 770 l 1,38,-1
 184 281 l 1,39,-1
 211 281 l 1,40,41
 227 299 227 299 246.5 321.5 c 128,-1,42
 266 344 266 344 285.5 368 c 128,-1,43
 305 392 305 392 323.5 415.5 c 128,-1,44
 342 439 342 439 357 461 c 1,45,46
 331 468 331 468 307 485 c 1,47,-1
 307 512 l 1,0,-1
EndSplineSet
Validated: 1
EndChar

StartChar: l
Encoding: 108 108 79
Width: 308
Flags: W
LayerCount: 2
Fore
SplineSet
269 0 m 1,0,-1
 42 0 l 1,1,-1
 42 26 l 1,2,3
 76 42 76 42 110 50 c 1,4,-1
 110 698 l 1,5,-1
 32 707 l 1,6,-1
 32 733 l 1,7,8
 59 745 59 745 98.5 754.5 c 128,-1,9
 138 764 138 764 176 770 c 1,10,-1
 202 770 l 1,11,-1
 202 50 l 1,12,13
 236 42 236 42 269 26 c 1,14,-1
 269 0 l 1,0,-1
EndSplineSet
Validated: 1
EndChar

StartChar: m
Encoding: 109 109 80
Width: 883
Flags: W
LayerCount: 2
Fore
SplineSet
561 0 m 1,0,-1
 342 0 l 1,1,-1
 342 26 l 1,2,3
 352 32 352 32 367 38.5 c 128,-1,4
 382 45 382 45 402 50 c 1,5,-1
 402 287 l 2,6,7
 402 328 402 328 398.5 360.5 c 128,-1,8
 395 393 395 393 385.5 415 c 128,-1,9
 376 437 376 437 357.5 449 c 128,-1,10
 339 461 339 461 309 461 c 0,11,12
 286 461 286 461 267.5 451.5 c 128,-1,13
 249 442 249 442 234 427 c 128,-1,14
 219 412 219 412 208.5 392.5 c 128,-1,15
 198 373 198 373 191 351 c 1,16,-1
 191 50 l 1,17,18
 207 45 207 45 222.5 39.5 c 128,-1,19
 238 34 238 34 252 26 c 1,20,-1
 252 0 l 1,21,-1
 32 0 l 1,22,-1
 32 26 l 1,23,24
 46 33 46 33 63.5 39 c 128,-1,25
 81 45 81 45 99 50 c 1,26,-1
 99 453 l 1,27,-1
 32 461 l 1,28,-1
 32 487 l 1,29,30
 65 501 65 501 99 510 c 128,-1,31
 133 519 133 519 166 524 c 1,32,-1
 191 524 l 1,33,-1
 191 409 l 1,34,-1
 193 409 l 1,35,36
 209 457 209 457 248.5 490.5 c 128,-1,37
 288 524 288 524 346 524 c 0,38,39
 371 524 371 524 393.5 519 c 128,-1,40
 416 514 416 514 435.5 500 c 128,-1,41
 455 486 455 486 468 461.5 c 128,-1,42
 481 437 481 437 487 398 c 1,43,44
 505 454 505 454 546.5 489 c 128,-1,45
 588 524 588 524 649 524 c 0,46,47
 687 524 687 524 715 514.5 c 128,-1,48
 743 505 743 505 761.5 480.5 c 128,-1,49
 780 456 780 456 789 414 c 128,-1,50
 798 372 798 372 798 307 c 2,51,-1
 798 50 l 1,52,53
 833 44 833 44 865 26 c 1,54,-1
 865 0 l 1,55,-1
 645 0 l 1,56,-1
 645 26 l 1,57,58
 676 42 676 42 706 50 c 1,59,-1
 706 305 l 2,60,61
 706 342 706 342 702 370.5 c 128,-1,62
 698 399 698 399 688 419 c 128,-1,63
 678 439 678 439 659.5 450 c 128,-1,64
 641 461 641 461 610 461 c 0,65,66
 561 461 561 461 534 427 c 128,-1,67
 507 393 507 393 495 341 c 1,68,-1
 495 50 l 1,69,70
 531 40 531 40 561 26 c 1,71,-1
 561 0 l 1,0,-1
EndSplineSet
Validated: 1
EndChar

StartChar: n
Encoding: 110 110 81
Width: 608
Flags: W
LayerCount: 2
Fore
SplineSet
591 0 m 1,0,-1
 371 0 l 1,1,-1
 371 26 l 1,2,3
 399 40 399 40 431 50 c 1,4,-1
 431 293 l 2,5,6
 431 371 431 371 408.5 416 c 128,-1,7
 386 461 386 461 327 461 c 0,8,9
 301 461 301 461 279 451.5 c 128,-1,10
 257 442 257 442 240 426.5 c 128,-1,11
 223 411 223 411 211 391 c 128,-1,12
 199 371 199 371 191 349 c 1,13,-1
 191 50 l 1,14,15
 223 44 223 44 253 26 c 1,16,-1
 253 0 l 1,17,-1
 32 0 l 1,18,-1
 32 26 l 1,19,20
 58 39 58 39 99 50 c 1,21,-1
 99 453 l 1,22,-1
 32 461 l 1,23,-1
 32 487 l 1,24,25
 59 498 59 498 93.5 507.5 c 128,-1,26
 128 517 128 517 166 524 c 1,27,-1
 191 524 l 1,28,-1
 191 410 l 1,29,-1
 193 410 l 1,30,31
 215 457 215 457 255 490.5 c 128,-1,32
 295 524 295 524 352 524 c 0,33,34
 393 524 393 524 425.5 514.5 c 128,-1,35
 458 505 458 505 479.5 480.5 c 128,-1,36
 501 456 501 456 512 414.5 c 128,-1,37
 523 373 523 373 523 309 c 2,38,-1
 523 50 l 1,39,40
 564 43 564 43 591 26 c 1,41,-1
 591 0 l 1,0,-1
EndSplineSet
Validated: 1
EndChar

StartChar: o
Encoding: 111 111 82
Width: 566
Flags: W
LayerCount: 2
Fore
SplineSet
42 256 m 4,0,1
 42 321 42 321 59 370.5 c 132,-1,2
 76 420 76 420 107.5 454 c 132,-1,3
 139 488 139 488 183.5 506 c 132,-1,4
 228 524 228 524 283 524 c 4,5,6
 346 524 346 524 392 504.5 c 132,-1,7
 438 485 438 485 467.5 450 c 132,-1,8
 497 415 497 415 510.5 365.5 c 132,-1,9
 524 316 524 316 524 256 c 4,10,11
 524 127 524 127 458.5 57.5 c 132,-1,12
 393 -12 393 -12 283 -12 c 4,13,14
 222 -12 222 -12 176.5 7 c 132,-1,15
 131 26 131 26 101.5 61 c 132,-1,16
 72 96 72 96 57 146 c 132,-1,17
 42 196 42 196 42 256 c 4,0,1
140 256 m 4,18,19
 140 210 140 210 149 169 c 132,-1,20
 158 128 158 128 177 98 c 132,-1,21
 196 68 196 68 226.5 50.5 c 132,-1,22
 257 33 257 33 300 33 c 4,23,24
 355 33 355 33 390.5 87 c 132,-1,25
 426 141 426 141 426 256 c 4,26,27
 426 303 426 303 417.5 343.5 c 132,-1,28
 409 384 409 384 390.5 414 c 132,-1,29
 372 444 372 444 343 461.5 c 132,-1,30
 314 479 314 479 274 479 c 4,31,32
 214 479 214 479 177 425 c 132,-1,33
 140 371 140 371 140 256 c 4,18,19
EndSplineSet
Validated: 1
Substitution2: "Single Substitution lookup 11 subtable" ordmasculine
EndChar

StartChar: p
Encoding: 112 112 83
Width: 579
Flags: W
LayerCount: 2
Fore
SplineSet
259 -205 m 1,0,-1
 32 -205 l 1,1,-1
 32 -179 l 1,2,3
 67 -163 67 -163 99 -155 c 1,4,-1
 99 453 l 1,5,-1
 32 461 l 1,6,-1
 32 487 l 1,7,8
 65 501 65 501 99 510 c 128,-1,9
 133 519 133 519 166 524 c 1,10,-1
 191 524 l 1,11,-1
 191 410 l 1,12,-1
 193 410 l 1,13,14
 213 462 213 462 250 493 c 128,-1,15
 287 524 287 524 346 524 c 0,16,17
 437 524 437 524 487.5 463.5 c 128,-1,18
 538 403 538 403 538 267 c 0,19,20
 538 202 538 202 521 150 c 128,-1,21
 504 98 504 98 472.5 62.5 c 128,-1,22
 441 27 441 27 396.5 7.5 c 128,-1,23
 352 -12 352 -12 298 -12 c 0,24,25
 260 -12 260 -12 238.5 -7.5 c 128,-1,26
 217 -3 217 -3 191 8 c 1,27,-1
 191 -155 l 1,28,29
 207 -157 207 -157 224 -162.5 c 128,-1,30
 241 -168 241 -168 259 -179 c 1,31,-1
 259 -205 l 1,0,-1
313 461 m 0,32,33
 263 461 263 461 233.5 429 c 128,-1,34
 204 397 204 397 191 342 c 1,35,-1
 191 55 l 1,36,37
 209 44 209 44 232.5 38.5 c 128,-1,38
 256 33 256 33 293 33 c 0,39,40
 327 33 327 33 354 50.5 c 128,-1,41
 381 68 381 68 400 99.5 c 128,-1,42
 419 131 419 131 429 173.5 c 128,-1,43
 439 216 439 216 439 267 c 0,44,45
 439 309 439 309 432.5 344.5 c 128,-1,46
 426 380 426 380 411 406 c 128,-1,47
 396 432 396 432 372 446.5 c 128,-1,48
 348 461 348 461 313 461 c 0,32,33
EndSplineSet
Validated: 1
EndChar

StartChar: q
Encoding: 113 113 84
Width: 561
Flags: W
LayerCount: 2
Fore
SplineSet
381 91 m 1,0,1
 367 50 367 50 331 19 c 128,-1,2
 295 -12 295 -12 240 -12 c 0,3,4
 142 -12 142 -12 92 53 c 128,-1,5
 42 118 42 118 42 253 c 0,6,7
 42 386 42 386 108 453.5 c 128,-1,8
 174 521 174 521 298 521 c 0,9,10
 353 521 353 521 403.5 511 c 128,-1,11
 454 501 454 501 477 489 c 1,12,-1
 477 -155 l 1,13,14
 494 -158 494 -158 510.5 -163.5 c 128,-1,15
 527 -169 527 -169 545 -179 c 1,16,-1
 545 -205 l 1,17,-1
 317 -205 l 1,18,-1
 317 -179 l 1,19,20
 349 -163 349 -163 385 -155 c 1,21,-1
 385 91 l 1,22,-1
 381 91 l 1,0,1
264 51 m 0,23,24
 314 51 314 51 343.5 83 c 128,-1,25
 373 115 373 115 385 168 c 1,26,-1
 385 462 l 1,27,28
 367 468 367 468 341.5 472 c 128,-1,29
 316 476 316 476 284 476 c 0,30,31
 215 476 215 476 177.5 423 c 128,-1,32
 140 370 140 370 140 255 c 0,33,34
 140 212 140 212 146.5 175 c 128,-1,35
 153 138 153 138 167.5 110.5 c 128,-1,36
 182 83 182 83 205.5 67 c 128,-1,37
 229 51 229 51 264 51 c 0,23,24
EndSplineSet
Validated: 1
EndChar

StartChar: r
Encoding: 114 114 85
Width: 393
Flags: W
LayerCount: 2
Fore
SplineSet
250 435 m 1,0,1
 239 429 239 429 222 410 c 128,-1,2
 205 391 205 391 191 354 c 1,3,-1
 191 50 l 1,4,5
 211 48 211 48 232 42.5 c 128,-1,6
 253 37 253 37 273 26 c 1,7,-1
 273 0 l 1,8,-1
 32 0 l 1,9,-1
 32 26 l 1,10,11
 50 36 50 36 66.5 41 c 128,-1,12
 83 46 83 46 99 50 c 1,13,-1
 99 453 l 1,14,-1
 32 461 l 1,15,-1
 32 487 l 1,16,17
 65 501 65 501 99.5 510 c 128,-1,18
 134 519 134 519 166 524 c 1,19,-1
 191 524 l 1,20,-1
 191 416 l 1,21,-1
 196 416 l 1,22,23
 205 436 205 436 222 456.5 c 128,-1,24
 239 477 239 477 261 493.5 c 128,-1,25
 283 510 283 510 309 518.5 c 128,-1,26
 335 527 335 527 362 524 c 1,27,28
 369 511 369 511 375 495 c 128,-1,29
 381 479 381 479 386 462 c 1,30,-1
 386 435 l 1,31,-1
 250 435 l 1,0,1
EndSplineSet
Validated: 33
EndChar

StartChar: s
Encoding: 115 115 86
Width: 443
Flags: W
LayerCount: 2
Fore
SplineSet
302 117 m 0,0,1
 302 146 302 146 284 165.5 c 128,-1,2
 266 185 266 185 238.5 202.5 c 128,-1,3
 211 220 211 220 179.5 236.5 c 128,-1,4
 148 253 148 253 120.5 275 c 128,-1,5
 93 297 93 297 75 325.5 c 128,-1,6
 57 354 57 354 57 396 c 0,7,8
 57 424 57 424 70 447.5 c 128,-1,9
 83 471 83 471 104.5 488 c 128,-1,10
 126 505 126 505 154.5 514.5 c 128,-1,11
 183 524 183 524 216 524 c 0,12,13
 271 524 271 524 306.5 518 c 128,-1,14
 342 512 342 512 375 501 c 1,15,16
 371 468 371 468 365 434.5 c 128,-1,17
 359 401 359 401 349 367 c 1,18,-1
 324 367 l 1,19,-1
 285 471 l 1,20,21
 273 476 273 476 257.5 477.5 c 128,-1,22
 242 479 242 479 225 479 c 0,23,24
 207 479 207 479 193 472.5 c 128,-1,25
 179 466 179 466 169.5 455.5 c 128,-1,26
 160 445 160 445 155 432 c 128,-1,27
 150 419 150 419 150 406 c 0,28,29
 150 378 150 378 167.5 358 c 128,-1,30
 185 338 185 338 213 321 c 128,-1,31
 241 304 241 304 272 287.5 c 128,-1,32
 303 271 303 271 330.5 250.5 c 128,-1,33
 358 230 358 230 376 203 c 128,-1,34
 394 176 394 176 394 138 c 0,35,36
 394 103 394 103 379.5 75.5 c 128,-1,37
 365 48 365 48 338.5 28.5 c 128,-1,38
 312 9 312 9 278 -1.5 c 128,-1,39
 244 -12 244 -12 205 -12 c 0,40,41
 161 -12 161 -12 124 -4.5 c 128,-1,42
 87 3 87 3 47 17 c 1,43,44
 49 54 49 54 56 88.5 c 128,-1,45
 63 123 63 123 75 155 c 1,46,-1
 100 155 l 1,47,-1
 145 43 l 1,48,49
 156 35 156 35 172 34 c 128,-1,50
 188 33 188 33 202 33 c 0,51,52
 247 33 247 33 274.5 57.5 c 128,-1,53
 302 82 302 82 302 117 c 0,0,1
EndSplineSet
Validated: 1
EndChar

StartChar: t
Encoding: 116 116 87
Width: 379
Flags: W
LayerCount: 2
Fore
SplineSet
15 487 m 1,0,1
 54 512 54 512 97 522 c 1,2,-1
 97 609 l 1,3,4
 110 620 110 620 128 629 c 128,-1,5
 146 638 146 638 164 646 c 1,6,-1
 189 646 l 1,7,-1
 189 512 l 1,8,-1
 343 512 l 1,9,-1
 343 461 l 1,10,-1
 189 461 l 1,11,-1
 189 164 l 2,12,13
 189 103 189 103 208.5 77 c 128,-1,14
 228 51 228 51 267 51 c 0,15,16
 285 51 285 51 313 53.5 c 128,-1,17
 341 56 341 56 360 63 c 1,18,-1
 368 48 l 1,19,20
 360 39 360 39 345 28.5 c 128,-1,21
 330 18 330 18 311 9 c 128,-1,22
 292 0 292 0 269.5 -6 c 128,-1,23
 247 -12 247 -12 223 -12 c 0,24,25
 162 -12 162 -12 129.5 22.5 c 128,-1,26
 97 57 97 57 97 135 c 2,27,-1
 97 461 l 1,28,-1
 15 461 l 1,29,-1
 15 487 l 1,0,1
EndSplineSet
Validated: 1
EndChar

StartChar: u
Encoding: 117 117 88
Width: 587
Flags: W
LayerCount: 2
Fore
SplineSet
79 203 m 4,0,1
 79 268 79 268 82 329.5 c 132,-1,2
 85 391 85 391 85 453 c 5,3,-1
 17 461 l 5,4,-1
 17 487 l 5,5,6
 50 499 50 499 84.5 508.5 c 132,-1,7
 119 518 119 518 152 524 c 5,8,-1
 177 524 l 5,9,10
 177 447 177 447 174 371.5 c 132,-1,11
 171 296 171 296 171 221 c 4,12,13
 171 181 171 181 175.5 149.5 c 132,-1,14
 180 118 180 118 192 96.5 c 132,-1,15
 204 75 204 75 224.5 63 c 132,-1,16
 245 51 245 51 276 51 c 4,17,18
 322 51 322 51 353.5 84.5 c 132,-1,19
 385 118 385 118 402 171 c 5,20,-1
 402 453 l 5,21,-1
 336 461 l 5,22,-1
 336 487 l 5,23,24
 368 499 368 499 402 508.5 c 132,-1,25
 436 518 436 518 469 524 c 5,26,-1
 495 524 l 5,27,-1
 495 58 l 5,28,-1
 562 50 l 5,29,-1
 562 29 l 5,30,31
 532 16 532 16 502 5.5 c 132,-1,32
 472 -5 472 -5 439 -10 c 5,33,-1
 414 -10 l 5,34,-1
 407 112 l 5,35,-1
 402 112 l 5,36,37
 397 90 397 90 384.5 68 c 132,-1,38
 372 46 372 46 351.5 28 c 132,-1,39
 331 10 331 10 305 -1 c 132,-1,40
 279 -12 279 -12 248 -12 c 4,41,42
 207 -12 207 -12 175.5 -2.5 c 132,-1,43
 144 7 144 7 122.5 31.5 c 132,-1,44
 101 56 101 56 90 98 c 132,-1,45
 79 140 79 140 79 203 c 4,0,1
EndSplineSet
Validated: 1
EndChar

StartChar: v
Encoding: 118 118 89
Width: 519
Flags: W
LayerCount: 2
Fore
SplineSet
244 -12 m 1,0,-1
 44 461 l 1,1,2
 14 471 14 471 -10 485 c 1,3,-1
 -10 512 l 1,4,-1
 204 512 l 1,5,-1
 204 486 l 1,6,7
 191 479 191 479 177 472.5 c 128,-1,8
 163 466 163 466 145 461 c 1,9,-1
 264 153 l 1,10,-1
 285 89 l 1,11,-1
 287 89 l 1,12,-1
 302 154 l 1,13,-1
 412 461 l 1,14,15
 396 465 396 465 382 471 c 128,-1,16
 368 477 368 477 355 485 c 1,17,-1
 355 512 l 1,18,-1
 529 512 l 1,19,-1
 529 485 l 1,20,21
 519 478 519 478 504 472 c 128,-1,22
 489 466 489 466 471 461 c 1,23,-1
 290 0 l 1,24,-1
 244 -12 l 1,0,-1
EndSplineSet
Validated: 1
EndChar

StartChar: w
Encoding: 119 119 90
Width: 745
Flags: W
LayerCount: 2
Fore
SplineSet
205 -12 m 1,0,-1
 44 461 l 1,1,2
 30 466 30 466 16 471.5 c 128,-1,3
 2 477 2 477 -10 485 c 1,4,-1
 -10 512 l 1,5,-1
 203 512 l 1,6,-1
 203 486 l 1,7,8
 189 478 189 478 174.5 471.5 c 128,-1,9
 160 465 160 465 144 461 c 1,10,-1
 233 162 l 1,11,-1
 247 88 l 1,12,-1
 249 88 l 1,13,-1
 264 164 l 1,14,-1
 375 502 l 1,15,-1
 406 512 l 1,16,-1
 523 163 l 1,17,-1
 542 88 l 1,18,-1
 544 88 l 1,19,-1
 559 163 l 1,20,-1
 638 461 l 1,21,22
 627 463 627 463 612 469 c 128,-1,23
 597 475 597 475 582 485 c 1,24,-1
 582 512 l 1,25,-1
 756 512 l 1,26,-1
 756 485 l 1,27,28
 734 471 734 471 697 461 c 1,29,-1
 552 0 l 1,30,-1
 498 -12 l 1,31,-1
 396 278 l 1,32,-1
 377 362 l 1,33,-1
 374 362 l 1,34,-1
 350 278 l 1,35,-1
 258 0 l 1,36,-1
 205 -12 l 1,0,-1
EndSplineSet
Validated: 1
EndChar

StartChar: x
Encoding: 120 120 91
Width: 531
Flags: W
LayerCount: 2
Fore
SplineSet
305 274 m 1,0,-1
 467 50 l 1,1,2
 481 45 481 45 495 39.5 c 128,-1,3
 509 34 509 34 521 26 c 1,4,-1
 521 0 l 1,5,-1
 311 0 l 1,6,-1
 311 25 l 1,7,8
 325 33 325 33 337.5 39.5 c 128,-1,9
 350 46 350 46 362 50 c 1,10,-1
 249 218 l 1,11,-1
 134 50 l 1,12,13
 148 45 148 45 160.5 39 c 128,-1,14
 173 33 173 33 185 26 c 1,15,-1
 185 0 l 1,16,-1
 10 0 l 1,17,-1
 10 26 l 1,18,19
 39 43 39 43 68 50 c 1,20,-1
 220 254 l 1,21,-1
 67 461 l 1,22,23
 53 466 53 466 41 471.5 c 128,-1,24
 29 477 29 477 16 485 c 1,25,-1
 16 512 l 1,26,-1
 222 512 l 1,27,-1
 222 486 l 1,28,29
 210 478 210 478 198 471.5 c 128,-1,30
 186 465 186 465 172 461 c 1,31,-1
 279 307 l 1,32,-1
 383 461 l 1,33,34
 348 472 348 472 332 485 c 1,35,-1
 332 512 l 1,36,-1
 503 512 l 1,37,-1
 503 485 l 1,38,39
 484 472 484 472 445 461 c 1,40,-1
 305 274 l 1,0,-1
EndSplineSet
Validated: 1
EndChar

StartChar: y
Encoding: 121 121 92
Width: 517
Flags: W
LayerCount: 2
Fore
SplineSet
43 461 m 5,0,1
 28 465 28 465 15 471 c 132,-1,2
 2 477 2 477 -11 485 c 5,3,-1
 -11 512 l 5,4,-1
 203 512 l 5,5,-1
 203 486 l 5,6,7
 181 472 181 472 144 461 c 5,8,-1
 275 158 l 5,9,-1
 295 94 l 5,10,-1
 297 94 l 5,11,-1
 312 159 l 5,12,-1
 410 461 l 5,13,14
 379 467 379 467 353 485 c 5,15,-1
 353 512 l 5,16,-1
 528 512 l 5,17,-1
 528 485 l 5,18,19
 506 471 506 471 470 461 c 5,20,-1
 310 0 l 5,21,22
 285 -66 285 -66 263.5 -106 c 132,-1,23
 242 -146 242 -146 220 -170 c 132,-1,24
 198 -194 198 -194 175 -204.5 c 132,-1,25
 152 -215 152 -215 125 -220 c 5,26,27
 114 -201 114 -201 105 -177.5 c 132,-1,28
 96 -154 96 -154 90 -132 c 5,29,-1
 103 -108 l 5,30,-1
 210 -108 l 5,31,32
 216 -100 216 -100 220.5 -92 c 132,-1,33
 225 -84 225 -84 230.5 -72.5 c 132,-1,34
 236 -61 236 -61 242 -44 c 132,-1,35
 248 -27 248 -27 256 0 c 5,36,-1
 43 461 l 5,0,1
EndSplineSet
Validated: 1
EndChar

StartChar: z
Encoding: 122 122 93
Width: 499
Flags: W
LayerCount: 2
Fore
SplineSet
433 175 m 1,0,1
 440 132 440 132 443.5 88.5 c 128,-1,2
 447 45 447 45 445 0 c 1,3,-1
 44 0 l 1,4,-1
 44 26 l 1,5,-1
 336 467 l 1,6,-1
 142 467 l 1,7,-1
 97 346 l 1,8,-1
 72 346 l 1,9,10
 64 390 64 390 62 432.5 c 128,-1,11
 60 475 60 475 60 512 c 1,12,-1
 445 512 l 1,13,-1
 445 485 l 1,14,-1
 153 45 l 1,15,-1
 352 45 l 1,16,-1
 408 175 l 1,17,-1
 433 175 l 1,0,1
EndSplineSet
Validated: 33
EndChar

StartChar: braceleft
Encoding: 123 123 94
Width: 356
Flags: W
LayerCount: 2
Fore
SplineSet
138 114 m 2,0,1
 138 166 138 166 116.5 195.5 c 128,-1,2
 95 225 95 225 56 225 c 1,3,-1
 56 256 l 1,4,5
 95 256 95 256 116.5 287 c 128,-1,6
 138 318 138 318 138 364 c 2,7,-1
 138 608 l 2,8,9
 138 657 138 657 162.5 687 c 128,-1,10
 187 717 187 717 237 717 c 2,11,-1
 329 717 l 1,12,-1
 329 674 l 1,13,-1
 280 674 l 2,14,15
 252 674 252 674 239 659.5 c 128,-1,16
 226 645 226 645 226 612 c 2,17,-1
 226 374 l 2,18,19
 226 340 226 340 215.5 316.5 c 128,-1,20
 205 293 205 293 188 278 c 128,-1,21
 171 263 171 263 151.5 255.5 c 128,-1,22
 132 248 132 248 114 246 c 1,23,-1
 114 240 l 1,24,25
 131 238 131 238 151 229.5 c 128,-1,26
 171 221 171 221 188 204.5 c 128,-1,27
 205 188 205 188 215.5 164 c 128,-1,28
 226 140 226 140 226 108 c 2,29,-1
 226 -132 l 2,30,31
 226 -164 226 -164 238.5 -179 c 128,-1,32
 251 -194 251 -194 281 -194 c 2,33,-1
 329 -194 l 1,34,-1
 329 -236 l 1,35,-1
 237 -236 l 2,36,37
 191 -236 191 -236 164.5 -208.5 c 128,-1,38
 138 -181 138 -181 138 -128 c 2,39,-1
 138 114 l 2,0,1
EndSplineSet
Validated: 1
Position2: "'case' Case-Sensitive Forms lookup 1 per glyph data 3" dx=0 dy=102 dh=0 dv=0
EndChar

StartChar: bar
Encoding: 124 124 95
Width: 242
Flags: W
LayerCount: 2
Fore
SplineSet
95 717 m 1,0,-1
 148 717 l 1,1,-1
 148 -133 l 1,2,-1
 95 -133 l 1,3,-1
 95 717 l 1,0,-1
EndSplineSet
Validated: 1
EndChar

StartChar: braceright
Encoding: 125 125 96
Width: 356
Flags: W
LayerCount: 2
Fore
SplineSet
244 369 m 2,0,1
 244 317 244 317 265.5 287 c 128,-1,2
 287 257 287 257 326 257 c 1,3,-1
 326 226 l 1,4,5
 287 226 287 226 265.5 195 c 128,-1,6
 244 164 244 164 244 119 c 2,7,-1
 244 -127 l 2,8,9
 244 -176 244 -176 219.5 -206 c 128,-1,10
 195 -236 195 -236 145 -236 c 2,11,-1
 53 -236 l 1,12,-1
 53 -194 l 1,13,-1
 103 -194 l 2,14,15
 131 -194 131 -194 144 -179.5 c 128,-1,16
 157 -165 157 -165 157 -132 c 2,17,-1
 157 109 l 2,18,19
 157 143 157 143 166 166 c 128,-1,20
 175 189 175 189 190 204 c 128,-1,21
 205 219 205 219 223 226.5 c 128,-1,22
 241 234 241 234 259 237 c 1,23,-1
 259 243 l 1,24,25
 242 245 242 245 223.5 253 c 128,-1,26
 205 261 205 261 190 277.5 c 128,-1,27
 175 294 175 294 166 318 c 128,-1,28
 157 342 157 342 157 375 c 2,29,-1
 157 612 l 2,30,31
 157 644 157 644 144.5 659 c 128,-1,32
 132 674 132 674 102 674 c 2,33,-1
 53 674 l 1,34,-1
 53 717 l 1,35,-1
 146 717 l 2,36,37
 192 717 192 717 218 690 c 128,-1,38
 244 663 244 663 244 609 c 2,39,-1
 244 369 l 2,0,1
EndSplineSet
Validated: 1
Position2: "'case' Case-Sensitive Forms lookup 1 per glyph data 3" dx=0 dy=102 dh=0 dv=0
EndChar

StartChar: asciitilde
Encoding: 126 126 97
Width: 542
Flags: W
LayerCount: 2
Fore
SplineSet
59 330 m 1,0,1
 96 385 96 385 130 406 c 128,-1,2
 164 427 164 427 195 427 c 0,3,4
 221 427 221 427 245 416.5 c 128,-1,5
 269 406 269 406 292.5 392.5 c 128,-1,6
 316 379 316 379 340.5 368 c 128,-1,7
 365 357 365 357 390 357 c 0,8,9
 408 357 408 357 428.5 365 c 128,-1,10
 449 373 449 373 469 392 c 1,11,-1
 482 371 l 1,12,13
 452 328 452 328 423 310 c 128,-1,14
 394 292 394 292 367 292 c 256,15,16
 340 292 340 292 315 302.5 c 128,-1,17
 290 313 290 313 265.5 326.5 c 128,-1,18
 241 340 241 340 216 350.5 c 128,-1,19
 191 361 191 361 167 361 c 0,20,21
 144 361 144 361 121 349 c 128,-1,22
 98 337 98 337 75 305 c 1,23,-1
 59 330 l 1,0,1
EndSplineSet
Validated: 1
EndChar

StartChar: exclamdown
Encoding: 161 161 99
Width: 334
Flags: W
LayerCount: 2
Fore
SplineSet
157 293 m 1,0,-1
 189 113 l 1,1,-1
 189 -190 l 1,2,3
 167 -201 167 -201 143 -201.5 c 128,-1,4
 119 -202 119 -202 97 -190 c 1,5,-1
 97 113 l 1,6,-1
 130 293 l 1,7,-1
 157 293 l 1,0,-1
213 457 m 0,8,9
 213 427 213 427 193.5 408.5 c 128,-1,10
 174 390 174 390 143 390 c 0,11,12
 111 390 111 390 92 408.5 c 128,-1,13
 73 427 73 427 73 457 c 0,14,15
 73 488 73 488 92.5 506 c 128,-1,16
 112 524 112 524 143 524 c 256,17,18
 174 524 174 524 193.5 506 c 128,-1,19
 213 488 213 488 213 457 c 0,8,9
EndSplineSet
Validated: 33
Position2: "'case' Case-Sensitive Forms lookup 1 per glyph data 3" dx=0 dy=102 dh=0 dv=0
EndChar

StartChar: cent
Encoding: 162 162 100
Width: 545
Flags: W
LayerCount: 2
Fore
SplineSet
492 72 m 1,0,1
 472 35 472 35 430.5 12 c 128,-1,2
 389 -11 389 -11 334 -12 c 1,3,-1
 334 -174 l 1,4,-1
 280 -174 l 1,5,-1
 280 -8 l 1,6,7
 172 7 172 7 117.5 77 c 128,-1,8
 63 147 63 147 63 256 c 0,9,10
 63 312 63 312 79 357.5 c 128,-1,11
 95 403 95 403 124 437 c 128,-1,12
 153 471 153 471 192 491.5 c 128,-1,13
 231 512 231 512 280 520 c 1,14,-1
 280 676 l 1,15,-1
 334 676 l 1,16,-1
 334 524 l 1,17,18
 383 524 383 524 422.5 515.5 c 128,-1,19
 462 507 462 507 489 493 c 1,20,21
 486 459 486 459 477.5 417 c 128,-1,22
 469 375 469 375 457 347 c 1,23,-1
 431 347 l 1,24,-1
 389 469 l 1,25,26
 382 474 382 474 373 476.5 c 128,-1,27
 364 479 364 479 343 479 c 2,28,-1
 333 479 l 1,29,-1
 333 54 l 1,30,31
 351 51 351 51 370 51 c 0,32,33
 406 51 406 51 432.5 61.5 c 128,-1,34
 459 72 459 72 477 86 c 1,35,-1
 492 72 l 1,0,1
162 257 m 0,36,37
 162 199 162 199 192 146.5 c 128,-1,38
 222 94 222 94 281 69 c 1,39,-1
 281 471 l 1,40,41
 227 455 227 455 194.5 403.5 c 128,-1,42
 162 352 162 352 162 257 c 0,36,37
EndSplineSet
Validated: 1
EndChar

StartChar: sterling
Encoding: 163 163 101
Width: 545
Flags: W
LayerCount: 2
Fore
SplineSet
31 390 m 1,0,-1
 118 390 l 1,1,2
 103 423 103 423 91.5 459 c 128,-1,3
 80 495 80 495 80 547 c 0,4,5
 80 589 80 589 95.5 622.5 c 128,-1,6
 111 656 111 656 138.5 679.5 c 128,-1,7
 166 703 166 703 205 716 c 128,-1,8
 244 729 244 729 292 729 c 0,9,10
 354 729 354 729 406.5 719 c 128,-1,11
 459 709 459 709 488 694 c 1,12,13
 487 678 487 678 484.5 655 c 128,-1,14
 482 632 482 632 478.5 608 c 128,-1,15
 475 584 475 584 471 560.5 c 128,-1,16
 467 537 467 537 463 519 c 1,17,-1
 437 519 l 1,18,-1
 396 659 l 1,19,20
 377 667 377 667 349.5 671.5 c 128,-1,21
 322 676 322 676 290 676 c 0,22,23
 250 676 250 676 222 658.5 c 128,-1,24
 194 641 194 641 182 609 c 0,25,26
 174 586 174 586 174 562 c 0,27,28
 175 510 175 510 187.5 469 c 128,-1,29
 200 428 200 428 214 390 c 1,30,-1
 374 390 l 1,31,-1
 374 338 l 1,32,-1
 232 338 l 1,33,34
 239 312 239 312 243.5 287 c 128,-1,35
 248 262 248 262 246 232 c 1,36,37
 245 197 245 197 232 165.5 c 128,-1,38
 219 134 219 134 190 111 c 2,39,-1
 157 82 l 1,40,-1
 157 78 l 1,41,-1
 214 84 l 1,42,-1
 418 84 l 1,43,-1
 468 199 l 1,44,-1
 494 199 l 1,45,46
 496 176 496 176 498 149.5 c 128,-1,47
 500 123 500 123 501.5 96 c 128,-1,48
 503 69 503 69 504 43.5 c 128,-1,49
 505 18 505 18 505 0 c 1,50,-1
 34 0 l 1,51,-1
 34 32 l 1,52,53
 100 61 100 61 132 100.5 c 128,-1,54
 164 140 164 140 165 203 c 0,55,56
 165 214 165 214 164.5 223.5 c 128,-1,57
 164 233 164 233 163 244 c 0,58,59
 157 299 157 299 141 338 c 1,60,-1
 31 338 l 1,61,-1
 31 390 l 1,0,-1
EndSplineSet
Validated: 33
EndChar

StartChar: currency
Encoding: 164 164 102
Width: 545
Flags: W
LayerCount: 2
Fore
SplineSet
37 174 m 1,0,-1
 122 258 l 1,1,-1
 158 269 l 1,2,3
 144 286 144 286 137.5 308 c 128,-1,4
 131 330 131 330 131 354 c 256,5,6
 131 378 131 378 137 400 c 128,-1,7
 143 422 143 422 158 439 c 1,8,-1
 122 451 l 1,9,-1
 38 536 l 1,10,-1
 93 591 l 1,11,-1
 177 506 l 1,12,-1
 189 471 l 1,13,14
 206 484 206 484 227.5 491.5 c 128,-1,15
 249 499 249 499 273 499 c 0,16,17
 298 498 298 498 319.5 491 c 128,-1,18
 341 484 341 484 357 471 c 1,19,-1
 371 506 l 1,20,-1
 455 590 l 1,21,-1
 509 535 l 1,22,-1
 424 451 l 1,23,-1
 391 439 l 1,24,25
 415 404 415 404 415 354 c 1,26,27
 416 306 416 306 391 268 c 1,28,-1
 424 258 l 1,29,-1
 508 173 l 1,30,-1
 454 118 l 1,31,-1
 370 202 l 1,32,-1
 357 237 l 1,33,34
 341 226 341 226 319.5 219 c 128,-1,35
 298 212 298 212 273 212 c 256,36,37
 248 212 248 212 227.5 218.5 c 128,-1,38
 207 225 207 225 187 237 c 1,39,-1
 177 203 l 1,40,-1
 92 119 l 1,41,-1
 37 174 l 1,0,-1
273 270 m 256,42,43
 310 270 310 270 335 293.5 c 128,-1,44
 360 317 360 317 360 354 c 256,45,46
 360 391 360 391 335 415 c 128,-1,47
 310 439 310 439 273 439 c 0,48,49
 236 440 236 440 211 415.5 c 128,-1,50
 186 391 186 391 186 354 c 256,51,52
 186 317 186 317 211 293.5 c 128,-1,53
 236 270 236 270 273 270 c 256,42,43
EndSplineSet
Validated: 33
EndChar

StartChar: yen
Encoding: 165 165 103
Width: 545
Flags: W
LayerCount: 2
Fore
SplineSet
368 717 m 1,0,-1
 593 717 l 1,1,-1
 593 687 l 1,2,3
 552 668 552 668 515 662 c 1,4,-1
 351 343 l 1,5,-1
 499 343 l 1,6,-1
 499 290 l 1,7,-1
 332 290 l 1,8,-1
 332 225 l 1,9,-1
 499 225 l 1,10,-1
 499 172 l 1,11,-1
 332 172 l 1,12,-1
 332 54 l 1,13,14
 372 49 372 49 410 30 c 1,15,-1
 410 0 l 1,16,-1
 150 0 l 1,17,-1
 150 30 l 1,18,19
 187 48 187 48 233 54 c 1,20,-1
 233 172 l 1,21,-1
 67 172 l 1,22,-1
 67 225 l 1,23,-1
 233 225 l 1,24,-1
 233 290 l 1,25,-1
 67 290 l 1,26,-1
 67 343 l 1,27,-1
 212 343 l 1,28,-1
 37 662 l 1,29,30
 13 666 13 666 -7 672.5 c 128,-1,31
 -27 679 -27 679 -46 687 c 1,32,-1
 -46 717 l 1,33,-1
 225 717 l 1,34,-1
 225 687 l 1,35,36
 210 681 210 681 190.5 674.5 c 128,-1,37
 171 668 171 668 146 662 c 1,38,-1
 304 359 l 1,39,-1
 452 662 l 1,40,41
 428 667 428 667 407 673.5 c 128,-1,42
 386 680 386 680 368 687 c 1,43,-1
 368 717 l 1,0,-1
EndSplineSet
Validated: 1
EndChar

StartChar: brokenbar
Encoding: 166 166 104
Width: 242
Flags: W
LayerCount: 2
Fore
SplineSet
95 195 m 1,0,-1
 148 195 l 1,1,-1
 148 -133 l 1,2,-1
 95 -133 l 1,3,-1
 95 195 l 1,0,-1
148 389 m 1,4,-1
 95 389 l 1,5,-1
 95 717 l 1,6,-1
 148 717 l 1,7,-1
 148 389 l 1,4,-1
EndSplineSet
Validated: 1
EndChar

StartChar: section
Encoding: 167 167 105
Width: 539
Flags: W
LayerCount: 2
Fore
SplineSet
355 45 m 0,0,1
 355 76 355 76 333 94.5 c 128,-1,2
 311 113 311 113 278.5 126.5 c 128,-1,3
 246 140 246 140 208 153 c 128,-1,4
 170 166 170 166 137 185 c 128,-1,5
 104 204 104 204 82 233.5 c 128,-1,6
 60 263 60 263 60 311 c 0,7,8
 60 362 60 362 99 399 c 128,-1,9
 138 436 138 436 195 460 c 1,10,11
 173 470 173 470 154.5 482.5 c 128,-1,12
 136 495 136 495 122.5 511.5 c 128,-1,13
 109 528 109 528 100.5 550 c 128,-1,14
 92 572 92 572 92 601 c 0,15,16
 92 629 92 629 104.5 652.5 c 128,-1,17
 117 676 117 676 139 693 c 128,-1,18
 161 710 161 710 191.5 719.5 c 128,-1,19
 222 729 222 729 260 729 c 0,20,21
 315 729 315 729 355 723.5 c 128,-1,22
 395 718 395 718 428 706 c 1,23,24
 426 690 426 690 424 678 c 128,-1,25
 422 666 422 666 419 654.5 c 128,-1,26
 416 643 416 643 412 630.5 c 128,-1,27
 408 618 408 618 402 602 c 1,28,-1
 377 602 l 1,29,-1
 319 676 l 1,30,31
 307 681 307 681 296.5 682.5 c 128,-1,32
 286 684 286 684 269 684 c 0,33,34
 225 684 225 684 204.5 660.5 c 128,-1,35
 184 637 184 637 184 610 c 0,36,37
 184 579 184 579 206 559.5 c 128,-1,38
 228 540 228 540 261 524.5 c 128,-1,39
 294 509 294 509 332 495 c 128,-1,40
 370 481 370 481 402.5 461.5 c 128,-1,41
 435 442 435 442 457 414.5 c 128,-1,42
 479 387 479 387 479 345 c 0,43,44
 479 315 479 315 467 291 c 128,-1,45
 455 267 455 267 435.5 247.5 c 128,-1,46
 416 228 416 228 392.5 213.5 c 128,-1,47
 369 199 369 199 347 188 c 1,48,49
 367 179 367 179 385.5 168.5 c 128,-1,50
 404 158 404 158 418 143.5 c 128,-1,51
 432 129 432 129 439.5 111 c 128,-1,52
 447 93 447 93 447 70 c 0,53,54
 447 -2 447 -2 393 -43 c 128,-1,55
 339 -84 339 -84 248 -84 c 0,56,57
 163 -84 163 -84 82 -54 c 1,58,59
 83 -36 83 -36 85.5 -23 c 128,-1,60
 88 -10 88 -10 91 1.5 c 128,-1,61
 94 13 94 13 98 25 c 128,-1,62
 102 37 102 37 108 53 c 1,63,-1
 133 53 l 1,64,-1
 199 -28 l 1,65,66
 210 -37 210 -37 220.5 -38 c 128,-1,67
 231 -39 231 -39 246 -39 c 0,68,69
 295 -39 295 -39 325 -14.5 c 128,-1,70
 355 10 355 10 355 45 c 0,0,1
387 321 m 0,71,72
 387 346 387 346 374.5 363.5 c 128,-1,73
 362 381 362 381 342 394 c 128,-1,74
 322 407 322 407 295.5 417.5 c 128,-1,75
 269 428 269 428 242 439 c 1,76,77
 207 423 207 423 180 395 c 128,-1,78
 153 367 153 367 153 334 c 0,79,80
 153 307 153 307 165.5 287.5 c 128,-1,81
 178 268 178 268 198.5 254 c 128,-1,82
 219 240 219 240 246 228.5 c 128,-1,83
 273 217 273 217 301 207 c 1,84,85
 318 217 318 217 333.5 231.5 c 128,-1,86
 349 246 349 246 361 260.5 c 128,-1,87
 373 275 373 275 380 291 c 128,-1,88
 387 307 387 307 387 321 c 0,71,72
EndSplineSet
Validated: 1
EndChar

StartChar: dieresis
Encoding: 168 168 106
Width: 460
Flags: W
LayerCount: 2
Fore
SplineSet
61 679 m 0,0,1
 61 704 61 704 76.5 718.5 c 128,-1,2
 92 733 92 733 117 733 c 256,3,4
 142 733 142 733 157 718 c 128,-1,5
 172 703 172 703 172 679 c 256,6,7
 172 655 172 655 156.5 641 c 128,-1,8
 141 627 141 627 117 627 c 256,9,10
 92 627 92 627 76.5 641 c 128,-1,11
 61 655 61 655 61 679 c 0,0,1
289 679 m 0,12,13
 289 704 289 704 304 718.5 c 128,-1,14
 319 733 319 733 344 733 c 256,15,16
 369 733 369 733 384 718 c 128,-1,17
 399 703 399 703 399 679 c 256,18,19
 399 655 399 655 384 641 c 128,-1,20
 369 627 369 627 344 627 c 256,21,22
 319 627 319 627 304 641 c 128,-1,23
 289 655 289 655 289 679 c 0,12,13
EndSplineSet
Validated: 1
EndChar

StartChar: copyright
Encoding: 169 169 107
Width: 826
Flags: W
LayerCount: 2
Fore
SplineSet
52 297 m 256,0,1
 52 382 52 382 82.5 449 c 128,-1,2
 113 516 113 516 163 562 c 128,-1,3
 213 608 213 608 278 632.5 c 128,-1,4
 343 657 343 657 414 657 c 256,5,6
 485 657 485 657 549.5 632.5 c 128,-1,7
 614 608 614 608 664 562 c 128,-1,8
 714 516 714 516 744 449 c 128,-1,9
 774 382 774 382 774 297 c 256,10,11
 774 212 774 212 744 145 c 128,-1,12
 714 78 714 78 664 32 c 128,-1,13
 614 -14 614 -14 549 -38.5 c 128,-1,14
 484 -63 484 -63 414 -63 c 0,15,16
 340 -63 340 -63 274 -38.5 c 128,-1,17
 208 -14 208 -14 159 32 c 128,-1,18
 110 78 110 78 81 145 c 128,-1,19
 52 212 52 212 52 297 c 256,0,1
105 297 m 256,20,21
 105 226 105 226 129.5 168.5 c 128,-1,22
 154 111 154 111 196 70.5 c 128,-1,23
 238 30 238 30 294 7.5 c 128,-1,24
 350 -15 350 -15 414 -15 c 256,25,26
 477 -15 477 -15 533.5 7.5 c 128,-1,27
 590 30 590 30 631.5 70.5 c 128,-1,28
 673 111 673 111 697 168.5 c 128,-1,29
 721 226 721 226 721 297 c 256,30,31
 721 368 721 368 695.5 425.5 c 128,-1,32
 670 483 670 483 627.5 523.5 c 128,-1,33
 585 564 585 564 529 586.5 c 128,-1,34
 473 609 473 609 414 609 c 0,35,36
 346 609 346 609 289 586.5 c 128,-1,37
 232 564 232 564 192 523 c 128,-1,38
 152 482 152 482 128.5 425 c 128,-1,39
 105 368 105 368 105 297 c 256,20,21
522 211 m 1,40,-1
 548 211 l 1,41,42
 552 196 552 196 554 164.5 c 128,-1,43
 556 133 556 133 553 109 c 1,44,45
 544 102 544 102 530 97 c 128,-1,46
 516 92 516 92 500.5 89 c 128,-1,47
 485 86 485 86 469 85 c 128,-1,48
 453 84 453 84 439 84 c 0,49,50
 389 84 389 84 347.5 98 c 128,-1,51
 306 112 306 112 276 139 c 128,-1,52
 246 166 246 166 229 206 c 128,-1,53
 212 246 212 246 212 298 c 0,54,55
 212 351 212 351 231 391 c 128,-1,56
 250 431 250 431 280 457.5 c 128,-1,57
 310 484 310 484 348.5 498 c 128,-1,58
 387 512 387 512 426 512 c 0,59,60
 466 512 466 512 497.5 506.5 c 128,-1,61
 529 501 529 501 550 490 c 1,62,63
 551 481 551 481 551 466.5 c 128,-1,64
 551 452 551 452 550 435.5 c 128,-1,65
 549 419 549 419 547 403.5 c 128,-1,66
 545 388 545 388 542 378 c 1,67,-1
 516 378 l 1,68,-1
 485 463 l 1,69,70
 478 468 478 468 462.5 468.5 c 128,-1,71
 447 469 447 469 433 469 c 0,72,73
 375 469 375 469 342.5 423.5 c 128,-1,74
 310 378 310 378 310 298 c 0,75,76
 310 264 310 264 317.5 233 c 128,-1,77
 325 202 325 202 340.5 178 c 128,-1,78
 356 154 356 154 382 140 c 128,-1,79
 408 126 408 126 443 126 c 0,80,81
 463 126 463 126 476 130 c 128,-1,82
 489 134 489 134 494 138 c 1,83,-1
 522 211 l 1,40,-1
EndSplineSet
Validated: 33
EndChar

StartChar: ordfeminine
Encoding: 170 170 108
Width: 440
Flags: W
LayerCount: 2
Fore
SplineSet
101 620 m 1,0,1
 91 631 91 631 84 651 c 128,-1,2
 77 671 77 671 76 692 c 1,3,4
 102 705 102 705 139 715 c 128,-1,5
 176 725 176 725 240 725 c 0,6,7
 306 725 306 725 329.5 698.5 c 128,-1,8
 353 672 353 672 353 622 c 0,9,10
 353 603 353 603 352.5 579.5 c 128,-1,11
 352 556 352 556 351.5 533.5 c 128,-1,12
 351 511 351 511 350.5 490 c 128,-1,13
 350 469 350 469 350 453 c 1,14,-1
 401 442 l 1,15,-1
 401 416 l 1,16,17
 382 405 382 405 360 397 c 128,-1,18
 338 389 338 389 314 387 c 1,19,-1
 297 387 l 1,20,21
 290 404 290 404 287.5 421 c 128,-1,22
 285 438 285 438 284 456 c 1,23,-1
 280 456 l 1,24,25
 275 447 275 447 265.5 434.5 c 128,-1,26
 256 422 256 422 241 411 c 128,-1,27
 226 400 226 400 205.5 392.5 c 128,-1,28
 185 385 185 385 158 385 c 0,29,30
 111 385 111 385 80.5 411 c 128,-1,31
 50 437 50 437 50 482 c 0,32,33
 50 514 50 514 66 534 c 128,-1,34
 82 554 82 554 109.5 565.5 c 128,-1,35
 137 577 137 577 173.5 581.5 c 128,-1,36
 210 586 210 586 251 586 c 0,37,38
 258 586 258 586 264.5 585.5 c 128,-1,39
 271 585 271 585 279 585 c 1,40,41
 280 591 280 591 280 601.5 c 128,-1,42
 280 612 280 612 280 617 c 0,43,44
 280 630 280 630 276.5 642.5 c 128,-1,45
 273 655 273 655 265 665 c 128,-1,46
 257 675 257 675 243 680.5 c 128,-1,47
 229 686 229 686 207 686 c 0,48,49
 195 686 195 686 180.5 684 c 128,-1,50
 166 682 166 682 152 677 c 1,51,-1
 129 620 l 1,52,-1
 101 620 l 1,0,1
186 432 m 0,53,54
 208 432 208 432 223.5 439 c 128,-1,55
 239 446 239 446 249.5 456 c 128,-1,56
 260 466 260 466 267 477 c 128,-1,57
 274 488 274 488 279 498 c 1,58,-1
 279 551 l 1,59,60
 268 552 268 552 257.5 552 c 128,-1,61
 247 552 247 552 237 552 c 0,62,63
 217 552 217 552 197.5 548.5 c 128,-1,64
 178 545 178 545 164 537 c 128,-1,65
 150 529 150 529 141 517 c 128,-1,66
 132 505 132 505 132 487 c 0,67,68
 132 467 132 467 145.5 449.5 c 128,-1,69
 159 432 159 432 186 432 c 0,53,54
EndSplineSet
Validated: 1
EndChar

StartChar: guillemotleft
Encoding: 171 171 109
Width: 482
Flags: W
LayerCount: 2
Fore
SplineSet
223 265 m 1,0,-1
 396 475 l 1,1,-1
 422 456 l 1,2,-1
 313 272 l 1,3,-1
 428 79 l 1,4,-1
 403 58 l 1,5,-1
 223 265 l 1,0,-1
25 265 m 1,6,-1
 243 477 l 1,7,-1
 269 457 l 1,8,-1
 126 271 l 1,9,-1
 275 78 l 1,10,-1
 249 56 l 1,11,-1
 25 265 l 1,6,-1
EndSplineSet
Validated: 1
Position2: "'case' Case-Sensitive Forms lookup 1 per glyph data 3" dx=0 dy=102 dh=0 dv=0
EndChar

StartChar: logicalnot
Encoding: 172 172 110
Width: 522
Flags: W
LayerCount: 2
Fore
SplineSet
44 396 m 1,0,-1
 479 396 l 1,1,-1
 479 203 l 1,2,-1
 416 203 l 1,3,-1
 416 332 l 1,4,-1
 44 332 l 1,5,-1
 44 396 l 1,0,-1
EndSplineSet
Validated: 1
EndChar

StartChar: registered
Encoding: 174 174 112
Width: 716
Flags: W
LayerCount: 2
Fore
SplineSet
85 462 m 0,0,1
 85 528 85 528 107 578.5 c 128,-1,2
 129 629 129 629 166.5 663.5 c 128,-1,3
 204 698 204 698 253.5 716 c 128,-1,4
 303 734 303 734 358 734 c 0,5,6
 415 734 415 734 465 716 c 128,-1,7
 515 698 515 698 552 663.5 c 128,-1,8
 589 629 589 629 610.5 578 c 128,-1,9
 632 527 632 527 632 462 c 0,10,11
 632 395 632 395 610 344.5 c 128,-1,12
 588 294 588 294 550.5 259 c 128,-1,13
 513 224 513 224 463.5 206 c 128,-1,14
 414 188 414 188 358 188 c 0,15,16
 301 188 301 188 251.5 206 c 128,-1,17
 202 224 202 224 165 259 c 128,-1,18
 128 294 128 294 106.5 344.5 c 128,-1,19
 85 395 85 395 85 462 c 0,0,1
133 462 m 256,20,21
 133 409 133 409 151 366.5 c 128,-1,22
 169 324 169 324 199.5 293.5 c 128,-1,23
 230 263 230 263 271 247 c 128,-1,24
 312 231 312 231 358 231 c 0,25,26
 406 231 406 231 447.5 247 c 128,-1,27
 489 263 489 263 519.5 293 c 128,-1,28
 550 323 550 323 567 365.5 c 128,-1,29
 584 408 584 408 584 462 c 0,30,31
 584 515 584 515 566 557.5 c 128,-1,32
 548 600 548 600 517 629.5 c 128,-1,33
 486 659 486 659 445 675.5 c 128,-1,34
 404 692 404 692 358 691 c 1,35,36
 309 692 309 692 268 675.5 c 128,-1,37
 227 659 227 659 197 629.5 c 128,-1,38
 167 600 167 600 150 557.5 c 128,-1,39
 133 515 133 515 133 462 c 256,20,21
324 350 m 1,40,41
 337 349 337 349 345.5 346.5 c 128,-1,42
 354 344 354 344 361 341 c 1,43,-1
 361 316 l 1,44,-1
 234 316 l 1,45,-1
 234 341 l 1,46,47
 251 347 251 347 270 350 c 1,48,-1
 270 589 l 1,49,50
 259 590 259 590 251 592.5 c 128,-1,51
 243 595 243 595 234 600 c 1,52,-1
 234 623 l 1,53,-1
 273 623 l 2,54,55
 291 623 291 623 317 625 c 128,-1,56
 343 627 343 627 359 627 c 0,57,58
 382 627 382 627 403 622 c 128,-1,59
 424 617 424 617 440.5 606.5 c 128,-1,60
 457 596 457 596 466 579.5 c 128,-1,61
 475 563 475 563 475 541 c 0,62,63
 475 509 475 509 453 490.5 c 128,-1,64
 431 472 431 472 402 463 c 1,65,66
 420 433 420 433 437.5 405 c 128,-1,67
 455 377 455 377 484 350 c 1,68,-1
 508 338 l 1,69,-1
 508 316 l 1,70,-1
 457 316 l 1,71,-1
 428 328 l 1,72,73
 402 359 402 359 387 391.5 c 128,-1,74
 372 424 372 424 360 454 c 1,75,-1
 324 454 l 1,76,-1
 324 350 l 1,40,41
354 594 m 0,77,78
 343 594 343 594 336.5 593.5 c 128,-1,79
 330 593 330 593 324 591 c 1,80,-1
 324 483 l 1,81,-1
 356 483 l 2,82,83
 417 483 417 483 416 541 c 0,84,85
 415 568 415 568 398 581 c 128,-1,86
 381 594 381 594 354 594 c 0,77,78
EndSplineSet
Validated: 33
EndChar

StartChar: macron
Encoding: 175 175 113
Width: 381
Flags: W
LayerCount: 2
Fore
SplineSet
61 652 m 1,0,-1
 61 706 l 1,1,-1
 321 706 l 1,2,-1
 321 652 l 1,3,-1
 61 652 l 1,0,-1
EndSplineSet
Validated: 1
EndChar

StartChar: degree
Encoding: 176 176 114
Width: 434
Flags: W
LayerCount: 2
Fore
SplineSet
85 585 m 0,0,1
 85 617 85 617 96.5 643.5 c 128,-1,2
 108 670 108 670 127.5 689 c 128,-1,3
 147 708 147 708 174 718.5 c 128,-1,4
 201 729 201 729 230 729 c 256,5,6
 260 729 260 729 286.5 720 c 128,-1,7
 313 711 313 711 332.5 693 c 128,-1,8
 352 675 352 675 363.5 648 c 128,-1,9
 375 621 375 621 375 585 c 0,10,11
 375 551 375 551 363.5 524.5 c 128,-1,12
 352 498 352 498 332.5 479 c 128,-1,13
 313 460 313 460 286.5 450 c 128,-1,14
 260 440 260 440 230 440 c 256,15,16
 200 440 200 440 173.5 450 c 128,-1,17
 147 460 147 460 127.5 479 c 128,-1,18
 108 498 108 498 96.5 524.5 c 128,-1,19
 85 551 85 551 85 585 c 0,0,1
142 585 m 0,20,21
 142 543 142 543 168.5 516.5 c 128,-1,22
 195 490 195 490 230 490 c 0,23,24
 269 490 269 490 293.5 515 c 128,-1,25
 318 540 318 540 318 585 c 0,26,27
 318 628 318 628 293.5 653.5 c 128,-1,28
 269 679 269 679 230 679 c 256,29,30
 191 679 191 679 166.5 653.5 c 128,-1,31
 142 628 142 628 142 585 c 0,20,21
EndSplineSet
Validated: 1
EndChar

StartChar: plusminus
Encoding: 177 177 115
Width: 545
Flags: W
LayerCount: 2
Fore
SplineSet
43 502 m 1,0,-1
 246 502 l 1,1,-1
 246 717 l 1,2,-1
 300 717 l 1,3,-1
 300 502 l 1,4,-1
 503 502 l 1,5,-1
 503 447 l 1,6,-1
 300 447 l 1,7,-1
 300 290 l 1,8,-1
 246 290 l 1,9,-1
 246 447 l 1,10,-1
 43 447 l 1,11,-1
 43 502 l 1,0,-1
43 236 m 1,12,-1
 503 236 l 1,13,-1
 503 181 l 1,14,-1
 43 181 l 1,15,-1
 43 236 l 1,12,-1
EndSplineSet
Validated: 1
EndChar

StartChar: acute
Encoding: 180 180 118
Width: 336
Flags: W
LayerCount: 2
Fore
SplineSet
181 785 m 1,0,1
 189 786 189 786 202.5 784.5 c 128,-1,2
 216 783 216 783 230.5 780 c 128,-1,3
 245 777 245 777 257 772.5 c 128,-1,4
 269 768 269 768 275 763 c 1,5,-1
 275 743 l 1,6,-1
 84 589 l 1,7,-1
 61 607 l 1,8,-1
 181 785 l 1,0,1
EndSplineSet
Validated: 1
EndChar

StartChar: mu
Encoding: 181 181 119
AltUni2: 0003bc.ffffffff.0
Width: 587
Flags: W
LayerCount: 2
Fore
SplineSet
137 15 m 1,0,-1
 173 -179 l 1,1,-1
 173 -205 l 1,2,3
 124 -219 124 -219 79 -205 c 1,4,-1
 79 453 l 1,5,-1
 17 461 l 1,6,-1
 17 487 l 1,7,8
 50 499 50 499 84.5 508.5 c 128,-1,9
 119 518 119 518 152 524 c 1,10,-1
 177 524 l 1,11,12
 177 447 177 447 174 371.5 c 128,-1,13
 171 296 171 296 171 221 c 0,14,15
 171 181 171 181 175.5 149.5 c 128,-1,16
 180 118 180 118 192 96.5 c 128,-1,17
 204 75 204 75 224.5 63 c 128,-1,18
 245 51 245 51 276 51 c 0,19,20
 322 51 322 51 354 84.5 c 128,-1,21
 386 118 386 118 403 171 c 1,22,-1
 403 453 l 1,23,-1
 336 461 l 1,24,-1
 336 487 l 1,25,26
 368 499 368 499 402.5 508.5 c 128,-1,27
 437 518 437 518 470 524 c 1,28,-1
 496 524 l 1,29,-1
 496 58 l 1,30,-1
 563 50 l 1,31,-1
 563 29 l 1,32,33
 533 16 533 16 502.5 5.5 c 128,-1,34
 472 -5 472 -5 439 -10 c 1,35,-1
 414 -10 l 1,36,-1
 407 112 l 1,37,-1
 402 112 l 1,38,39
 397 90 397 90 384.5 68 c 128,-1,40
 372 46 372 46 352 28 c 128,-1,41
 332 10 332 10 306 -1 c 128,-1,42
 280 -12 280 -12 249 -12 c 0,43,44
 216 -12 216 -12 190 -6 c 128,-1,45
 164 0 164 0 143 15 c 1,46,-1
 137 15 l 1,0,-1
EndSplineSet
Validated: 33
EndChar

StartChar: paragraph
Encoding: 182 182 120
Width: 523
Flags: W
LayerCount: 2
Fore
SplineSet
385 96 m 1,0,1
 384 27 384 27 375 -16 c 128,-1,2
 366 -59 366 -59 348.5 -85.5 c 128,-1,3
 331 -112 331 -112 307 -124 c 128,-1,4
 283 -136 283 -136 253 -142 c 1,5,6
 233 -175 233 -175 205.5 -192 c 128,-1,7
 178 -209 178 -209 152 -217 c 1,8,-1
 139 -197 l 1,9,10
 162 -188 162 -188 181.5 -172 c 128,-1,11
 201 -156 201 -156 214.5 -130 c 128,-1,12
 228 -104 228 -104 236 -66.5 c 128,-1,13
 244 -29 244 -29 244 25 c 2,14,-1
 244 317 l 1,15,16
 211 317 211 317 178.5 327.5 c 128,-1,17
 146 338 146 338 120 361 c 128,-1,18
 94 384 94 384 77.5 421.5 c 128,-1,19
 61 459 61 459 61 512 c 0,20,21
 61 555 61 555 74 592.5 c 128,-1,22
 87 630 87 630 112 657.5 c 128,-1,23
 137 685 137 685 176 701 c 128,-1,24
 215 717 215 717 267 717 c 2,25,-1
 462 717 l 1,26,-1
 462 686 l 1,27,28
 445 678 445 678 427 672 c 128,-1,29
 409 666 409 666 385 662 c 1,30,-1
 385 96 l 1,0,1
265 -119 m 1,31,32
 308 -102 308 -102 322.5 -48.5 c 128,-1,33
 337 5 337 5 337 96 c 2,34,-1
 337 667 l 1,35,-1
 292 667 l 1,36,-1
 292 25 l 2,37,38
 292 -16 292 -16 285.5 -54 c 128,-1,39
 279 -92 279 -92 265 -119 c 1,31,32
EndSplineSet
Validated: 1
EndChar

StartChar: cedilla
Encoding: 184 184 122
Width: 290
Flags: W
LayerCount: 2
Fore
SplineSet
120 -70 m 1,0,1
 176 -72 176 -72 201.5 -91 c 128,-1,2
 227 -110 227 -110 228 -142 c 0,3,4
 229 -172 229 -172 213.5 -194 c 128,-1,5
 198 -216 198 -216 173 -230.5 c 128,-1,6
 148 -245 148 -245 118.5 -251.5 c 128,-1,7
 89 -258 89 -258 61 -257 c 1,8,-1
 61 -226 l 1,9,10
 100 -221 100 -221 123.5 -205.5 c 128,-1,11
 147 -190 147 -190 146 -159 c 0,12,13
 146 -133 146 -133 125.5 -122 c 128,-1,14
 105 -111 105 -111 62 -108 c 1,15,-1
 100 1 l 1,16,-1
 146 1 l 1,17,-1
 120 -70 l 1,0,1
EndSplineSet
Validated: 33
EndChar

StartChar: ordmasculine
Encoding: 186 186 124
Width: 445
Flags: W
LayerCount: 2
Fore
SplineSet
44 555 m 0,0,1
 44 595 44 595 57.5 626.5 c 128,-1,2
 71 658 71 658 95 681.5 c 128,-1,3
 119 705 119 705 151 717 c 128,-1,4
 183 729 183 729 222 729 c 256,5,6
 261 729 261 729 294 718.5 c 128,-1,7
 327 708 327 708 350.5 686.5 c 128,-1,8
 374 665 374 665 387 632 c 128,-1,9
 400 599 400 599 400 555 c 0,10,11
 400 515 400 515 387 483 c 128,-1,12
 374 451 374 451 350.5 428.5 c 128,-1,13
 327 406 327 406 294 393.5 c 128,-1,14
 261 381 261 381 222 381 c 256,15,16
 183 381 183 381 151 391.5 c 128,-1,17
 119 402 119 402 95 423.5 c 128,-1,18
 71 445 71 445 57.5 478 c 128,-1,19
 44 511 44 511 44 555 c 0,0,1
130 555 m 0,20,21
 130 494 130 494 153.5 456.5 c 128,-1,22
 177 419 177 419 222 419 c 0,23,24
 314 419 314 419 314 555 c 0,25,26
 314 690 314 690 222 690 c 256,27,28
 130 690 130 690 130 555 c 0,20,21
EndSplineSet
Validated: 1
EndChar

StartChar: guillemotright
Encoding: 187 187 125
Width: 482
Flags: W
LayerCount: 2
Fore
SplineSet
79 58 m 1,0,-1
 54 79 l 1,1,-1
 169 267 l 1,2,-1
 59 456 l 1,3,-1
 85 475 l 1,4,-1
 259 265 l 1,5,-1
 79 58 l 1,0,-1
233 56 m 1,6,-1
 207 78 l 1,7,-1
 355 266 l 1,8,-1
 212 457 l 1,9,-1
 239 477 l 1,10,-1
 457 265 l 1,11,-1
 233 56 l 1,6,-1
EndSplineSet
Validated: 1
Position2: "'case' Case-Sensitive Forms lookup 1 per glyph data 3" dx=0 dy=102 dh=0 dv=0
EndChar

StartChar: questiondown
Encoding: 191 191 129
Width: 484
Flags: W
LayerCount: 2
Fore
SplineSet
354 -15 m 1,0,-1
 380 -15 l 1,1,2
 388 -43 388 -43 398.5 -86.5 c 128,-1,3
 409 -130 409 -130 413 -170 c 1,4,5
 374 -194 374 -194 329.5 -203.5 c 128,-1,6
 285 -213 285 -213 220 -213 c 0,7,8
 174 -213 174 -213 139.5 -200 c 128,-1,9
 105 -187 105 -187 82 -165 c 128,-1,10
 59 -143 59 -143 47.5 -112.5 c 128,-1,11
 36 -82 36 -82 36 -46 c 0,12,13
 36 0 36 0 53 34.5 c 128,-1,14
 70 69 70 69 95 96.5 c 128,-1,15
 120 124 120 124 149.5 148 c 128,-1,16
 179 172 179 172 204.5 198 c 128,-1,17
 230 224 230 224 247 256 c 128,-1,18
 264 288 264 288 264 331 c 1,19,-1
 285 331 l 1,20,21
 297 282 297 282 291 245.5 c 128,-1,22
 285 209 285 209 268 180.5 c 128,-1,23
 251 152 251 152 228 128 c 128,-1,24
 205 104 205 104 184 79.5 c 128,-1,25
 163 55 163 55 148.5 27.5 c 128,-1,26
 134 0 134 0 134 -36 c 0,27,28
 134 -59 134 -59 140 -80.5 c 128,-1,29
 146 -102 146 -102 160 -120 c 128,-1,30
 174 -138 174 -138 196 -149 c 128,-1,31
 218 -160 218 -160 249 -160 c 0,32,33
 282 -160 282 -160 302.5 -155 c 128,-1,34
 323 -150 323 -150 331 -141 c 1,35,-1
 354 -15 l 1,0,-1
338 457 m 0,36,37
 338 427 338 427 319 408.5 c 128,-1,38
 300 390 300 390 269 390 c 0,39,40
 237 390 237 390 218 408.5 c 128,-1,41
 199 427 199 427 199 457 c 0,42,43
 199 488 199 488 218.5 506 c 128,-1,44
 238 524 238 524 269 524 c 256,45,46
 300 524 300 524 319 506 c 128,-1,47
 338 488 338 488 338 457 c 0,36,37
EndSplineSet
Validated: 33
Position2: "'case' Case-Sensitive Forms lookup 1 per glyph data 3" dx=0 dy=102 dh=0 dv=0
EndChar

StartChar: Aring
Encoding: 197 197 135
Width: 699
Flags: W
LayerCount: 2
Fore
SplineSet
236 807 m 0,0,1
 236 827 236 827 245 843.5 c 128,-1,2
 254 860 254 860 270.5 871.5 c 128,-1,3
 287 883 287 883 308 889 c 128,-1,4
 329 895 329 895 353 895 c 0,5,6
 372 895 372 895 392.5 890 c 128,-1,7
 413 885 413 885 429 874.5 c 128,-1,8
 445 864 445 864 455 848.5 c 128,-1,9
 465 833 465 833 465 810 c 0,10,11
 465 772 465 772 434.5 750.5 c 128,-1,12
 404 729 404 729 364 726 c 1,13,-1
 622 54 l 1,14,15
 642 50 642 50 662 45 c 128,-1,16
 682 40 682 40 699 30 c 1,17,-1
 699 0 l 1,18,-1
 437 0 l 1,19,-1
 437 30 l 1,20,21
 457 38 457 38 479 44 c 128,-1,22
 501 50 501 50 521 54 c 1,23,-1
 452 242 l 1,24,-1
 207 242 l 1,25,-1
 139 54 l 1,26,27
 182 48 182 48 227 30 c 1,28,-1
 227 0 l 1,29,-1
 0 0 l 1,30,-1
 0 30 l 1,31,32
 37 46 37 46 74 54 c 1,33,-1
 332 727 l 1,34,35
 289 731 289 731 262.5 751.5 c 128,-1,36
 236 772 236 772 236 807 c 0,0,1
227 295 m 1,37,-1
 434 295 l 1,38,-1
 353 512 l 1,39,-1
 334 600 l 1,40,-1
 332 600 l 1,41,-1
 306 510 l 1,42,-1
 227 295 l 1,37,-1
293 807 m 0,43,44
 293 787 293 787 311 777.5 c 128,-1,45
 329 768 329 768 348 768 c 0,46,47
 375 768 375 768 391.5 777 c 128,-1,48
 408 786 408 786 408 806 c 0,49,50
 408 833 408 833 389.5 843 c 128,-1,51
 371 853 371 853 351 853 c 0,52,53
 325 853 325 853 309 843.5 c 128,-1,54
 293 834 293 834 293 807 c 0,43,44
EndSplineSet
Validated: 1
Position2: "'cpsp' Capital Spacing lookup 0 subtable" dx=41 dy=0 dh=82 dv=0
EndChar

StartChar: AE
Encoding: 198 198 136
Width: 943
Flags: W
LayerCount: 2
Fore
SplineSet
862 717 m 1,0,1
 861 676 861 676 859 634.5 c 128,-1,2
 857 593 857 593 851 551 c 1,3,-1
 825 551 l 1,4,-1
 782 664 l 1,5,-1
 560 664 l 1,6,-1
 560 392 l 1,7,-1
 726 392 l 1,8,-1
 767 468 l 1,9,-1
 792 468 l 1,10,11
 800 367 800 367 792 261 c 1,12,-1
 767 261 l 1,13,-1
 726 339 l 1,14,-1
 560 339 l 1,15,-1
 560 53 l 1,16,-1
 796 53 l 1,17,-1
 845 176 l 1,18,-1
 871 176 l 1,19,20
 877 133 877 133 881 89 c 128,-1,21
 885 45 885 45 883 0 c 1,22,-1
 378 0 l 1,23,-1
 378 30 l 1,24,25
 414 46 414 46 462 54 c 1,26,-1
 462 262 l 1,27,-1
 261 262 l 1,28,-1
 142 54 l 1,29,30
 184 48 184 48 229 30 c 1,31,-1
 229 0 l 1,32,-1
 0 0 l 1,33,-1
 0 30 l 1,34,35
 37 46 37 46 74 54 c 1,36,-1
 436 668 l 1,37,38
 422 672 422 672 406.5 676.5 c 128,-1,39
 391 681 391 681 377 687 c 1,40,-1
 377 717 l 1,41,-1
 862 717 l 1,0,1
292 315 m 1,42,-1
 462 315 l 1,43,-1
 462 626 l 1,44,-1
 460 626 l 1,45,-1
 418 530 l 1,46,-1
 292 315 l 1,42,-1
EndSplineSet
Validated: 33
Position2: "'cpsp' Capital Spacing lookup 0 subtable" dx=41 dy=0 dh=82 dv=0
EndChar

StartChar: Ccedilla
Encoding: 199 199 137
Width: 659
Flags: W
LayerCount: 2
Fore
SplineSet
560 186 m 1,0,-1
 587 186 l 1,1,2
 592 157 592 157 596 114 c 128,-1,3
 600 71 600 71 598 30 c 1,4,5
 581 17 581 17 556.5 8.5 c 128,-1,6
 532 0 532 0 505.5 -4.5 c 128,-1,7
 479 -9 479 -9 452 -10.5 c 128,-1,8
 425 -12 425 -12 401 -12 c 1,9,-1
 377 -77 l 1,10,11
 438 -78 438 -78 467.5 -100 c 128,-1,12
 497 -122 497 -122 497 -158 c 0,13,14
 497 -189 497 -189 479 -211 c 128,-1,15
 461 -233 461 -233 434 -248.5 c 128,-1,16
 407 -264 407 -264 374 -271.5 c 128,-1,17
 341 -279 341 -279 311 -279 c 1,18,-1
 311 -245 l 1,19,20
 352 -239 352 -239 380 -222.5 c 128,-1,21
 408 -206 408 -206 407 -176 c 0,22,23
 406 -147 406 -147 383 -134.5 c 128,-1,24
 360 -122 360 -122 314 -119 c 1,25,-1
 351 -8 l 1,26,27
 210 7 210 7 132 95.5 c 128,-1,28
 54 184 54 184 54 358 c 0,29,30
 54 458 54 458 82 528.5 c 128,-1,31
 110 599 110 599 157 643.5 c 128,-1,32
 204 688 204 688 266.5 708.5 c 128,-1,33
 329 729 329 729 397 729 c 256,34,35
 465 729 465 729 511 720.5 c 128,-1,36
 557 712 557 712 592 694 c 1,37,38
 592 678 592 678 591 656 c 128,-1,39
 590 634 590 634 588 609.5 c 128,-1,40
 586 585 586 585 583 561.5 c 128,-1,41
 580 538 580 538 577 518 c 1,42,-1
 550 518 l 1,43,-1
 497 666 l 1,44,45
 486 672 486 672 459.5 674 c 128,-1,46
 433 676 433 676 408 676 c 0,47,48
 357 676 357 676 311 657 c 128,-1,49
 265 638 265 638 231 598.5 c 128,-1,50
 197 559 197 559 176.5 499 c 128,-1,51
 156 439 156 439 156 358 c 0,52,53
 156 285 156 285 174.5 226.5 c 128,-1,54
 193 168 193 168 227.5 126.5 c 128,-1,55
 262 85 262 85 312 63 c 128,-1,56
 362 41 362 41 426 41 c 0,57,58
 460 41 460 41 482.5 46 c 128,-1,59
 505 51 505 51 512 59 c 1,60,-1
 560 186 l 1,0,-1
EndSplineSet
Validated: 33
Position2: "'cpsp' Capital Spacing lookup 0 subtable" dx=41 dy=0 dh=82 dv=0
EndChar

StartChar: Eth
Encoding: 208 208 146
Width: 726
Flags: W
LayerCount: 2
Fore
SplineSet
23 393 m 1,0,-1
 114 393 l 1,1,-1
 114 662 l 1,2,3
 90 667 90 667 68.5 673.5 c 128,-1,4
 47 680 47 680 30 687 c 1,5,-1
 30 717 l 1,6,-1
 134 717 l 2,7,8
 151 717 151 717 175 718 c 128,-1,9
 199 719 199 719 224 720.5 c 128,-1,10
 249 722 249 722 272 723.5 c 128,-1,11
 295 725 295 725 310 725 c 0,12,13
 397 725 397 725 464 701 c 128,-1,14
 531 677 531 677 577.5 631.5 c 128,-1,15
 624 586 624 586 648 519.5 c 128,-1,16
 672 453 672 453 672 368 c 0,17,18
 672 287 672 287 649 217.5 c 128,-1,19
 626 148 626 148 578.5 98 c 128,-1,20
 531 48 531 48 459 19.5 c 128,-1,21
 387 -9 387 -9 289 -9 c 0,22,23
 275 -9 275 -9 254.5 -7.5 c 128,-1,24
 234 -6 234 -6 212.5 -4.5 c 128,-1,25
 191 -3 191 -3 169 -1.5 c 128,-1,26
 147 0 147 0 128 0 c 2,27,-1
 30 0 l 1,28,-1
 30 30 l 1,29,30
 66 46 66 46 114 54 c 1,31,-1
 114 340 l 1,32,-1
 23 340 l 1,33,-1
 23 393 l 1,0,-1
296 672 m 0,34,35
 269 672 269 672 244.5 671.5 c 128,-1,36
 220 671 220 671 206 668 c 1,37,-1
 206 393 l 1,38,-1
 377 393 l 1,39,-1
 377 340 l 1,40,-1
 206 340 l 1,41,-1
 206 47 l 1,42,43
 211 46 211 46 225 45.5 c 128,-1,44
 239 45 239 45 254 44.5 c 128,-1,45
 269 44 269 44 283 44 c 128,-1,46
 297 44 297 44 303 44 c 0,47,48
 374 44 374 44 423 70.5 c 128,-1,49
 472 97 472 97 503 141.5 c 128,-1,50
 534 186 534 186 548 244.5 c 128,-1,51
 562 303 562 303 562 368 c 0,52,53
 562 418 562 418 548.5 471.5 c 128,-1,54
 535 525 535 525 503.5 569.5 c 128,-1,55
 472 614 472 614 421.5 643 c 128,-1,56
 371 672 371 672 296 672 c 0,34,35
EndSplineSet
Validated: 1
Position2: "'cpsp' Capital Spacing lookup 0 subtable" dx=41 dy=0 dh=82 dv=0
EndChar

StartChar: multiply
Encoding: 215 215 153
Width: 545
Flags: W
LayerCount: 2
Fore
SplineSet
90 209 m 1,0,-1
 233 352 l 1,1,-1
 92 495 l 1,2,-1
 130 532 l 1,3,-1
 272 391 l 1,4,-1
 416 535 l 1,5,-1
 454 497 l 1,6,-1
 310 353 l 1,7,-1
 457 207 l 1,8,-1
 418 168 l 1,9,-1
 271 314 l 1,10,-1
 128 171 l 1,11,-1
 90 209 l 1,0,-1
EndSplineSet
Validated: 1
EndChar

StartChar: Oslash
Encoding: 216 216 154
Width: 757
Flags: W
LayerCount: 2
Fore
SplineSet
54 358 m 0,0,1
 54 438 54 438 76 506 c 128,-1,2
 98 574 98 574 139.5 624 c 128,-1,3
 181 674 181 674 241.5 701.5 c 128,-1,4
 302 729 302 729 379 729 c 0,5,6
 429 729 429 729 471.5 717 c 128,-1,7
 514 705 514 705 550 683 c 1,8,-1
 579 730 l 1,9,-1
 631 700 l 1,10,-1
 596 646 l 1,11,12
 648 596 648 596 675.5 522.5 c 128,-1,13
 703 449 703 449 703 358 c 0,14,15
 703 278 703 278 681 210 c 128,-1,16
 659 142 659 142 618 92.5 c 128,-1,17
 577 43 577 43 516.5 15.5 c 128,-1,18
 456 -12 456 -12 379 -12 c 0,19,20
 330 -12 330 -12 287.5 -0.5 c 128,-1,21
 245 11 245 11 209 32 c 1,22,-1
 180 -13 l 1,23,-1
 132 16 l 1,24,-1
 163 67 l 1,25,26
 110 117 110 117 82 191.5 c 128,-1,27
 54 266 54 266 54 358 c 0,0,1
164 358 m 0,28,29
 164 297 164 297 176 242.5 c 128,-1,30
 188 188 188 188 213 146 c 1,31,-1
 510 621 l 1,32,33
 483 648 483 648 448.5 662 c 128,-1,34
 414 676 414 676 371 676 c 0,35,36
 315 676 315 676 275.5 651 c 128,-1,37
 236 626 236 626 211 583 c 128,-1,38
 186 540 186 540 175 482 c 128,-1,39
 164 424 164 424 164 358 c 0,28,29
594 358 m 0,40,41
 594 419 594 419 582 472 c 128,-1,42
 570 525 570 525 546 567 c 1,43,-1
 250 95 l 1,44,45
 277 68 277 68 310.5 54.5 c 128,-1,46
 344 41 344 41 388 41 c 0,47,48
 440 41 440 41 479 66 c 128,-1,49
 518 91 518 91 543 134 c 128,-1,50
 568 177 568 177 581 234.5 c 128,-1,51
 594 292 594 292 594 358 c 0,40,41
EndSplineSet
Validated: 1
Position2: "'cpsp' Capital Spacing lookup 0 subtable" dx=41 dy=0 dh=82 dv=0
EndChar

StartChar: Thorn
Encoding: 222 222 160
Width: 609
Flags: W
LayerCount: 2
Fore
SplineSet
212 54 m 1,0,1
 269 46 269 46 310 29 c 1,2,-1
 310 0 l 1,3,-1
 30 0 l 1,4,-1
 30 29 l 1,5,6
 50 40 50 40 71.5 45 c 128,-1,7
 93 50 93 50 114 54 c 1,8,-1
 114 663 l 1,9,10
 72 671 72 671 32 688 c 1,11,-1
 32 717 l 1,12,-1
 294 717 l 1,13,-1
 294 688 l 1,14,15
 276 679 276 679 254 673 c 128,-1,16
 232 667 232 667 212 663 c 1,17,-1
 212 612 l 1,18,19
 236 614 236 614 259 615 c 128,-1,20
 282 616 282 616 304 616 c 0,21,22
 354 616 354 616 402.5 605.5 c 128,-1,23
 451 595 451 595 488 570 c 128,-1,24
 525 545 525 545 547.5 503.5 c 128,-1,25
 570 462 570 462 570 400 c 0,26,27
 570 342 570 342 546.5 300.5 c 128,-1,28
 523 259 523 259 483.5 232 c 128,-1,29
 444 205 444 205 394 192 c 128,-1,30
 344 179 344 179 291 179 c 0,31,32
 286 179 286 179 275 179 c 128,-1,33
 264 179 264 179 252 179.5 c 128,-1,34
 240 180 240 180 228.5 181 c 128,-1,35
 217 182 217 182 212 183 c 1,36,-1
 212 54 l 1,0,1
282 563 m 0,37,38
 257 563 257 563 241.5 562 c 128,-1,39
 226 561 226 561 212 557 c 1,40,-1
 212 237 l 1,41,42
 217 235 217 235 227 234 c 128,-1,43
 237 233 237 233 247.5 232.5 c 128,-1,44
 258 232 258 232 268.5 232 c 128,-1,45
 279 232 279 232 285 232 c 0,46,47
 321 232 321 232 352.5 242 c 128,-1,48
 384 252 384 252 408 272.5 c 128,-1,49
 432 293 432 293 446.5 324.5 c 128,-1,50
 461 356 461 356 461 400 c 0,51,52
 461 480 461 480 413.5 521.5 c 128,-1,53
 366 563 366 563 282 563 c 0,37,38
EndSplineSet
Validated: 1
Position2: "'cpsp' Capital Spacing lookup 0 subtable" dx=41 dy=0 dh=82 dv=0
EndChar

StartChar: germandbls
Encoding: 223 223 161
Width: 653
Flags: W
LayerCount: 2
Fore
SplineSet
443 604 m 1,0,1
 443 627 443 627 434.5 648.5 c 128,-1,2
 426 670 426 670 411.5 686.5 c 128,-1,3
 397 703 397 703 378.5 714 c 128,-1,4
 360 725 360 725 339 725 c 0,5,6
 311 725 311 725 286.5 719.5 c 128,-1,7
 262 714 262 714 243 694.5 c 128,-1,8
 224 675 224 675 213 638 c 128,-1,9
 202 601 202 601 202 539 c 2,10,-1
 202 0 l 1,11,-1
 42 0 l 1,12,-1
 42 26 l 1,13,14
 74 44 74 44 110 50 c 1,15,-1
 110 461 l 1,16,-1
 32 461 l 1,17,-1
 32 487 l 1,18,19
 68 510 68 510 110 521 c 1,20,-1
 110 557 l 2,21,22
 110 620 110 620 132.5 661.5 c 128,-1,23
 155 703 155 703 188 727.5 c 128,-1,24
 221 752 221 752 260 761 c 128,-1,25
 299 770 299 770 333 770 c 0,26,27
 388 770 388 770 426.5 754.5 c 128,-1,28
 465 739 465 739 489 713.5 c 128,-1,29
 513 688 513 688 524 655.5 c 128,-1,30
 535 623 535 623 536 588 c 1,31,32
 497 583 497 583 466 573 c 128,-1,33
 435 563 435 563 413.5 546.5 c 128,-1,34
 392 530 392 530 381 506 c 128,-1,35
 370 482 370 482 370 449 c 0,36,37
 370 417 370 417 388 394 c 128,-1,38
 406 371 406 371 433 351 c 128,-1,39
 460 331 460 331 491.5 312 c 128,-1,40
 523 293 523 293 550.5 269 c 128,-1,41
 578 245 578 245 595.5 214 c 128,-1,42
 613 183 613 183 613 141 c 0,43,44
 613 69 613 69 564 28.5 c 128,-1,45
 515 -12 515 -12 424 -12 c 0,46,47
 339 -12 339 -12 258 17 c 1,48,49
 260 43 260 43 266.5 65 c 128,-1,50
 273 87 273 87 283 104 c 1,51,-1
 308 104 l 1,52,-1
 375 41 l 1,53,54
 386 36 386 36 397 34.5 c 128,-1,55
 408 33 408 33 422 33 c 0,56,57
 471 33 471 33 496 57.5 c 128,-1,58
 521 82 521 82 521 117 c 0,59,60
 521 151 521 151 503 174.5 c 128,-1,61
 485 198 485 198 458 218 c 128,-1,62
 431 238 431 238 399.5 256.5 c 128,-1,63
 368 275 368 275 340.5 300 c 128,-1,64
 313 325 313 325 295.5 357.5 c 128,-1,65
 278 390 278 390 278 437 c 0,66,67
 278 493 278 493 315 535 c 128,-1,68
 352 577 352 577 443 604 c 1,0,1
EndSplineSet
Validated: 1
EndChar

StartChar: ccedilla
Encoding: 231 231 169
Width: 477
Flags: W
LayerCount: 2
Fore
SplineSet
437 72 m 1,0,1
 418 35 418 35 376 11.5 c 128,-1,2
 334 -12 334 -12 275 -12 c 1,3,-1
 254 -70 l 1,4,5
 310 -72 310 -72 335 -91 c 128,-1,6
 360 -110 360 -110 362 -142 c 0,7,8
 363 -172 363 -172 347.5 -194 c 128,-1,9
 332 -216 332 -216 307.5 -230.5 c 128,-1,10
 283 -245 283 -245 253 -251.5 c 128,-1,11
 223 -258 223 -258 196 -257 c 1,12,-1
 196 -226 l 1,13,14
 235 -221 235 -221 258.5 -205.5 c 128,-1,15
 282 -190 282 -190 281 -159 c 0,16,17
 280 -133 280 -133 260 -122 c 128,-1,18
 240 -111 240 -111 197 -108 c 1,19,-1
 231 -8 l 1,20,21
 136 6 136 6 89 76.5 c 128,-1,22
 42 147 42 147 42 256 c 0,23,24
 42 386 42 386 105.5 455 c 128,-1,25
 169 524 169 524 279 524 c 0,26,27
 329 524 329 524 368.5 515.5 c 128,-1,28
 408 507 408 507 435 493 c 1,29,30
 432 459 432 459 424 417 c 128,-1,31
 416 375 416 375 403 347 c 1,32,-1
 376 347 l 1,33,-1
 333 469 l 1,34,35
 326 474 326 474 316.5 476.5 c 128,-1,36
 307 479 307 479 286 479 c 0,37,38
 216 479 216 479 178 428.5 c 128,-1,39
 140 378 140 378 140 257 c 0,40,41
 140 218 140 218 151 181 c 128,-1,42
 162 144 162 144 184 115 c 128,-1,43
 206 86 206 86 239 68.5 c 128,-1,44
 272 51 272 51 316 51 c 0,45,46
 352 51 352 51 379 61.5 c 128,-1,47
 406 72 406 72 424 86 c 1,48,-1
 437 72 l 1,0,1
EndSplineSet
Validated: 33
EndChar

StartChar: eth
Encoding: 240 240 178
Width: 547
Flags: W
LayerCount: 2
Fore
SplineSet
162 618 m 1,0,-1
 279 666 l 1,1,2
 252 694 252 694 220.5 715.5 c 128,-1,3
 189 737 189 737 155 751 c 1,4,-1
 155 768 l 1,5,-1
 217 768 l 1,6,7
 249 759 249 759 281 740 c 128,-1,8
 313 721 313 721 343 692 c 1,9,-1
 456 739 l 1,10,-1
 475 695 l 1,11,-1
 380 656 l 1,12,13
 435 591 435 591 472 500.5 c 128,-1,14
 509 410 509 410 509 296 c 0,15,16
 509 229 509 229 494 172.5 c 128,-1,17
 479 116 479 116 449 75 c 128,-1,18
 419 34 419 34 374 11 c 128,-1,19
 329 -12 329 -12 268 -12 c 0,20,21
 213 -12 213 -12 168.5 7 c 128,-1,22
 124 26 124 26 92.5 60.5 c 128,-1,23
 61 95 61 95 45 142.5 c 128,-1,24
 29 190 29 190 29 248 c 0,25,26
 29 317 29 317 48.5 369 c 128,-1,27
 68 421 68 421 99 455 c 128,-1,28
 130 489 130 489 170 506.5 c 128,-1,29
 210 524 210 524 251 524 c 0,30,31
 305 524 305 524 338.5 507 c 128,-1,32
 372 490 372 490 395 466 c 1,33,34
 383 505 383 505 362 547 c 128,-1,35
 341 589 341 589 311 628 c 1,36,-1
 182 574 l 1,37,-1
 162 618 l 1,0,-1
127 248 m 0,38,39
 127 206 127 206 136.5 167.5 c 128,-1,40
 146 129 146 129 165.5 99.5 c 128,-1,41
 185 70 185 70 212.5 52.5 c 128,-1,42
 240 35 240 35 275 35 c 0,43,44
 308 35 308 35 333.5 52.5 c 128,-1,45
 359 70 359 70 376 102 c 128,-1,46
 393 134 393 134 402 179 c 128,-1,47
 411 224 411 224 411 281 c 0,48,49
 411 335 411 335 407 366.5 c 128,-1,50
 403 398 403 398 400 412 c 1,51,52
 385 438 385 438 351.5 454.5 c 128,-1,53
 318 471 318 471 270 471 c 0,54,55
 208 471 208 471 167.5 415.5 c 128,-1,56
 127 360 127 360 127 248 c 0,38,39
EndSplineSet
Validated: 1
EndChar

StartChar: oslash
Encoding: 248 248 186
Width: 566
Flags: W
LayerCount: 2
Fore
SplineSet
119 42 m 1,0,1
 80 78 80 78 61 132 c 128,-1,2
 42 186 42 186 42 256 c 0,3,4
 42 321 42 321 59 370.5 c 128,-1,5
 76 420 76 420 107.5 454 c 128,-1,6
 139 488 139 488 183.5 506 c 128,-1,7
 228 524 228 524 283 524 c 0,8,9
 362 524 362 524 414 494 c 1,10,-1
 461 566 l 1,11,-1
 500 540 l 1,12,-1
 452 467 l 1,13,14
 489 431 489 431 506.5 377.5 c 128,-1,15
 524 324 524 324 524 256 c 0,16,17
 524 127 524 127 458.5 57.5 c 128,-1,18
 393 -12 393 -12 283 -12 c 0,19,20
 246 -12 246 -12 214.5 -5 c 128,-1,21
 183 2 183 2 158 15 c 1,22,-1
 106 -63 l 1,23,-1
 68 -36 l 1,24,-1
 119 42 l 1,0,1
140 256 m 0,25,26
 140 216 140 216 147 180.5 c 128,-1,27
 154 145 154 145 168 117 c 1,28,-1
 375 435 l 1,29,30
 357 457 357 457 332 468 c 128,-1,31
 307 479 307 479 274 479 c 0,32,33
 213 479 213 479 176.5 425 c 128,-1,34
 140 371 140 371 140 256 c 0,25,26
426 256 m 0,35,36
 426 294 426 294 420 327.5 c 128,-1,37
 414 361 414 361 400 390 c 1,38,-1
 196 73 l 1,39,40
 233 33 233 33 300 33 c 0,41,42
 355 33 355 33 390.5 87 c 128,-1,43
 426 141 426 141 426 256 c 0,35,36
EndSplineSet
Validated: 1
EndChar

StartChar: thorn
Encoding: 254 254 192
Width: 579
Flags: W
LayerCount: 2
Fore
SplineSet
97 698 m 1,0,-1
 19 707 l 1,1,-1
 19 733 l 1,2,3
 46 745 46 745 86 754.5 c 128,-1,4
 126 764 126 764 164 770 c 1,5,-1
 189 770 l 1,6,-1
 189 410 l 1,7,-1
 190 410 l 1,8,9
 210 462 210 462 247.5 493 c 128,-1,10
 285 524 285 524 344 524 c 0,11,12
 435 524 435 524 485.5 463.5 c 128,-1,13
 536 403 536 403 536 267 c 0,14,15
 536 202 536 202 519 150 c 128,-1,16
 502 98 502 98 470.5 62.5 c 128,-1,17
 439 27 439 27 394.5 7.5 c 128,-1,18
 350 -12 350 -12 296 -12 c 0,19,20
 258 -12 258 -12 236.5 -7.5 c 128,-1,21
 215 -3 215 -3 189 8 c 1,22,-1
 189 -155 l 1,23,24
 205 -157 205 -157 222 -162.5 c 128,-1,25
 239 -168 239 -168 257 -179 c 1,26,-1
 257 -205 l 1,27,-1
 30 -205 l 1,28,-1
 30 -179 l 1,29,30
 65 -163 65 -163 97 -155 c 1,31,-1
 97 698 l 1,0,-1
311 461 m 0,32,33
 261 461 261 461 231.5 429 c 128,-1,34
 202 397 202 397 189 342 c 1,35,-1
 189 55 l 1,36,37
 207 44 207 44 230.5 38.5 c 128,-1,38
 254 33 254 33 291 33 c 0,39,40
 325 33 325 33 352 50.5 c 128,-1,41
 379 68 379 68 398 99.5 c 128,-1,42
 417 131 417 131 427 173.5 c 128,-1,43
 437 216 437 216 437 267 c 0,44,45
 437 309 437 309 430.5 344.5 c 128,-1,46
 424 380 424 380 409 406 c 128,-1,47
 394 432 394 432 370 446.5 c 128,-1,48
 346 461 346 461 311 461 c 0,32,33
EndSplineSet
Validated: 1
EndChar

StartChar: Aogonek
Encoding: 260 260 198
Width: 699
Flags: W
LayerCount: 2
Fore
SplineSet
227 0 m 1,0,-1
 0 0 l 1,1,-1
 0 30 l 1,2,3
 37 46 37 46 74 54 c 1,4,-1
 333 729 l 1,5,-1
 362 729 l 1,6,-1
 622 54 l 1,7,8
 642 50 642 50 662 45 c 128,-1,9
 682 40 682 40 699 30 c 1,10,-1
 699 0 l 1,11,-1
 656 0 l 1,12,13
 612 -25 612 -25 582.5 -59 c 128,-1,14
 553 -93 553 -93 553 -138 c 0,15,16
 553 -167 553 -167 571.5 -185.5 c 128,-1,17
 590 -204 590 -204 622 -204 c 256,18,19
 654 -204 654 -204 678 -198 c 1,20,-1
 678 -227 l 1,21,22
 664 -238 664 -238 641 -247.5 c 128,-1,23
 618 -257 618 -257 585 -257 c 0,24,25
 561 -257 561 -257 540 -250 c 128,-1,26
 519 -243 519 -243 503 -229.5 c 128,-1,27
 487 -216 487 -216 478 -197 c 128,-1,28
 469 -178 469 -178 469 -156 c 0,29,30
 469 -129 469 -129 478.5 -107 c 128,-1,31
 488 -85 488 -85 505.5 -66 c 128,-1,32
 523 -47 523 -47 547 -31 c 128,-1,33
 571 -15 571 -15 600 0 c 1,34,-1
 437 0 l 1,35,-1
 437 30 l 1,36,37
 457 38 457 38 479 44 c 128,-1,38
 501 50 501 50 521 54 c 1,39,-1
 452 242 l 1,40,-1
 207 242 l 1,41,-1
 139 54 l 1,42,43
 182 48 182 48 227 30 c 1,44,-1
 227 0 l 1,0,-1
227 295 m 1,45,-1
 434 295 l 1,46,-1
 353 512 l 1,47,-1
 334 600 l 1,48,-1
 332 600 l 1,49,-1
 306 510 l 1,50,-1
 227 295 l 1,45,-1
EndSplineSet
Validated: 1
Position2: "'cpsp' Capital Spacing lookup 0 subtable" dx=41 dy=0 dh=82 dv=0
EndChar

StartChar: aogonek
Encoding: 261 261 199
Width: 517
Flags: W
LayerCount: 2
Fore
SplineSet
420 134 m 0,0,1
 420 111 420 111 421 95 c 128,-1,2
 422 79 422 79 423 60 c 1,3,-1
 494 50 l 1,4,-1
 494 29 l 1,5,6
 487 25 487 25 479.5 21.5 c 128,-1,7
 472 18 472 18 464 15 c 1,8,9
 419 -9 419 -9 388.5 -42 c 128,-1,10
 358 -75 358 -75 358 -121 c 0,11,12
 358 -131 358 -131 362 -142 c 128,-1,13
 366 -153 366 -153 373 -162 c 128,-1,14
 380 -171 380 -171 391 -176.5 c 128,-1,15
 402 -182 402 -182 418 -182 c 0,16,17
 432 -182 432 -182 445 -179.5 c 128,-1,18
 458 -177 458 -177 472 -173 c 1,19,-1
 472 -207 l 1,20,21
 458 -215 458 -215 436 -221 c 128,-1,22
 414 -227 414 -227 395 -227 c 0,23,24
 334 -227 334 -227 303 -201.5 c 128,-1,25
 272 -176 272 -176 272 -137 c 0,26,27
 272 -96 272 -96 299 -65 c 128,-1,28
 326 -34 326 -34 369 -10 c 1,29,-1
 360 -10 l 1,30,-1
 351 -10 l 1,31,32
 341 14 341 14 339 42 c 128,-1,33
 337 70 337 70 336 103 c 1,34,-1
 331 103 l 1,35,36
 327 83 327 83 315 62 c 128,-1,37
 303 41 303 41 284 24.5 c 128,-1,38
 265 8 265 8 239.5 -2 c 128,-1,39
 214 -12 214 -12 181 -12 c 0,40,41
 119 -12 119 -12 79.5 25.5 c 128,-1,42
 40 63 40 63 40 125 c 0,43,44
 40 172 40 172 59 202 c 128,-1,45
 78 232 78 232 115 249.5 c 128,-1,46
 152 267 152 267 206 275 c 128,-1,47
 260 283 260 283 332 287 c 1,48,49
 336 331 336 331 334.5 366 c 128,-1,50
 333 401 333 401 323 426.5 c 128,-1,51
 313 452 313 452 294 465.5 c 128,-1,52
 275 479 275 479 245 479 c 0,53,54
 231 479 231 479 213 477.5 c 128,-1,55
 195 476 195 476 177 469 c 1,56,-1
 129 346 l 1,57,-1
 102 346 l 1,58,59
 92 377 92 377 84.5 409.5 c 128,-1,60
 77 442 77 442 75 474 c 1,61,62
 114 498 114 498 161.5 511 c 128,-1,63
 209 524 209 524 267 524 c 0,64,65
 319 524 319 524 350.5 509.5 c 128,-1,66
 382 495 382 495 398.5 471 c 128,-1,67
 415 447 415 447 420 418.5 c 128,-1,68
 425 390 425 390 425 361 c 0,69,70
 425 300 425 300 422.5 243 c 128,-1,71
 420 186 420 186 420 134 c 0,0,1
222 51 m 0,72,73
 248 51 248 51 267.5 61.5 c 128,-1,74
 287 72 287 72 300 86 c 128,-1,75
 313 100 313 100 321.5 115 c 128,-1,76
 330 130 330 130 333 140 c 1,77,-1
 333 248 l 1,78,79
 274 248 274 248 236 242 c 128,-1,80
 198 236 198 236 176.5 222.5 c 128,-1,81
 155 209 155 209 146.5 189 c 128,-1,82
 138 169 138 169 138 143 c 0,83,84
 138 99 138 99 160.5 75 c 128,-1,85
 183 51 183 51 222 51 c 0,72,73
EndSplineSet
Validated: 33
EndChar

StartChar: dcroat
Encoding: 273 273 209
Width: 568
Flags: W
LayerCount: 2
Fore
SplineSet
228 638 m 1,0,-1
 385 638 l 1,1,-1
 385 698 l 1,2,-1
 307 707 l 1,3,-1
 307 733 l 1,4,5
 337 745 337 745 376.5 754.5 c 128,-1,6
 416 764 416 764 452 770 c 1,7,-1
 477 770 l 1,8,-1
 477 638 l 1,9,-1
 571 638 l 1,10,-1
 571 585 l 1,11,-1
 477 585 l 1,12,-1
 477 58 l 1,13,-1
 545 50 l 1,14,-1
 545 29 l 1,15,16
 515 15 515 15 483.5 4.5 c 128,-1,17
 452 -6 452 -6 421 -10 c 1,18,-1
 395 -10 l 1,19,-1
 386 101 l 1,20,-1
 382 101 l 1,21,22
 377 78 377 78 364.5 58 c 128,-1,23
 352 38 352 38 334 22 c 128,-1,24
 316 6 316 6 293 -3 c 128,-1,25
 270 -12 270 -12 244 -12 c 0,26,27
 143 -12 143 -12 92.5 52.5 c 128,-1,28
 42 117 42 117 42 253 c 0,29,30
 42 384 42 384 106 452.5 c 128,-1,31
 170 521 170 521 279 521 c 0,32,33
 317 521 317 521 338 517.5 c 128,-1,34
 359 514 359 514 385 505 c 1,35,-1
 385 585 l 1,36,-1
 228 585 l 1,37,-1
 228 638 l 1,0,-1
264 51 m 0,38,39
 314 51 314 51 344 83 c 128,-1,40
 374 115 374 115 385 169 c 1,41,-1
 385 458 l 1,42,43
 368 468 368 468 344.5 472 c 128,-1,44
 321 476 321 476 284 476 c 0,45,46
 214 476 214 476 177 415 c 128,-1,47
 140 354 140 354 140 253 c 0,48,49
 140 211 140 211 147.5 174.5 c 128,-1,50
 155 138 155 138 170 110.5 c 128,-1,51
 185 83 185 83 208 67 c 128,-1,52
 231 51 231 51 264 51 c 0,38,39
EndSplineSet
Validated: 1
EndChar

StartChar: Eogonek
Encoding: 280 280 214
Width: 595
Flags: W
LayerCount: 2
Fore
SplineSet
515 717 m 1,0,1
 514 676 514 676 511.5 634.5 c 128,-1,2
 509 593 509 593 504 551 c 1,3,-1
 477 551 l 1,4,-1
 435 664 l 1,5,-1
 212 664 l 1,6,-1
 212 392 l 1,7,-1
 379 392 l 1,8,-1
 419 468 l 1,9,-1
 444 468 l 1,10,11
 450 367 450 367 444 261 c 1,12,-1
 419 261 l 1,13,-1
 379 339 l 1,14,-1
 212 339 l 1,15,-1
 212 53 l 1,16,-1
 447 53 l 1,17,-1
 498 176 l 1,18,-1
 523 176 l 1,19,20
 526 163 526 163 528.5 139 c 128,-1,21
 531 115 531 115 533 88 c 128,-1,22
 535 61 535 61 535 37 c 128,-1,23
 535 13 535 13 535 0 c 1,24,-1
 489 0 l 1,25,26
 446 -25 446 -25 416 -59 c 128,-1,27
 386 -93 386 -93 386 -138 c 0,28,29
 386 -167 386 -167 404.5 -185.5 c 128,-1,30
 423 -204 423 -204 456 -204 c 0,31,32
 488 -204 488 -204 512 -198 c 1,33,-1
 512 -227 l 1,34,35
 498 -238 498 -238 475 -247.5 c 128,-1,36
 452 -257 452 -257 419 -257 c 0,37,38
 395 -257 395 -257 373.5 -250 c 128,-1,39
 352 -243 352 -243 336.5 -229.5 c 128,-1,40
 321 -216 321 -216 311.5 -197 c 128,-1,41
 302 -178 302 -178 302 -156 c 0,42,43
 302 -129 302 -129 312 -107 c 128,-1,44
 322 -85 322 -85 339.5 -66 c 128,-1,45
 357 -47 357 -47 381.5 -31 c 128,-1,46
 406 -15 406 -15 434 0 c 1,47,-1
 30 0 l 1,48,-1
 30 30 l 1,49,50
 66 46 66 46 114 54 c 1,51,-1
 114 662 l 1,52,53
 94 666 94 666 72 672.5 c 128,-1,54
 50 679 50 679 30 687 c 1,55,-1
 30 717 l 1,56,-1
 515 717 l 1,0,1
EndSplineSet
Validated: 33
Position2: "'cpsp' Capital Spacing lookup 0 subtable" dx=41 dy=0 dh=82 dv=0
EndChar

StartChar: eogonek
Encoding: 281 281 215
Width: 515
Flags: W
LayerCount: 2
Fore
SplineSet
457 72 m 1,0,1
 447 52 447 52 425 34 c 128,-1,2
 403 16 403 16 376 5 c 1,3,4
 337 -18 337 -18 312.5 -49 c 128,-1,5
 288 -80 288 -80 288 -121 c 0,6,7
 288 -131 288 -131 291 -142 c 128,-1,8
 294 -153 294 -153 301 -162 c 128,-1,9
 308 -171 308 -171 319.5 -176.5 c 128,-1,10
 331 -182 331 -182 347 -182 c 0,11,12
 361 -182 361 -182 374 -179.5 c 128,-1,13
 387 -177 387 -177 401 -173 c 1,14,-1
 401 -207 l 1,15,16
 387 -215 387 -215 365 -221 c 128,-1,17
 343 -227 343 -227 325 -227 c 0,18,19
 264 -227 264 -227 233 -201.5 c 128,-1,20
 202 -176 202 -176 202 -137 c 0,21,22
 202 -97 202 -97 227.5 -66.5 c 128,-1,23
 253 -36 253 -36 294 -12 c 1,24,25
 169 -12 169 -12 105.5 58.5 c 128,-1,26
 42 129 42 129 42 256 c 0,27,28
 42 387 42 387 102.5 455.5 c 128,-1,29
 163 524 163 524 273 524 c 0,30,31
 314 524 314 524 353.5 511.5 c 128,-1,32
 393 499 393 499 421.5 467.5 c 128,-1,33
 450 436 450 436 461.5 384.5 c 128,-1,34
 473 333 473 333 460 256 c 1,35,-1
 140 256 l 1,36,37
 140 213 140 213 151 175.5 c 128,-1,38
 162 138 162 138 183.5 110.5 c 128,-1,39
 205 83 205 83 237.5 67 c 128,-1,40
 270 51 270 51 314 51 c 0,41,42
 350 51 350 51 387 61.5 c 128,-1,43
 424 72 424 72 442 88 c 1,44,-1
 457 72 l 1,0,1
269 479 m 256,45,46
 211 479 211 479 180.5 439.5 c 128,-1,47
 150 400 150 400 143 301 c 1,48,-1
 369 301 l 1,49,50
 376 381 376 381 351.5 430 c 128,-1,51
 327 479 327 479 269 479 c 256,45,46
EndSplineSet
Validated: 33
EndChar

StartChar: Hbar
Encoding: 294 294 226
Width: 745
Flags: W
LayerCount: 2
Fore
SplineSet
31 571 m 1,0,-1
 114 571 l 1,1,-1
 114 662 l 1,2,3
 66 669 66 669 30 687 c 1,4,-1
 30 717 l 1,5,-1
 289 717 l 1,6,-1
 289 687 l 1,7,8
 272 678 272 678 252 672 c 128,-1,9
 232 666 232 666 212 662 c 1,10,-1
 212 571 l 1,11,-1
 534 571 l 1,12,-1
 534 662 l 1,13,14
 512 667 512 667 493 673 c 128,-1,15
 474 679 474 679 457 687 c 1,16,-1
 457 717 l 1,17,-1
 716 717 l 1,18,-1
 716 687 l 1,19,20
 698 677 698 677 675.5 671.5 c 128,-1,21
 653 666 653 666 632 662 c 1,22,-1
 632 571 l 1,23,-1
 715 571 l 1,24,-1
 715 518 l 1,25,-1
 632 518 l 1,26,-1
 632 54 l 1,27,28
 656 50 656 50 677 44 c 128,-1,29
 698 38 698 38 716 30 c 1,30,-1
 716 0 l 1,31,-1
 457 0 l 1,32,-1
 457 30 l 1,33,34
 494 46 494 46 534 54 c 1,35,-1
 534 341 l 1,36,-1
 212 341 l 1,37,-1
 212 54 l 1,38,39
 232 50 232 50 251.5 44 c 128,-1,40
 271 38 271 38 289 30 c 1,41,-1
 289 0 l 1,42,-1
 30 0 l 1,43,-1
 30 30 l 1,44,45
 71 46 71 46 114 54 c 1,46,-1
 114 518 l 1,47,-1
 31 518 l 1,48,-1
 31 571 l 1,0,-1
534 394 m 1,49,-1
 534 518 l 1,50,-1
 212 518 l 1,51,-1
 212 394 l 1,52,-1
 534 394 l 1,49,-1
EndSplineSet
Validated: 1
Position2: "'cpsp' Capital Spacing lookup 0 subtable" dx=41 dy=0 dh=82 dv=0
EndChar

StartChar: hbar
Encoding: 295 295 227
Width: 601
Flags: W
LayerCount: 2
Fore
SplineSet
3 637 m 1,0,-1
 92 637 l 1,1,-1
 92 698 l 1,2,-1
 14 707 l 1,3,-1
 14 733 l 1,4,5
 44 745 44 745 83.5 754.5 c 128,-1,6
 123 764 123 764 159 770 c 1,7,-1
 184 770 l 1,8,-1
 184 637 l 1,9,-1
 347 637 l 1,10,-1
 347 585 l 1,11,-1
 184 585 l 1,12,-1
 184 409 l 1,13,-1
 185 409 l 1,14,15
 207 457 207 457 247.5 490.5 c 128,-1,16
 288 524 288 524 345 524 c 0,17,18
 386 524 386 524 418.5 514.5 c 128,-1,19
 451 505 451 505 472.5 480.5 c 128,-1,20
 494 456 494 456 505 414.5 c 128,-1,21
 516 373 516 373 516 309 c 2,22,-1
 516 50 l 1,23,24
 533 46 533 46 550.5 41 c 128,-1,25
 568 36 568 36 584 26 c 1,26,-1
 584 0 l 1,27,-1
 362 0 l 1,28,-1
 362 26 l 1,29,30
 387 39 387 39 424 50 c 1,31,-1
 424 290 l 2,32,33
 424 370 424 370 401.5 415.5 c 128,-1,34
 379 461 379 461 319 461 c 0,35,36
 292 461 292 461 271 451 c 128,-1,37
 250 441 250 441 232.5 426 c 128,-1,38
 215 411 215 411 202.5 391 c 128,-1,39
 190 371 190 371 184 349 c 1,40,-1
 184 50 l 1,41,42
 200 46 200 46 215 41 c 128,-1,43
 230 36 230 36 245 26 c 1,44,-1
 245 0 l 1,45,-1
 25 0 l 1,46,-1
 25 26 l 1,47,48
 57 42 57 42 92 50 c 1,49,-1
 92 585 l 1,50,-1
 3 585 l 1,51,-1
 3 637 l 1,0,-1
EndSplineSet
Validated: 1
EndChar

StartChar: Iogonek
Encoding: 302 302 230
Width: 360
Flags: W
LayerCount: 2
Fore
SplineSet
311 0 m 1,0,-1
 270 0 l 1,1,2
 226 -25 226 -25 196.5 -59 c 128,-1,3
 167 -93 167 -93 167 -138 c 0,4,5
 167 -167 167 -167 185.5 -185.5 c 128,-1,6
 204 -204 204 -204 236 -204 c 256,7,8
 268 -204 268 -204 292 -198 c 1,9,-1
 292 -227 l 1,10,11
 278 -238 278 -238 255 -247.5 c 128,-1,12
 232 -257 232 -257 199 -257 c 0,13,14
 175 -257 175 -257 154 -250 c 128,-1,15
 133 -243 133 -243 117 -229.5 c 128,-1,16
 101 -216 101 -216 92 -197 c 128,-1,17
 83 -178 83 -178 83 -156 c 0,18,19
 83 -129 83 -129 92.5 -107 c 128,-1,20
 102 -85 102 -85 119.5 -66 c 128,-1,21
 137 -47 137 -47 161 -31 c 128,-1,22
 185 -15 185 -15 214 0 c 1,23,-1
 49 0 l 1,24,-1
 49 30 l 1,25,26
 89 48 89 48 131 54 c 1,27,-1
 131 662 l 1,28,29
 111 666 111 666 90.5 672.5 c 128,-1,30
 70 679 70 679 49 687 c 1,31,-1
 49 717 l 1,32,-1
 311 717 l 1,33,-1
 311 687 l 1,34,35
 293 679 293 679 271.5 672.5 c 128,-1,36
 250 666 250 666 229 662 c 1,37,-1
 229 54 l 1,38,39
 251 50 251 50 272.5 44 c 128,-1,40
 294 38 294 38 311 30 c 1,41,-1
 311 0 l 1,0,-1
EndSplineSet
Validated: 1
Position2: "'cpsp' Capital Spacing lookup 0 subtable" dx=41 dy=0 dh=82 dv=0
EndChar

StartChar: iogonek
Encoding: 303 303 231
Width: 311
Flags: W
LayerCount: 2
Fore
SplineSet
270 0 m 1,0,-1
 230 0 l 1,1,2
 196 -22 196 -22 174 -52 c 128,-1,3
 152 -82 152 -82 152 -121 c 0,4,5
 152 -131 152 -131 155 -142 c 128,-1,6
 158 -153 158 -153 165 -162 c 128,-1,7
 172 -171 172 -171 183.5 -176.5 c 128,-1,8
 195 -182 195 -182 211 -182 c 0,9,10
 226 -182 226 -182 239 -179.5 c 128,-1,11
 252 -177 252 -177 266 -173 c 1,12,-1
 266 -207 l 1,13,14
 252 -215 252 -215 229.5 -221 c 128,-1,15
 207 -227 207 -227 188 -227 c 0,16,17
 128 -227 128 -227 97.5 -201.5 c 128,-1,18
 67 -176 67 -176 67 -137 c 0,19,20
 67 -91 67 -91 98.5 -57.5 c 128,-1,21
 130 -24 130 -24 182 0 c 1,22,-1
 43 0 l 1,23,-1
 43 26 l 1,24,25
 58 34 58 34 74.5 39.5 c 128,-1,26
 91 45 91 45 111 50 c 1,27,-1
 111 453 l 1,28,-1
 43 461 l 1,29,-1
 43 487 l 1,30,31
 73 499 73 499 107.5 508.5 c 128,-1,32
 142 518 142 518 177 524 c 1,33,-1
 203 524 l 1,34,-1
 203 50 l 1,35,36
 223 45 223 45 239.5 39.5 c 128,-1,37
 256 34 256 34 270 26 c 1,38,-1
 270 0 l 1,0,-1
96 683 m 256,39,40
 96 710 96 710 113 725 c 128,-1,41
 130 740 130 740 157 740 c 256,42,43
 184 740 184 740 200 725 c 128,-1,44
 216 710 216 710 216 683 c 256,45,46
 216 656 216 656 199.5 641.5 c 128,-1,47
 183 627 183 627 157 627 c 256,48,49
 130 627 130 627 113 641.5 c 128,-1,50
 96 656 96 656 96 683 c 256,39,40
EndSplineSet
Validated: 1
EndChar

StartChar: dotlessi
Encoding: 305 305 233
Width: 308
Flags: W
LayerCount: 2
Fore
SplineSet
269 0 m 1,0,-1
 42 0 l 1,1,-1
 42 26 l 1,2,3
 57 34 57 34 73.5 39.5 c 128,-1,4
 90 45 90 45 110 50 c 1,5,-1
 110 453 l 1,6,-1
 42 461 l 1,7,-1
 42 487 l 1,8,9
 72 499 72 499 106.5 508.5 c 128,-1,10
 141 518 141 518 176 524 c 1,11,-1
 202 524 l 1,12,-1
 202 50 l 1,13,14
 222 45 222 45 238.5 39.5 c 128,-1,15
 255 34 255 34 269 26 c 1,16,-1
 269 0 l 1,0,-1
EndSplineSet
Validated: 1
EndChar

StartChar: Lslash
Encoding: 321 321 244
Width: 562
Flags: W
LayerCount: 2
Fore
SplineSet
30 717 m 1,0,-1
 310 717 l 1,1,-1
 310 687 l 1,2,3
 285 678 285 678 261 671.5 c 128,-1,4
 237 665 237 665 212 662 c 1,5,-1
 212 401 l 1,6,-1
 350 487 l 1,7,-1
 350 420 l 1,8,-1
 212 334 l 1,9,-1
 212 53 l 1,10,-1
 447 53 l 1,11,-1
 508 218 l 1,12,-1
 535 218 l 1,13,14
 538 196 538 196 540.5 168 c 128,-1,15
 543 140 543 140 544.5 110 c 128,-1,16
 546 80 546 80 546 51.5 c 128,-1,17
 546 23 546 23 545 0 c 1,18,-1
 30 0 l 1,19,-1
 30 30 l 1,20,21
 55 41 55 41 75 46 c 128,-1,22
 95 51 95 51 114 54 c 1,23,-1
 114 273 l 1,24,-1
 17 215 l 1,25,-1
 17 282 l 1,26,-1
 114 340 l 1,27,-1
 114 662 l 1,28,29
 90 666 90 666 68.5 672.5 c 128,-1,30
 47 679 47 679 30 687 c 1,31,-1
 30 717 l 1,0,-1
EndSplineSet
Validated: 1
Position2: "'cpsp' Capital Spacing lookup 0 subtable" dx=41 dy=0 dh=82 dv=0
EndChar

StartChar: lslash
Encoding: 322 322 245
Width: 332
Flags: W
LayerCount: 2
Fore
SplineSet
25 302 m 1,0,-1
 122 361 l 1,1,-1
 122 698 l 1,2,-1
 44 707 l 1,3,-1
 44 733 l 1,4,5
 71 745 71 745 111 754.5 c 128,-1,6
 151 764 151 764 188 770 c 1,7,-1
 214 770 l 1,8,-1
 214 419 l 1,9,-1
 308 477 l 1,10,-1
 308 410 l 1,11,-1
 214 351 l 1,12,-1
 214 50 l 1,13,14
 248 42 248 42 282 26 c 1,15,-1
 282 0 l 1,16,-1
 54 0 l 1,17,-1
 54 26 l 1,18,19
 88 42 88 42 122 50 c 1,20,-1
 122 295 l 1,21,-1
 25 234 l 1,22,-1
 25 302 l 1,0,-1
EndSplineSet
Validated: 1
EndChar

StartChar: OE
Encoding: 338 338 256
Width: 976
Flags: W
LayerCount: 2
Fore
SplineSet
498 0 m 1,0,1
 471 -5 471 -5 439 -8.5 c 128,-1,2
 407 -12 407 -12 379 -12 c 0,3,4
 302 -12 302 -12 241.5 15.5 c 128,-1,5
 181 43 181 43 139.5 92.5 c 128,-1,6
 98 142 98 142 76 210.5 c 128,-1,7
 54 279 54 279 54 358 c 256,8,9
 54 438 54 438 76 506 c 128,-1,10
 98 574 98 574 139.5 624 c 128,-1,11
 181 674 181 674 241.5 701.5 c 128,-1,12
 302 729 302 729 379 729 c 0,13,14
 403 729 403 729 434.5 726 c 128,-1,15
 466 723 466 723 496 717 c 1,16,-1
 897 717 l 1,17,18
 895 676 895 676 893 634.5 c 128,-1,19
 891 593 891 593 886 551 c 1,20,-1
 859 551 l 1,21,-1
 816 664 l 1,22,-1
 594 664 l 1,23,-1
 594 392 l 1,24,-1
 760 392 l 1,25,-1
 801 468 l 1,26,-1
 825 468 l 1,27,28
 833 367 833 367 825 261 c 1,29,-1
 801 261 l 1,30,-1
 760 339 l 1,31,-1
 594 339 l 1,32,-1
 594 53 l 1,33,-1
 829 53 l 1,34,-1
 879 176 l 1,35,-1
 905 176 l 1,36,37
 911 133 911 133 915 89 c 128,-1,38
 919 45 919 45 916 0 c 1,39,-1
 498 0 l 1,0,1
388 41 m 0,40,41
 415 41 415 41 442 45 c 128,-1,42
 469 49 469 49 496 60 c 1,43,-1
 496 651 l 1,44,45
 469 662 469 662 436.5 669 c 128,-1,46
 404 676 404 676 371 676 c 0,47,48
 315 676 315 676 275.5 651 c 128,-1,49
 236 626 236 626 211 583 c 128,-1,50
 186 540 186 540 175 482 c 128,-1,51
 164 424 164 424 164 358 c 256,52,53
 164 292 164 292 177.5 234.5 c 128,-1,54
 191 177 191 177 219 134 c 128,-1,55
 247 91 247 91 289 66 c 128,-1,56
 331 41 331 41 388 41 c 0,40,41
EndSplineSet
Validated: 33
Position2: "'cpsp' Capital Spacing lookup 0 subtable" dx=41 dy=0 dh=82 dv=0
EndChar

StartChar: oe
Encoding: 339 339 257
Width: 897
Flags: W
LayerCount: 2
Fore
SplineSet
140 256 m 0,0,1
 140 210 140 210 149 169 c 128,-1,2
 158 128 158 128 177 97.5 c 128,-1,3
 196 67 196 67 226.5 49.5 c 128,-1,4
 257 32 257 32 300 32 c 0,5,6
 355 32 355 32 390 86.5 c 128,-1,7
 425 141 425 141 425 256 c 0,8,9
 425 303 425 303 417 343.5 c 128,-1,10
 409 384 409 384 390.5 414 c 128,-1,11
 372 444 372 444 343 461.5 c 128,-1,12
 314 479 314 479 274 479 c 0,13,14
 213 479 213 479 176.5 425 c 128,-1,15
 140 371 140 371 140 256 c 0,0,1
474 77 m 1,16,17
 457 52 457 52 434.5 35 c 128,-1,18
 412 18 412 18 386.5 7.5 c 128,-1,19
 361 -3 361 -3 334.5 -7.5 c 128,-1,20
 308 -12 308 -12 283 -12 c 0,21,22
 222 -12 222 -12 176.5 7 c 128,-1,23
 131 26 131 26 101.5 61 c 128,-1,24
 72 96 72 96 57 146 c 128,-1,25
 42 196 42 196 42 256 c 0,26,27
 42 321 42 321 59 370.5 c 128,-1,28
 76 420 76 420 107.5 454 c 128,-1,29
 139 488 139 488 183.5 506 c 128,-1,30
 228 524 228 524 283 524 c 256,31,32
 338 524 338 524 390 503.5 c 128,-1,33
 442 483 442 483 472 436 c 1,34,35
 485 458 485 458 505.5 475 c 128,-1,36
 526 492 526 492 550.5 502.5 c 128,-1,37
 575 513 575 513 602.5 518.5 c 128,-1,38
 630 524 630 524 655 524 c 0,39,40
 696 524 696 524 736 511.5 c 128,-1,41
 776 499 776 499 803.5 467.5 c 128,-1,42
 831 436 831 436 843 384.5 c 128,-1,43
 855 333 855 333 842 256 c 1,44,-1
 523 256 l 1,45,46
 523 213 523 213 534 175.5 c 128,-1,47
 545 138 545 138 566.5 110.5 c 128,-1,48
 588 83 588 83 620 67 c 128,-1,49
 652 51 652 51 696 51 c 0,50,51
 713 51 713 51 732.5 53.5 c 128,-1,52
 752 56 752 56 769 61.5 c 128,-1,53
 786 67 786 67 800.5 73.5 c 128,-1,54
 815 80 815 80 824 88 c 1,55,-1
 840 72 l 1,56,57
 832 55 832 55 814.5 39.5 c 128,-1,58
 797 24 797 24 774 12.5 c 128,-1,59
 751 1 751 1 724 -5.5 c 128,-1,60
 697 -12 697 -12 670 -12 c 256,61,62
 642 -12 642 -12 612.5 -5.5 c 128,-1,63
 583 1 583 1 555.5 13 c 128,-1,64
 528 25 528 25 506.5 41.5 c 128,-1,65
 485 58 485 58 474 77 c 1,16,17
651 479 m 0,66,67
 594 479 594 479 563 439.5 c 128,-1,68
 532 400 532 400 526 301 c 1,69,-1
 751 301 l 1,70,71
 758 381 758 381 733.5 430 c 128,-1,72
 709 479 709 479 651 479 c 0,66,67
EndSplineSet
Validated: 33
EndChar

StartChar: Scedilla
Encoding: 350 350 268
Width: 548
Flags: W
LayerCount: 2
Fore
SplineSet
154 71 m 1,0,1
 166 59 166 59 185.5 49.5 c 128,-1,2
 205 40 205 40 244 40 c 0,3,4
 277 40 277 40 305.5 48.5 c 128,-1,5
 334 57 334 57 355 74 c 128,-1,6
 376 91 376 91 388 115.5 c 128,-1,7
 400 140 400 140 400 171 c 0,8,9
 400 212 400 212 375 239.5 c 128,-1,10
 350 267 350 267 312.5 288.5 c 128,-1,11
 275 310 275 310 231 330.5 c 128,-1,12
 187 351 187 351 150 379.5 c 128,-1,13
 113 408 113 408 87.5 447 c 128,-1,14
 62 486 62 486 62 546 c 0,15,16
 62 589 62 589 77.5 622.5 c 128,-1,17
 93 656 93 656 121.5 679.5 c 128,-1,18
 150 703 150 703 188.5 716 c 128,-1,19
 227 729 227 729 275 729 c 0,20,21
 337 729 337 729 389 719.5 c 128,-1,22
 441 710 441 710 471 695 c 1,23,24
 471 678 471 678 468.5 655 c 128,-1,25
 466 632 466 632 462.5 607.5 c 128,-1,26
 459 583 459 583 455 560 c 128,-1,27
 451 537 451 537 446 519 c 1,28,-1
 420 519 l 1,29,-1
 379 659 l 1,30,31
 361 667 361 667 332.5 671.5 c 128,-1,32
 304 676 304 676 272 676 c 0,33,34
 220 676 220 676 188.5 646.5 c 128,-1,35
 157 617 157 617 157 565 c 0,36,37
 157 523 157 523 182 494.5 c 128,-1,38
 207 466 207 466 245 443.5 c 128,-1,39
 283 421 283 421 326.5 400 c 128,-1,40
 370 379 370 379 407.5 351.5 c 128,-1,41
 445 324 445 324 470.5 286 c 128,-1,42
 496 248 496 248 496 191 c 0,43,44
 496 104 496 104 439.5 51 c 128,-1,45
 383 -2 383 -2 281 -10 c 1,46,-1
 255 -77 l 1,47,48
 316 -78 316 -78 345.5 -100 c 128,-1,49
 375 -122 375 -122 375 -158 c 0,50,51
 375 -189 375 -189 357 -211 c 128,-1,52
 339 -233 339 -233 312 -248.5 c 128,-1,53
 285 -264 285 -264 252 -271.5 c 128,-1,54
 219 -279 219 -279 189 -279 c 1,55,-1
 189 -245 l 1,56,57
 230 -239 230 -239 258 -222.5 c 128,-1,58
 286 -206 286 -206 285 -176 c 0,59,60
 284 -147 284 -147 261.5 -134.5 c 128,-1,61
 239 -122 239 -122 193 -119 c 1,62,-1
 228 -12 l 1,63,64
 170 -10 170 -10 125 4.5 c 128,-1,65
 80 19 80 19 59 36 c 1,66,67
 60 53 60 53 63 77.5 c 128,-1,68
 66 102 66 102 69.5 128.5 c 128,-1,69
 73 155 73 155 77 179.5 c 128,-1,70
 81 204 81 204 85 221 c 1,71,-1
 112 221 l 1,72,-1
 154 71 l 1,0,1
EndSplineSet
Validated: 33
Substitution2: "'locl' Localized Forms in Latin lookup 4 subtable" Scommaaccent
Substitution2: "'locl' Localized Forms in Latin lookup 3 subtable" Scommaaccent
Substitution2: "'aalt' Access All Alternates lookup 0 subtable" Scommaaccent
Position2: "'cpsp' Capital Spacing lookup 0 subtable" dx=41 dy=0 dh=82 dv=0
EndChar

StartChar: scedilla
Encoding: 351 351 269
Width: 462
Flags: W
LayerCount: 2
Fore
SplineSet
322 117 m 0,0,1
 322 151 322 151 302.5 171 c 128,-1,2
 283 191 283 191 253 206.5 c 128,-1,3
 223 222 223 222 189.5 236 c 128,-1,4
 156 250 156 250 126 270 c 128,-1,5
 96 290 96 290 76.5 319.5 c 128,-1,6
 57 349 57 349 57 396 c 0,7,8
 57 424 57 424 69.5 447.5 c 128,-1,9
 82 471 82 471 104 488 c 128,-1,10
 126 505 126 505 157 514.5 c 128,-1,11
 188 524 188 524 226 524 c 0,12,13
 281 524 281 524 321 518 c 128,-1,14
 361 512 361 512 394 501 c 1,15,16
 390 468 390 468 384.5 434.5 c 128,-1,17
 379 401 379 401 369 367 c 1,18,-1
 343 367 l 1,19,-1
 304 471 l 1,20,21
 292 476 292 476 271.5 477.5 c 128,-1,22
 251 479 251 479 234 479 c 0,23,24
 190 479 190 479 170 455.5 c 128,-1,25
 150 432 150 432 150 406 c 0,26,27
 150 375 150 375 169 355.5 c 128,-1,28
 188 336 188 336 218 320.5 c 128,-1,29
 248 305 248 305 281.5 291.5 c 128,-1,30
 315 278 315 278 345 258.5 c 128,-1,31
 375 239 375 239 394.5 211 c 128,-1,32
 414 183 414 183 414 141 c 0,33,34
 414 72 414 72 363.5 32 c 128,-1,35
 313 -8 313 -8 228 -11 c 1,36,-1
 207 -70 l 1,37,38
 263 -72 263 -72 288 -91 c 128,-1,39
 313 -110 313 -110 315 -142 c 0,40,41
 316 -172 316 -172 300.5 -194 c 128,-1,42
 285 -216 285 -216 260.5 -230.5 c 128,-1,43
 236 -245 236 -245 206 -251.5 c 128,-1,44
 176 -258 176 -258 148 -257 c 1,45,-1
 148 -226 l 1,46,47
 187 -221 187 -221 210.5 -205.5 c 128,-1,48
 234 -190 234 -190 233 -159 c 0,49,50
 232 -133 232 -133 211.5 -122 c 128,-1,51
 191 -111 191 -111 150 -108 c 1,52,-1
 183 -11 l 1,53,54
 111 -6 111 -6 47 17 c 1,55,56
 49 54 49 54 56 88.5 c 128,-1,57
 63 123 63 123 75 155 c 1,58,-1
 100 155 l 1,59,-1
 145 43 l 1,60,61
 156 35 156 35 177 33.5 c 128,-1,62
 198 32 198 32 212 32 c 0,63,64
 262 32 262 32 292 57 c 128,-1,65
 322 82 322 82 322 117 c 0,0,1
EndSplineSet
Validated: 33
Substitution2: "'locl' Localized Forms in Latin lookup 4 subtable" scommaaccent
Substitution2: "'locl' Localized Forms in Latin lookup 3 subtable" scommaaccent
Substitution2: "'aalt' Access All Alternates lookup 0 subtable" scommaaccent
EndChar

StartChar: Tcedilla
Encoding: 354 354 272
Width: 633
Flags: W
LayerCount: 2
Fore
SplineSet
461 0 m 1,0,-1
 338 0 l 1,1,-1
 308 -77 l 1,2,3
 369 -78 369 -78 398.5 -100 c 128,-1,4
 428 -122 428 -122 428 -158 c 0,5,6
 428 -189 428 -189 410 -211 c 128,-1,7
 392 -233 392 -233 365 -248.5 c 128,-1,8
 338 -264 338 -264 305 -271.5 c 128,-1,9
 272 -279 272 -279 243 -279 c 1,10,-1
 243 -245 l 1,11,12
 284 -239 284 -239 311.5 -222.5 c 128,-1,13
 339 -206 339 -206 338 -176 c 0,14,15
 337 -147 337 -147 314.5 -134.5 c 128,-1,16
 292 -122 292 -122 246 -119 c 1,17,-1
 286 0 l 1,18,-1
 173 0 l 1,19,-1
 173 30 l 1,20,21
 196 38 196 38 219 44 c 128,-1,22
 242 50 242 50 268 54 c 1,23,-1
 268 664 l 1,24,-1
 112 664 l 1,25,-1
 57 517 l 1,26,-1
 32 517 l 1,27,28
 29 537 29 537 27 563.5 c 128,-1,29
 25 590 25 590 23.5 617 c 128,-1,30
 22 644 22 644 20.5 670 c 128,-1,31
 19 696 19 696 19 717 c 1,32,-1
 614 717 l 1,33,34
 614 697 614 697 613 671 c 128,-1,35
 612 645 612 645 610.5 618 c 128,-1,36
 609 591 609 591 607.5 565 c 128,-1,37
 606 539 606 539 603 517 c 1,38,-1
 577 517 l 1,39,-1
 523 664 l 1,40,-1
 367 664 l 1,41,-1
 367 54 l 1,42,43
 394 49 394 49 416.5 44 c 128,-1,44
 439 39 439 39 461 30 c 1,45,-1
 461 0 l 1,0,-1
EndSplineSet
Validated: 33
Substitution2: "'locl' Localized Forms in Latin lookup 4 subtable" Tcommaaccent
Substitution2: "'locl' Localized Forms in Latin lookup 3 subtable" Tcommaaccent
Substitution2: "'aalt' Access All Alternates lookup 0 subtable" Tcommaaccent
EndChar

StartChar: tcedilla
Encoding: 355 355 273
Width: 369
Flags: W
LayerCount: 2
Fore
SplineSet
15 487 m 1,0,1
 54 512 54 512 97 522 c 1,2,-1
 97 600 l 1,3,4
 110 611 110 611 133 624 c 128,-1,5
 156 637 156 637 176 637 c 2,6,-1
 189 637 l 1,7,-1
 189 512 l 1,8,-1
 333 512 l 1,9,-1
 333 461 l 1,10,-1
 189 461 l 1,11,-1
 189 164 l 2,12,13
 189 103 189 103 203.5 77 c 128,-1,14
 218 51 218 51 257 51 c 0,15,16
 277 51 277 51 304 53.5 c 128,-1,17
 331 56 331 56 350 63 c 1,18,-1
 357 48 l 1,19,20
 349 39 349 39 334 28.5 c 128,-1,21
 319 18 319 18 300 9 c 128,-1,22
 281 0 281 0 258.5 -6 c 128,-1,23
 236 -12 236 -12 212 -12 c 1,24,-1
 190 -70 l 1,25,26
 246 -72 246 -72 271.5 -91 c 128,-1,27
 297 -110 297 -110 299 -142 c 0,28,29
 300 -172 300 -172 284 -194 c 128,-1,30
 268 -216 268 -216 243.5 -230.5 c 128,-1,31
 219 -245 219 -245 189.5 -251.5 c 128,-1,32
 160 -258 160 -258 132 -257 c 1,33,-1
 132 -226 l 1,34,35
 171 -221 171 -221 194.5 -205.5 c 128,-1,36
 218 -190 218 -190 217 -159 c 0,37,38
 216 -133 216 -133 195.5 -122 c 128,-1,39
 175 -111 175 -111 133 -108 c 1,40,-1
 168 -6 l 1,41,42
 130 5 130 5 113.5 39.5 c 128,-1,43
 97 74 97 74 97 135 c 2,44,-1
 97 461 l 1,45,-1
 15 461 l 1,46,-1
 15 487 l 1,0,1
EndSplineSet
Validated: 33
Substitution2: "'locl' Localized Forms in Latin lookup 4 subtable" tcommaaccent
Substitution2: "'locl' Localized Forms in Latin lookup 3 subtable" tcommaaccent
Substitution2: "'aalt' Access All Alternates lookup 0 subtable" tcommaaccent
EndChar

StartChar: Uogonek
Encoding: 370 370 284
Width: 688
Flags: W
LayerCount: 2
Fore
SplineSet
10 717 m 1,0,-1
 270 717 l 1,1,-1
 270 687 l 1,2,3
 251 679 251 679 231.5 673 c 128,-1,4
 212 667 212 667 193 662 c 1,5,-1
 193 243 l 2,6,7
 193 189 193 189 204.5 152.5 c 128,-1,8
 216 116 216 116 238.5 94 c 128,-1,9
 261 72 261 72 294.5 62 c 128,-1,10
 328 52 328 52 370 52 c 0,11,12
 451 52 451 52 496 96.5 c 128,-1,13
 541 141 541 141 541 244 c 2,14,-1
 541 652 l 1,15,16
 517 660 517 660 496.5 669 c 128,-1,17
 476 678 476 678 460 687 c 1,18,-1
 460 717 l 1,19,-1
 678 717 l 1,20,-1
 678 687 l 1,21,22
 659 676 659 676 638.5 666.5 c 128,-1,23
 618 657 618 657 598 652 c 1,24,-1
 598 242 l 2,25,26
 598 147 598 147 563 90 c 128,-1,27
 528 33 528 33 466 8 c 1,28,29
 441 -4 441 -4 419.5 -19.5 c 128,-1,30
 398 -35 398 -35 382.5 -53.5 c 128,-1,31
 367 -72 367 -72 357 -93 c 128,-1,32
 347 -114 347 -114 347 -138 c 0,33,34
 347 -167 347 -167 365 -185.5 c 128,-1,35
 383 -204 383 -204 416 -204 c 0,36,37
 448 -204 448 -204 472 -198 c 1,38,-1
 472 -227 l 1,39,40
 458 -238 458 -238 435.5 -247.5 c 128,-1,41
 413 -257 413 -257 379 -257 c 0,42,43
 355 -257 355 -257 334 -250 c 128,-1,44
 313 -243 313 -243 297.5 -229.5 c 128,-1,45
 282 -216 282 -216 272.5 -197 c 128,-1,46
 263 -178 263 -178 263 -156 c 0,47,48
 263 -107 263 -107 295 -72.5 c 128,-1,49
 327 -38 327 -38 379 -8 c 1,50,51
 374 -9 374 -9 368 -9 c 128,-1,52
 362 -9 362 -9 357 -9 c 0,53,54
 229 -9 229 -9 161.5 48.5 c 128,-1,55
 94 106 94 106 94 226 c 2,56,-1
 94 662 l 1,57,58
 52 668 52 668 10 687 c 1,59,-1
 10 717 l 1,0,-1
EndSplineSet
Validated: 1
Position2: "'cpsp' Capital Spacing lookup 0 subtable" dx=41 dy=0 dh=82 dv=0
EndChar

StartChar: uogonek
Encoding: 371 371 285
Width: 587
Flags: W
LayerCount: 2
Fore
SplineSet
79 203 m 0,0,1
 79 268 79 268 82 329.5 c 128,-1,2
 85 391 85 391 85 453 c 1,3,-1
 17 461 l 1,4,-1
 17 487 l 1,5,6
 50 499 50 499 90.5 511.5 c 128,-1,7
 131 524 131 524 164 524 c 2,8,-1
 177 524 l 1,9,10
 177 447 177 447 174 371.5 c 128,-1,11
 171 296 171 296 171 221 c 0,12,13
 171 181 171 181 175.5 149.5 c 128,-1,14
 180 118 180 118 192 96.5 c 128,-1,15
 204 75 204 75 224.5 63 c 128,-1,16
 245 51 245 51 276 51 c 0,17,18
 322 51 322 51 353.5 84.5 c 128,-1,19
 385 118 385 118 402 171 c 1,20,-1
 402 453 l 1,21,-1
 336 461 l 1,22,-1
 336 487 l 1,23,24
 368 499 368 499 402 508.5 c 128,-1,25
 436 518 436 518 469 524 c 1,26,-1
 495 524 l 1,27,-1
 495 58 l 1,28,-1
 562 50 l 1,29,-1
 562 29 l 1,30,31
 550 24 550 24 538 18.5 c 128,-1,32
 526 13 526 13 514 8 c 1,33,34
 473 -15 473 -15 446.5 -46.5 c 128,-1,35
 420 -78 420 -78 420 -121 c 0,36,37
 420 -131 420 -131 423.5 -142 c 128,-1,38
 427 -153 427 -153 434 -162 c 128,-1,39
 441 -171 441 -171 452.5 -176.5 c 128,-1,40
 464 -182 464 -182 479 -182 c 256,41,42
 494 -182 494 -182 507 -179.5 c 128,-1,43
 520 -177 520 -177 535 -173 c 1,44,-1
 535 -207 l 1,45,46
 521 -215 521 -215 498 -221 c 128,-1,47
 475 -227 475 -227 457 -227 c 0,48,49
 397 -227 397 -227 366 -201.5 c 128,-1,50
 335 -176 335 -176 335 -137 c 0,51,52
 335 -96 335 -96 361 -65 c 128,-1,53
 387 -34 387 -34 430 -10 c 1,54,-1
 422 -10 l 1,55,-1
 414 -10 l 1,56,-1
 407 112 l 1,57,-1
 402 112 l 1,58,59
 397 90 397 90 384.5 68.5 c 128,-1,60
 372 47 372 47 352 29 c 128,-1,61
 332 11 332 11 306.5 -0.5 c 128,-1,62
 281 -12 281 -12 250 -12 c 0,63,64
 240 -12 240 -12 230 -12 c 128,-1,65
 220 -12 220 -12 211 -10 c 0,66,67
 178 -6 178 -6 153.5 6.5 c 128,-1,68
 129 19 129 19 112.5 44.5 c 128,-1,69
 96 70 96 70 87.5 109 c 128,-1,70
 79 148 79 148 79 203 c 0,0,1
EndSplineSet
Validated: 1
EndChar

StartChar: longs
Encoding: 383 383 293
Width: 350
Flags: W
LayerCount: 2
Fore
SplineSet
313 770 m 0,0,1
 322 770 322 770 334.5 769 c 128,-1,2
 347 768 347 768 360.5 766.5 c 128,-1,3
 374 765 374 765 386 762.5 c 128,-1,4
 398 760 398 760 408 757 c 1,5,6
 405 723 405 723 399 694 c 128,-1,7
 393 665 393 665 385 641 c 1,8,-1
 359 641 l 1,9,-1
 314 729 l 1,10,11
 284 729 284 729 263.5 723 c 128,-1,12
 243 717 243 717 229 699.5 c 128,-1,13
 215 682 215 682 208.5 649 c 128,-1,14
 202 616 202 616 202 563 c 2,15,-1
 202 50 l 1,16,17
 255 44 255 44 300 26 c 1,18,-1
 300 0 l 1,19,-1
 42 0 l 1,20,-1
 42 26 l 1,21,22
 74 44 74 44 110 50 c 1,23,-1
 110 461 l 1,24,-1
 32 461 l 1,25,-1
 32 487 l 1,26,27
 68 510 68 510 110 521 c 1,28,-1
 110 557 l 2,29,30
 110 620 110 620 125 661.5 c 128,-1,31
 140 703 140 703 168 727.5 c 128,-1,32
 196 752 196 752 233 761 c 128,-1,33
 270 770 270 770 313 770 c 0,0,1
EndSplineSet
Validated: 1
EndChar

StartChar: florin
Encoding: 402 402 294
Width: 545
Flags: W
LayerCount: 2
Fore
SplineSet
201 461 m 1,0,-1
 126 461 l 1,1,-1
 126 487 l 1,2,3
 146 498 146 498 169.5 507 c 128,-1,4
 193 516 193 516 213 521 c 1,5,-1
 220 557 l 2,6,7
 233 620 233 620 256.5 661.5 c 128,-1,8
 280 703 280 703 310.5 727.5 c 128,-1,9
 341 752 341 752 378 761 c 128,-1,10
 415 770 415 770 457 770 c 0,11,12
 473 770 473 770 497 766 c 128,-1,13
 521 762 521 762 538 754 c 1,14,15
 537 731 537 731 528 707 c 128,-1,16
 519 683 519 683 499 666 c 1,17,-1
 421 729 l 1,18,19
 403 724 403 724 387 718 c 128,-1,20
 371 712 371 712 357 695 c 128,-1,21
 343 678 343 678 331 647 c 128,-1,22
 319 616 319 616 308 563 c 2,23,-1
 298 512 l 1,24,-1
 412 512 l 1,25,26
 417 486 417 486 400 461 c 1,27,-1
 287 461 l 1,28,-1
 222 44 l 2,29,30
 211 -29 211 -29 184.5 -77 c 128,-1,31
 158 -125 158 -125 128 -154.5 c 128,-1,32
 98 -184 98 -184 69.5 -198.5 c 128,-1,33
 41 -213 41 -213 25 -217 c 1,34,-1
 17 -198 l 1,35,36
 29 -192 29 -192 46 -175.5 c 128,-1,37
 63 -159 63 -159 80 -131.5 c 128,-1,38
 97 -104 97 -104 112 -65.5 c 128,-1,39
 127 -27 127 -27 135 25 c 2,40,-1
 201 461 l 1,0,-1
EndSplineSet
Validated: 33
EndChar

StartChar: uni0237
Encoding: 567 567 301
Width: 294
Flags: W
LayerCount: 2
Fore
SplineSet
109 453 m 1,0,-1
 41 461 l 1,1,-1
 41 487 l 1,2,3
 71 501 71 501 106 510 c 128,-1,4
 141 519 141 519 175 524 c 1,5,-1
 201 524 l 1,6,-1
 201 44 l 2,7,8
 201 -29 201 -29 182.5 -77 c 128,-1,9
 164 -125 164 -125 139.5 -154.5 c 128,-1,10
 115 -184 115 -184 89 -198.5 c 128,-1,11
 63 -213 63 -213 48 -217 c 1,12,-1
 36 -198 l 1,13,14
 48 -192 48 -192 61 -176.5 c 128,-1,15
 74 -161 74 -161 84.5 -133.5 c 128,-1,16
 95 -106 95 -106 102 -67.5 c 128,-1,17
 109 -29 109 -29 109 25 c 2,18,-1
 109 453 l 1,0,-1
EndSplineSet
Validated: 1
EndChar

StartChar: circumflex
Encoding: 710 710 303
Width: 377
Flags: W
LayerCount: 2
Fore
SplineSet
91 604 m 1,0,-1
 61 621 l 1,1,-1
 174 811 l 1,2,3
 179 814 179 814 187 814.5 c 128,-1,4
 195 815 195 815 200 811 c 1,5,-1
 316 622 l 1,6,-1
 289 604 l 1,7,-1
 183 714 l 1,8,-1
 91 604 l 1,0,-1
EndSplineSet
Validated: 1
EndChar

StartChar: caron
Encoding: 711 711 304
Width: 399
Flags: W
LayerCount: 2
Fore
SplineSet
308 815 m 1,0,1
 317 816 317 816 326 811 c 128,-1,2
 335 806 335 806 338 799 c 1,3,-1
 211 609 l 1,4,5
 206 607 206 607 198.5 606.5 c 128,-1,6
 191 606 191 606 185 609 c 1,7,-1
 61 798 l 1,8,9
 65 806 65 806 75.5 811 c 128,-1,10
 86 816 86 816 96 815 c 1,11,-1
 206 707 l 1,12,-1
 308 815 l 1,0,1
EndSplineSet
Validated: 1
Substitution2: "'aalt' Access All Alternates lookup 0 subtable" caron.l
EndChar

StartChar: breve
Encoding: 728 728 305
Width: 401
Flags: W
LayerCount: 2
Fore
SplineSet
340 736 m 1,0,1
 331 713 331 713 318 691 c 128,-1,2
 305 669 305 669 287.5 651.5 c 128,-1,3
 270 634 270 634 249 622.5 c 128,-1,4
 228 611 228 611 203 611 c 0,5,6
 175 611 175 611 153.5 621 c 128,-1,7
 132 631 132 631 114.5 648 c 128,-1,8
 97 665 97 665 84 688 c 128,-1,9
 71 711 71 711 61 738 c 1,10,-1
 90 752 l 1,11,12
 97 739 97 739 110 727 c 128,-1,13
 123 715 123 715 138.5 705.5 c 128,-1,14
 154 696 154 696 171 690.5 c 128,-1,15
 188 685 188 685 204 685 c 0,16,17
 274 683 274 683 315 748 c 1,18,-1
 340 736 l 1,0,1
EndSplineSet
Validated: 33
EndChar

StartChar: dotaccent
Encoding: 729 729 306
Width: 252
Flags: W
LayerCount: 2
Fore
SplineSet
61 686 m 256,0,1
 61 714 61 714 79 730 c 128,-1,2
 97 746 97 746 127 746 c 256,3,4
 157 746 157 746 174 730 c 128,-1,5
 191 714 191 714 191 686 c 256,6,7
 191 658 191 658 174 642.5 c 128,-1,8
 157 627 157 627 127 627 c 256,9,10
 97 627 97 627 79 642.5 c 128,-1,11
 61 658 61 658 61 686 c 256,0,1
EndSplineSet
Validated: 1
EndChar

StartChar: ring
Encoding: 730 730 307
Width: 321
Flags: W
LayerCount: 2
Fore
SplineSet
61 699 m 0,0,1
 61 741 61 741 90.5 770 c 128,-1,2
 120 799 120 799 164 799 c 0,3,4
 204 799 204 799 232 773.5 c 128,-1,5
 260 748 260 748 260 702 c 0,6,7
 260 680 260 680 252 663 c 128,-1,8
 244 646 244 646 230.5 634 c 128,-1,9
 217 622 217 622 199 614.5 c 128,-1,10
 181 607 181 607 163 607 c 0,11,12
 117 607 117 607 89 631.5 c 128,-1,13
 61 656 61 656 61 699 c 0,0,1
115 701 m 0,14,15
 115 674 115 674 128.5 661.5 c 128,-1,16
 142 649 142 649 160 649 c 0,17,18
 180 649 180 649 193 661 c 128,-1,19
 206 673 206 673 206 698 c 0,20,21
 206 726 206 726 193.5 741.5 c 128,-1,22
 181 757 181 757 161 757 c 0,23,24
 136 757 136 757 125.5 741.5 c 128,-1,25
 115 726 115 726 115 701 c 0,14,15
EndSplineSet
Validated: 1
EndChar

StartChar: ogonek
Encoding: 731 731 308
Width: 325
Flags: W
LayerCount: 2
Fore
SplineSet
264 20 m 1,0,1
 239 9 239 9 218.5 -5 c 128,-1,2
 198 -19 198 -19 182 -37 c 128,-1,3
 166 -55 166 -55 156.5 -75.5 c 128,-1,4
 147 -96 147 -96 147 -121 c 0,5,6
 147 -131 147 -131 150.5 -142 c 128,-1,7
 154 -153 154 -153 161 -162 c 128,-1,8
 168 -171 168 -171 179 -176.5 c 128,-1,9
 190 -182 190 -182 207 -182 c 0,10,11
 221 -182 221 -182 234 -179.5 c 128,-1,12
 247 -177 247 -177 261 -173 c 1,13,-1
 261 -207 l 1,14,15
 247 -215 247 -215 225 -221 c 128,-1,16
 203 -227 203 -227 184 -227 c 0,17,18
 123 -227 123 -227 92 -201.5 c 128,-1,19
 61 -176 61 -176 61 -137 c 0,20,21
 61 -109 61 -109 74 -85.5 c 128,-1,22
 87 -62 87 -62 109.5 -43 c 128,-1,23
 132 -24 132 -24 162.5 -8 c 128,-1,24
 193 8 193 8 226 20 c 1,25,-1
 264 20 l 1,0,1
EndSplineSet
Validated: 1
EndChar

StartChar: tilde
Encoding: 732 732 309
Width: 437
Flags: W
LayerCount: 2
Fore
SplineSet
376 688 m 5,0,1
 343 655 343 655 316 642.5 c 132,-1,2
 289 630 289 630 265 630 c 4,3,4
 247 630 247 630 230.5 635.5 c 132,-1,5
 214 641 214 641 198.5 647 c 132,-1,6
 183 653 183 653 168.5 659 c 132,-1,7
 154 665 154 665 138 665 c 4,8,9
 125 665 125 665 111 659.5 c 132,-1,10
 97 654 97 654 81 640 c 5,11,-1
 61 669 l 5,12,13
 99 705 99 705 129 717 c 132,-1,14
 159 729 159 729 182 729 c 4,15,16
 200 729 200 729 216 724 c 132,-1,17
 232 719 232 719 246.5 713 c 132,-1,18
 261 707 261 707 276 701.5 c 132,-1,19
 291 696 291 696 306 696 c 4,20,21
 319 696 319 696 332.5 701 c 132,-1,22
 346 706 346 706 362 717 c 5,23,-1
 376 688 l 5,0,1
EndSplineSet
Validated: 1
EndChar

StartChar: hungarumlaut
Encoding: 733 733 310
Width: 465
Flags: W
LayerCount: 2
Fore
SplineSet
140 786 m 1,0,1
 146 787 146 787 159.5 785.5 c 128,-1,2
 173 784 173 784 187 781 c 128,-1,3
 201 778 201 778 212 773.5 c 128,-1,4
 223 769 223 769 226 765 c 1,5,-1
 226 750 l 1,6,-1
 85 612 l 1,7,-1
 61 629 l 1,8,-1
 140 786 l 1,0,1
317 786 m 1,9,10
 324 787 324 787 337 785.5 c 128,-1,11
 350 784 350 784 363 780 c 128,-1,12
 376 776 376 776 387.5 770.5 c 128,-1,13
 399 765 399 765 404 758 c 1,14,-1
 404 744 l 1,15,-1
 201 612 l 1,16,-1
 181 631 l 1,17,-1
 317 786 l 1,9,10
EndSplineSet
Validated: 1
EndChar

StartChar: uni0394
Encoding: 916 916 312
AltUni2: 002206.ffffffff.0
Width: 663
Flags: W
LayerCount: 2
Fore
SplineSet
20 0 m 1,0,-1
 20 32 l 1,1,-1
 321 717 l 1,2,-1
 349 717 l 1,3,-1
 643 32 l 1,4,-1
 643 0 l 1,5,-1
 20 0 l 1,0,-1
313 577 m 1,6,-1
 93 62 l 1,7,-1
 524 62 l 1,8,-1
 313 577 l 1,6,-1
EndSplineSet
Validated: 1
EndChar

StartChar: uni03A9
Encoding: 937 937 313
AltUni2: 002126.ffffffff.0
Width: 816
Flags: W
LayerCount: 2
Fore
SplineSet
58 0 m 1,0,1
 58 18 58 18 59 43.5 c 128,-1,2
 60 69 60 69 61.5 96 c 128,-1,3
 63 123 63 123 65.5 149.5 c 128,-1,4
 68 176 68 176 70 199 c 1,5,-1
 95 199 l 1,6,-1
 140 78 l 1,7,-1
 303 78 l 1,8,9
 258 94 258 94 217 122.5 c 128,-1,10
 176 151 176 151 145 189.5 c 128,-1,11
 114 228 114 228 95.5 278 c 128,-1,12
 77 328 77 328 77 386 c 0,13,14
 77 464 77 464 100.5 527 c 128,-1,15
 124 590 124 590 168 635 c 128,-1,16
 212 680 212 680 275 704.5 c 128,-1,17
 338 729 338 729 416 729 c 0,18,19
 496 729 496 729 556 705.5 c 128,-1,20
 616 682 616 682 657.5 638 c 128,-1,21
 699 594 699 594 720 532.5 c 128,-1,22
 741 471 741 471 741 396 c 0,23,24
 741 333 741 333 721 280.5 c 128,-1,25
 701 228 701 228 669.5 187.5 c 128,-1,26
 638 147 638 147 599 119.5 c 128,-1,27
 560 92 560 92 522 78 c 1,28,-1
 675 78 l 1,29,-1
 721 199 l 1,30,-1
 746 199 l 1,31,32
 748 176 748 176 750.5 149.5 c 128,-1,33
 753 123 753 123 754.5 96 c 128,-1,34
 756 69 756 69 757 43.5 c 128,-1,35
 758 18 758 18 758 0 c 1,36,-1
 469 0 l 1,37,-1
 469 85 l 1,38,39
 494 95 494 95 522.5 119.5 c 128,-1,40
 551 144 551 144 575.5 182 c 128,-1,41
 600 220 600 220 616.5 271 c 128,-1,42
 633 322 633 322 633 385 c 0,43,44
 633 444 633 444 619.5 497.5 c 128,-1,45
 606 551 606 551 579 590.5 c 128,-1,46
 552 630 552 630 511.5 653 c 128,-1,47
 471 676 471 676 416 676 c 0,48,49
 355 676 355 676 310.5 653.5 c 128,-1,50
 266 631 266 631 238.5 592.5 c 128,-1,51
 211 554 211 554 198 503.5 c 128,-1,52
 185 453 185 453 185 396 c 0,53,54
 185 333 185 333 202.5 280 c 128,-1,55
 220 227 220 227 246 186.5 c 128,-1,56
 272 146 272 146 302.5 120 c 128,-1,57
 333 94 333 94 357 85 c 1,58,-1
 357 0 l 1,59,-1
 58 0 l 1,0,1
EndSplineSet
Validated: 1
EndChar

StartChar: pi
Encoding: 960 960 314
Width: 629
Flags: W
LayerCount: 2
Fore
SplineSet
569 51 m 1,0,-1
 569 30 l 1,1,2
 539 17 539 17 500.5 6.5 c 128,-1,3
 462 -4 462 -4 429 -9 c 1,4,-1
 403 -9 l 1,5,-1
 403 447 l 1,6,-1
 208 447 l 1,7,-1
 208 253 l 2,8,9
 208 220 208 220 205.5 185.5 c 128,-1,10
 203 151 203 151 197 117.5 c 128,-1,11
 191 84 191 84 183.5 54 c 128,-1,12
 176 24 176 24 167 0 c 1,13,14
 158 -5 158 -5 140.5 -5.5 c 128,-1,15
 123 -6 123 -6 106.5 -5.5 c 128,-1,16
 90 -5 90 -5 78 -3 c 128,-1,17
 66 -1 66 -1 66 0 c 2,18,-1
 60 8 l 1,19,20
 83 43 83 43 101.5 97.5 c 128,-1,21
 120 152 120 152 132.5 213 c 128,-1,22
 145 274 145 274 152 336 c 128,-1,23
 159 398 159 398 159 447 c 1,24,-1
 141 447 l 2,25,26
 112 447 112 447 85.5 432.5 c 128,-1,27
 59 418 59 418 36 387 c 1,28,-1
 23 395 l 1,29,30
 28 421 28 421 36 443.5 c 128,-1,31
 44 466 44 466 60 483 c 128,-1,32
 76 500 76 500 102 509.5 c 128,-1,33
 128 519 128 519 169 518 c 0,34,35
 180 518 180 518 210.5 517 c 128,-1,36
 241 516 241 516 281.5 515 c 128,-1,37
 322 514 322 514 368 513 c 128,-1,38
 414 512 414 512 456 512 c 0,39,40
 489 512 489 512 510.5 512.5 c 128,-1,41
 532 513 532 513 547 516 c 128,-1,42
 562 519 562 519 572.5 524 c 128,-1,43
 583 529 583 529 593 539 c 1,44,-1
 607 529 l 1,45,46
 603 496 603 496 580.5 471.5 c 128,-1,47
 558 447 558 447 514 447 c 2,48,-1
 502 447 l 1,49,-1
 502 59 l 1,50,-1
 569 51 l 1,0,-1
EndSplineSet
Validated: 33
EndChar

StartChar: afii10051
Encoding: 1026 1026 316
Width: 769
Flags: W
LayerCount: 2
Fore
SplineSet
729 244 m 0,0,1
 729 167 729 167 713 119 c 128,-1,2
 697 71 697 71 669.5 43.5 c 128,-1,3
 642 16 642 16 603.5 6.5 c 128,-1,4
 565 -3 565 -3 519 -3 c 1,5,-1
 513 25 l 1,6,7
 540 31 540 31 561.5 42 c 128,-1,8
 583 53 583 53 598 76 c 128,-1,9
 613 99 613 99 622 137 c 128,-1,10
 631 175 631 175 631 234 c 0,11,12
 631 306 631 306 602 348.5 c 128,-1,13
 573 391 573 391 506 391 c 0,14,15
 463 391 463 391 424 378.5 c 128,-1,16
 385 366 385 366 356 348 c 1,17,-1
 356 54 l 1,18,19
 375 49 375 49 393.5 43 c 128,-1,20
 412 37 412 37 429 30 c 1,21,-1
 429 0 l 1,22,-1
 164 0 l 1,23,-1
 164 30 l 1,24,25
 186 38 186 38 208.5 44 c 128,-1,26
 231 50 231 50 258 54 c 1,27,-1
 258 664 l 1,28,-1
 101 664 l 1,29,-1
 48 517 l 1,30,-1
 22 517 l 1,31,32
 19 537 19 537 17 563.5 c 128,-1,33
 15 590 15 590 13.5 617 c 128,-1,34
 12 644 12 644 11 670 c 128,-1,35
 10 696 10 696 10 717 c 1,36,-1
 604 717 l 1,37,38
 604 697 604 697 603 671.5 c 128,-1,39
 602 646 602 646 600.5 619.5 c 128,-1,40
 599 593 599 593 597.5 567.5 c 128,-1,41
 596 542 596 542 593 520 c 1,42,-1
 566 520 l 1,43,-1
 513 664 l 1,44,-1
 356 664 l 1,45,-1
 356 398 l 1,46,47
 384 413 384 413 430 428.5 c 128,-1,48
 476 444 476 444 535 444 c 0,49,50
 578 444 578 444 613 435.5 c 128,-1,51
 648 427 648 427 674 405 c 128,-1,52
 700 383 700 383 714.5 344 c 128,-1,53
 729 305 729 305 729 244 c 0,0,1
EndSplineSet
Validated: 1
Position2: "'cpsp' Capital Spacing lookup 0 subtable" dx=41 dy=0 dh=82 dv=0
EndChar

StartChar: afii10053
Encoding: 1028 1028 318
Width: 658
Flags: W
LayerCount: 2
Fore
SplineSet
560 186 m 1,0,-1
 587 186 l 1,1,2
 592 157 592 157 596 114 c 128,-1,3
 600 71 600 71 598 30 c 1,4,5
 583 18 583 18 561.5 10 c 128,-1,6
 540 2 540 2 516 -3 c 128,-1,7
 492 -8 492 -8 466.5 -10 c 128,-1,8
 441 -12 441 -12 419 -12 c 0,9,10
 333 -12 333 -12 265.5 10 c 128,-1,11
 198 32 198 32 151 77 c 128,-1,12
 104 122 104 122 79 192 c 128,-1,13
 54 262 54 262 54 358 c 0,14,15
 54 458 54 458 82 528.5 c 128,-1,16
 110 599 110 599 157 643.5 c 128,-1,17
 204 688 204 688 266.5 708.5 c 128,-1,18
 329 729 329 729 397 729 c 256,19,20
 465 729 465 729 511 720.5 c 128,-1,21
 557 712 557 712 592 694 c 1,22,23
 592 678 592 678 591 656 c 128,-1,24
 590 634 590 634 588 609.5 c 128,-1,25
 586 585 586 585 583 561.5 c 128,-1,26
 580 538 580 538 577 518 c 1,27,-1
 550 518 l 1,28,-1
 497 666 l 1,29,30
 486 672 486 672 459.5 674 c 128,-1,31
 433 676 433 676 408 676 c 0,32,33
 359 676 359 676 314.5 658 c 128,-1,34
 270 640 270 640 236 604 c 128,-1,35
 202 568 202 568 180.5 513.5 c 128,-1,36
 159 459 159 459 156 384 c 1,37,-1
 492 398 l 1,38,39
 505 357 505 357 496 318 c 1,40,41
 460 321 460 321 416.5 324 c 128,-1,42
 373 327 373 327 327.5 329.5 c 128,-1,43
 282 332 282 332 238 333.5 c 128,-1,44
 194 335 194 335 156 335 c 1,45,46
 159 267 159 267 179 213 c 128,-1,47
 199 159 199 159 233 120.5 c 128,-1,48
 267 82 267 82 316 61.5 c 128,-1,49
 365 41 365 41 426 41 c 0,50,51
 460 41 460 41 482.5 46 c 128,-1,52
 505 51 505 51 512 59 c 1,53,-1
 560 186 l 1,0,-1
EndSplineSet
Validated: 33
Position2: "'cpsp' Capital Spacing lookup 0 subtable" dx=41 dy=0 dh=82 dv=0
EndChar

StartChar: afii10056
Encoding: 1031 1031 321
Width: 360
Flags: W
LayerCount: 2
Fore
SplineSet
33 808 m 0,0,1
 33 833 33 833 49 845 c 128,-1,2
 65 857 65 857 90 857 c 256,3,4
 115 857 115 857 131 845 c 128,-1,5
 147 833 147 833 147 808 c 0,6,7
 147 784 147 784 131 772 c 128,-1,8
 115 760 115 760 90 760 c 0,9,10
 64 760 64 760 48.5 772 c 128,-1,11
 33 784 33 784 33 808 c 0,0,1
213 808 m 0,12,13
 213 833 213 833 229.5 845 c 128,-1,14
 246 857 246 857 270 857 c 0,15,16
 296 857 296 857 312 845 c 128,-1,17
 328 833 328 833 328 808 c 0,18,19
 328 784 328 784 312 772 c 128,-1,20
 296 760 296 760 270 760 c 0,21,22
 245 760 245 760 229 772 c 128,-1,23
 213 784 213 784 213 808 c 0,12,13
311 0 m 1,24,-1
 49 0 l 1,25,-1
 49 30 l 1,26,27
 89 48 89 48 131 54 c 1,28,-1
 131 662 l 1,29,30
 111 666 111 666 90.5 672.5 c 128,-1,31
 70 679 70 679 49 687 c 1,32,-1
 49 717 l 1,33,-1
 311 717 l 1,34,-1
 311 687 l 1,35,36
 293 679 293 679 271.5 672.5 c 128,-1,37
 250 666 250 666 229 662 c 1,38,-1
 229 54 l 1,39,40
 251 50 251 50 272.5 44 c 128,-1,41
 294 38 294 38 311 30 c 1,42,-1
 311 0 l 1,24,-1
EndSplineSet
Validated: 1
Position2: "'cpsp' Capital Spacing lookup 0 subtable" dx=41 dy=0 dh=82 dv=0
EndChar

StartChar: afii10058
Encoding: 1033 1033 323
Width: 943
Flags: W
LayerCount: 2
Fore
SplineSet
381 0 m 1,0,-1
 381 30 l 1,1,2
 420 48 420 48 459 54 c 1,3,-1
 459 664 l 1,4,-1
 267 664 l 1,5,6
 263 503 263 503 252.5 397 c 128,-1,7
 242 291 242 291 225.5 222 c 128,-1,8
 209 153 209 153 188 112 c 128,-1,9
 167 71 167 71 142 39 c 0,10,11
 122 12 122 12 92 0 c 128,-1,12
 62 -12 62 -12 35 -12 c 1,13,14
 28 -4 28 -4 20 11 c 128,-1,15
 12 26 12 26 5.5 42.5 c 128,-1,16
 -1 59 -1 59 -5 76 c 128,-1,17
 -9 93 -9 93 -10 106 c 1,18,-1
 5 132 l 1,19,-1
 123 111 l 1,20,21
 138 137 138 137 153 178.5 c 128,-1,22
 168 220 168 220 179.5 285 c 128,-1,23
 191 350 191 350 199 441 c 128,-1,24
 207 532 207 532 207 656 c 1,25,26
 144 666 144 666 102 687 c 1,27,-1
 102 717 l 1,28,-1
 647 717 l 1,29,-1
 647 687 l 1,30,31
 628 679 628 679 605.5 672.5 c 128,-1,32
 583 666 583 666 557 662 c 1,33,-1
 557 427 l 1,34,35
 575 429 575 429 602 431.5 c 128,-1,36
 629 434 629 434 649 434 c 0,37,38
 699 434 699 434 745.5 425 c 128,-1,39
 792 416 792 416 826.5 392.5 c 128,-1,40
 861 369 861 369 882 328 c 128,-1,41
 903 287 903 287 903 223 c 0,42,43
 903 163 903 163 879.5 120.5 c 128,-1,44
 856 78 856 78 818 50.5 c 128,-1,45
 780 23 780 23 732 10 c 128,-1,46
 684 -3 684 -3 635 -3 c 0,47,48
 630 -3 630 -3 615 -2.5 c 128,-1,49
 600 -2 600 -2 581.5 -1.5 c 128,-1,50
 563 -1 563 -1 542.5 -0.5 c 128,-1,51
 522 0 522 0 507 0 c 2,52,-1
 381 0 l 1,0,-1
627 381 m 0,53,54
 602 381 602 381 586.5 380.5 c 128,-1,55
 571 380 571 380 557 376 c 1,56,-1
 557 54 l 1,57,58
 562 52 562 52 572 51.5 c 128,-1,59
 582 51 582 51 592.5 50.5 c 128,-1,60
 603 50 603 50 613.5 50 c 128,-1,61
 624 50 624 50 630 50 c 0,62,63
 702 50 702 50 748 93 c 128,-1,64
 794 136 794 136 794 224 c 0,65,66
 794 301 794 301 752.5 341 c 128,-1,67
 711 381 711 381 627 381 c 0,53,54
EndSplineSet
Validated: 1
Position2: "'cpsp' Capital Spacing lookup 0 subtable" dx=41 dy=0 dh=82 dv=0
EndChar

StartChar: afii10059
Encoding: 1034 1034 324
Width: 1017
Flags: W
LayerCount: 2
Fore
SplineSet
457 0 m 1,0,-1
 457 30 l 1,1,2
 477 39 477 39 494.5 45 c 128,-1,3
 512 51 512 51 534 54 c 1,4,-1
 534 354 l 1,5,-1
 212 354 l 1,6,-1
 212 54 l 1,7,8
 232 50 232 50 251.5 44 c 128,-1,9
 271 38 271 38 289 30 c 1,10,-1
 289 0 l 1,11,-1
 30 0 l 1,12,-1
 30 30 l 1,13,14
 71 46 71 46 114 54 c 1,15,-1
 114 662 l 1,16,17
 66 669 66 669 30 687 c 1,18,-1
 30 717 l 1,19,-1
 289 717 l 1,20,-1
 289 687 l 1,21,22
 272 678 272 678 252 672 c 128,-1,23
 232 666 232 666 212 662 c 1,24,-1
 212 408 l 1,25,-1
 534 408 l 1,26,-1
 534 662 l 1,27,28
 514 667 514 667 495.5 673 c 128,-1,29
 477 679 477 679 457 687 c 1,30,-1
 457 717 l 1,31,-1
 722 717 l 1,32,-1
 722 687 l 1,33,34
 703 679 703 679 680 672.5 c 128,-1,35
 657 666 657 666 632 662 c 1,36,-1
 632 407 l 1,37,38
 650 410 650 410 676.5 412 c 128,-1,39
 703 414 703 414 724 414 c 0,40,41
 774 414 774 414 820 404.5 c 128,-1,42
 866 395 866 395 901 372 c 128,-1,43
 936 349 936 349 957 309.5 c 128,-1,44
 978 270 978 270 978 210 c 0,45,46
 978 151 978 151 955 110.5 c 128,-1,47
 932 70 932 70 894 44.5 c 128,-1,48
 856 19 856 19 808 8 c 128,-1,49
 760 -3 760 -3 710 -3 c 0,50,51
 705 -3 705 -3 690 -2.5 c 128,-1,52
 675 -2 675 -2 656.5 -1.5 c 128,-1,53
 638 -1 638 -1 617.5 -0.5 c 128,-1,54
 597 0 597 0 582 0 c 2,55,-1
 457 0 l 1,0,-1
702 359 m 0,56,57
 677 359 677 359 661.5 358.5 c 128,-1,58
 646 358 646 358 632 354 c 1,59,-1
 632 54 l 1,60,61
 637 52 637 52 646.5 51.5 c 128,-1,62
 656 51 656 51 667.5 50.5 c 128,-1,63
 679 50 679 50 689 50 c 128,-1,64
 699 50 699 50 705 50 c 0,65,66
 741 50 741 50 771 59.5 c 128,-1,67
 801 69 801 69 822.5 88.5 c 128,-1,68
 844 108 844 108 856 138 c 128,-1,69
 868 168 868 168 868 210 c 0,70,71
 868 281 868 281 826.5 320 c 128,-1,72
 785 359 785 359 702 359 c 0,56,57
EndSplineSet
Validated: 1
Position2: "'cpsp' Capital Spacing lookup 0 subtable" dx=41 dy=0 dh=82 dv=0
EndChar

StartChar: afii10060
Encoding: 1035 1035 325
Width: 793
Flags: W
LayerCount: 2
Fore
SplineSet
356 664 m 1,0,-1
 356 398 l 1,1,2
 384 413 384 413 425 428.5 c 128,-1,3
 466 444 466 444 524 444 c 0,4,5
 567 444 567 444 601.5 435.5 c 128,-1,6
 636 427 636 427 660 405.5 c 128,-1,7
 684 384 684 384 697 347 c 128,-1,8
 710 310 710 310 710 253 c 2,9,-1
 710 54 l 1,10,11
 747 48 747 48 783 30 c 1,12,-1
 783 0 l 1,13,-1
 611 0 l 1,14,-1
 611 234 l 2,15,16
 611 270 611 270 605.5 299 c 128,-1,17
 600 328 600 328 587 348.5 c 128,-1,18
 574 369 574 369 551.5 380 c 128,-1,19
 529 391 529 391 496 391 c 0,20,21
 453 391 453 391 419 378.5 c 128,-1,22
 385 366 385 366 356 348 c 1,23,-1
 356 54 l 1,24,25
 375 49 375 49 393.5 43 c 128,-1,26
 412 37 412 37 429 30 c 1,27,-1
 429 0 l 1,28,-1
 164 0 l 1,29,-1
 164 30 l 1,30,31
 186 38 186 38 208.5 44 c 128,-1,32
 231 50 231 50 258 54 c 1,33,-1
 258 664 l 1,34,-1
 101 664 l 1,35,-1
 48 517 l 1,36,-1
 22 517 l 1,37,38
 19 537 19 537 17 563.5 c 128,-1,39
 15 590 15 590 13.5 617 c 128,-1,40
 12 644 12 644 11 670 c 128,-1,41
 10 696 10 696 10 717 c 1,42,-1
 604 717 l 1,43,44
 604 697 604 697 603 671.5 c 128,-1,45
 602 646 602 646 600.5 619.5 c 128,-1,46
 599 593 599 593 597.5 567.5 c 128,-1,47
 596 542 596 542 593 521 c 1,48,-1
 566 521 l 1,49,-1
 513 664 l 1,50,-1
 356 664 l 1,0,-1
EndSplineSet
Validated: 1
Position2: "'cpsp' Capital Spacing lookup 0 subtable" dx=41 dy=0 dh=82 dv=0
EndChar

StartChar: afii10145
Encoding: 1039 1039 328
Width: 735
Flags: W
LayerCount: 2
Fore
SplineSet
289 687 m 1,0,1
 254 672 254 672 212 662 c 1,2,-1
 212 53 l 1,3,-1
 523 53 l 1,4,-1
 523 662 l 1,5,6
 468 674 468 674 446 687 c 1,7,-1
 446 717 l 1,8,-1
 706 717 l 1,9,-1
 706 687 l 1,10,11
 684 677 684 677 663 670.5 c 128,-1,12
 642 664 642 664 622 662 c 1,13,-1
 622 54 l 1,14,15
 644 50 644 50 665 45 c 128,-1,16
 686 40 686 40 706 30 c 1,17,-1
 706 0 l 1,18,-1
 416 0 l 1,19,20
 410 -48 410 -48 401 -96.5 c 128,-1,21
 392 -145 392 -145 381 -196 c 1,22,-1
 354 -196 l 1,23,24
 344 -146 344 -146 336 -97 c 128,-1,25
 328 -48 328 -48 319 0 c 1,26,-1
 30 0 l 1,27,-1
 30 30 l 1,28,29
 71 46 71 46 114 54 c 1,30,-1
 114 662 l 1,31,32
 86 666 86 666 65.5 672.5 c 128,-1,33
 45 679 45 679 30 687 c 1,34,-1
 30 717 l 1,35,-1
 289 717 l 1,36,-1
 289 687 l 1,0,1
EndSplineSet
Validated: 1
Position2: "'cpsp' Capital Spacing lookup 0 subtable" dx=41 dy=0 dh=82 dv=0
EndChar

StartChar: afii10018
Encoding: 1041 1041 330
Width: 614
Flags: W
LayerCount: 2
Fore
SplineSet
114 662 m 1,0,1
 90 666 90 666 69.5 672.5 c 128,-1,2
 49 679 49 679 30 687 c 1,3,-1
 30 717 l 1,4,-1
 520 717 l 1,5,6
 521 676 521 676 518 625 c 128,-1,7
 515 574 515 574 509 531 c 1,8,-1
 482 531 l 1,9,-1
 429 664 l 1,10,-1
 212 664 l 1,11,-1
 212 417 l 1,12,13
 230 419 230 419 257.5 421.5 c 128,-1,14
 285 424 285 424 305 424 c 0,15,16
 355 424 355 424 401 413 c 128,-1,17
 447 402 447 402 482.5 377.5 c 128,-1,18
 518 353 518 353 539 312.5 c 128,-1,19
 560 272 560 272 560 213 c 0,20,21
 560 157 560 157 538 116.5 c 128,-1,22
 516 76 516 76 479 49.5 c 128,-1,23
 442 23 442 23 393 10 c 128,-1,24
 344 -3 344 -3 290 -3 c 0,25,26
 285 -3 285 -3 270 -2.5 c 128,-1,27
 255 -2 255 -2 235.5 -1.5 c 128,-1,28
 216 -1 216 -1 195.5 -0.5 c 128,-1,29
 175 0 175 0 160 0 c 2,30,-1
 30 0 l 1,31,-1
 30 30 l 1,32,33
 70 48 70 48 114 54 c 1,34,-1
 114 662 l 1,0,1
283 371 m 0,35,36
 258 371 258 371 242 370 c 128,-1,37
 226 369 226 369 212 366 c 1,38,-1
 212 54 l 1,39,40
 217 52 217 52 227 51.5 c 128,-1,41
 237 51 237 51 248 50.5 c 128,-1,42
 259 50 259 50 269.5 50 c 128,-1,43
 280 50 280 50 286 50 c 0,44,45
 322 50 322 50 352 60 c 128,-1,46
 382 70 382 70 404 90.5 c 128,-1,47
 426 111 426 111 438.5 141.5 c 128,-1,48
 451 172 451 172 451 214 c 0,49,50
 451 290 451 290 409 330.5 c 128,-1,51
 367 371 367 371 283 371 c 0,35,36
EndSplineSet
Validated: 33
Position2: "'cpsp' Capital Spacing lookup 0 subtable" dx=41 dy=0 dh=82 dv=0
EndChar

StartChar: afii10020
Encoding: 1043 1043 332
Width: 519
Flags: W
LayerCount: 2
Fore
SplineSet
212 54 m 1,0,1
 262 46 262 46 310 30 c 1,2,-1
 310 0 l 1,3,-1
 30 0 l 1,4,-1
 30 30 l 1,5,6
 71 46 71 46 114 54 c 1,7,-1
 114 662 l 1,8,9
 94 666 94 666 72 672.5 c 128,-1,10
 50 679 50 679 30 687 c 1,11,-1
 30 717 l 1,12,-1
 509 717 l 1,13,14
 509 697 509 697 508 670 c 128,-1,15
 507 643 507 643 506 614.5 c 128,-1,16
 505 586 505 586 503 558.5 c 128,-1,17
 501 531 501 531 498 510 c 1,18,-1
 471 510 l 1,19,-1
 418 664 l 1,20,-1
 212 664 l 1,21,-1
 212 54 l 1,0,1
EndSplineSet
Validated: 1
Position2: "'cpsp' Capital Spacing lookup 0 subtable" dx=41 dy=0 dh=82 dv=0
EndChar

StartChar: afii10021
Encoding: 1044 1044 333
Width: 701
Flags: W
LayerCount: 2
Fore
SplineSet
685 53 m 1,0,1
 685 33 685 33 683 5.5 c 128,-1,2
 681 -22 681 -22 678 -50.5 c 128,-1,3
 675 -79 675 -79 671.5 -106.5 c 128,-1,4
 668 -134 668 -134 665 -155 c 1,5,-1
 638 -155 l 1,6,-1
 595 0 l 1,7,-1
 90 0 l 1,8,-1
 47 -155 l 1,9,-1
 22 -155 l 1,10,11
 17 -136 17 -136 13 -108 c 128,-1,12
 9 -80 9 -80 6.5 -51 c 128,-1,13
 4 -22 4 -22 2 5.5 c 128,-1,14
 0 33 0 33 0 53 c 1,15,-1
 85 53 l 1,16,17
 112 96 112 96 135.5 163 c 128,-1,18
 159 230 159 230 176 310.5 c 128,-1,19
 193 391 193 391 203 480 c 128,-1,20
 213 569 213 569 213 656 c 1,21,22
 186 661 186 661 160 668.5 c 128,-1,23
 134 676 134 676 109 687 c 1,24,-1
 109 717 l 1,25,-1
 652 717 l 1,26,-1
 652 687 l 1,27,28
 635 680 635 680 614.5 673.5 c 128,-1,29
 594 667 594 667 568 662 c 1,30,-1
 568 53 l 1,31,-1
 685 53 l 1,0,1
470 53 m 1,32,-1
 470 664 l 1,33,-1
 272 664 l 1,34,35
 266 538 266 538 252.5 439 c 128,-1,36
 239 340 239 340 221 264.5 c 128,-1,37
 203 189 203 189 184 137 c 128,-1,38
 165 85 165 85 150 53 c 1,39,-1
 470 53 l 1,32,-1
EndSplineSet
Validated: 1
Position2: "'cpsp' Capital Spacing lookup 0 subtable" dx=41 dy=0 dh=82 dv=0
EndChar

